<mxfile host="app.diagrams.net" agent="Mozilla/5.0 (Windows NT 10.0; Win64; x64) AppleWebKit/537.36 (KHTML, like Gecko) Chrome/137.0.0.0 Safari/537.36" version="26.0.11">
  <diagram name="Page-1" id="eznHNlZYzkeU69XShqGx">
    <mxGraphModel grid="1" page="1" gridSize="10" guides="1" tooltips="1" connect="1" arrows="1" fold="1" pageScale="1" pageWidth="850" pageHeight="1100" math="0" shadow="0">
      <root>
        <mxCell id="0" />
        <mxCell id="1" parent="0" />
        <mxCell id="GJSqTZBq8qRsz9hoO4Sf-13" value="" style="rounded=0;whiteSpace=wrap;html=1;" vertex="1" parent="1">
          <mxGeometry x="-81" y="-110" width="501" height="518" as="geometry" />
        </mxCell>
        <mxCell id="GJSqTZBq8qRsz9hoO4Sf-58" value="DoS" style="shape=cylinder3;whiteSpace=wrap;html=1;boundedLbl=1;backgroundOutline=1;size=15;" vertex="1" parent="1">
          <mxGeometry x="40" y="230" width="60" height="80" as="geometry" />
        </mxCell>
        <mxCell id="GJSqTZBq8qRsz9hoO4Sf-21" value="" style="whiteSpace=wrap;html=1;aspect=fixed;" vertex="1" parent="1">
          <mxGeometry x="690" y="177" width="70" height="70" as="geometry" />
        </mxCell>
        <mxCell id="GJSqTZBq8qRsz9hoO4Sf-15" value="" style="rounded=0;whiteSpace=wrap;html=1;" vertex="1" parent="1">
          <mxGeometry x="640" y="-110" width="610" height="518" as="geometry" />
        </mxCell>
        <mxCell id="GJSqTZBq8qRsz9hoO4Sf-1" value="SDS" style="shape=cylinder3;whiteSpace=wrap;html=1;boundedLbl=1;backgroundOutline=1;size=15;" vertex="1" parent="1">
          <mxGeometry x="-30" y="130" width="60" height="80" as="geometry" />
        </mxCell>
        <mxCell id="GJSqTZBq8qRsz9hoO4Sf-2" value="ODS" style="shape=cylinder3;whiteSpace=wrap;html=1;boundedLbl=1;backgroundOutline=1;size=15;" vertex="1" parent="1">
          <mxGeometry x="10" y="170" width="60" height="80" as="geometry" />
        </mxCell>
        <mxCell id="GJSqTZBq8qRsz9hoO4Sf-3" value="MDM" style="shape=cylinder3;whiteSpace=wrap;html=1;boundedLbl=1;backgroundOutline=1;size=15;" vertex="1" parent="1">
          <mxGeometry x="-40" y="220" width="60" height="80" as="geometry" />
        </mxCell>
        <mxCell id="GJSqTZBq8qRsz9hoO4Sf-4" value="" style="html=1;verticalLabelPosition=bottom;align=center;labelBackgroundColor=#ffffff;verticalAlign=top;strokeWidth=2;strokeColor=#0080F0;shadow=0;dashed=0;shape=mxgraph.ios7.icons.settings;" vertex="1" parent="1">
          <mxGeometry x="120" y="168.5" width="80" height="87" as="geometry" />
        </mxCell>
        <mxCell id="GJSqTZBq8qRsz9hoO4Sf-5" style="edgeStyle=orthogonalEdgeStyle;rounded=0;orthogonalLoop=1;jettySize=auto;html=1;entryX=-0.03;entryY=0.482;entryDx=0;entryDy=0;entryPerimeter=0;" edge="1" parent="1" source="GJSqTZBq8qRsz9hoO4Sf-2" target="GJSqTZBq8qRsz9hoO4Sf-4">
          <mxGeometry relative="1" as="geometry" />
        </mxCell>
        <mxCell id="GJSqTZBq8qRsz9hoO4Sf-22" style="edgeStyle=orthogonalEdgeStyle;rounded=0;orthogonalLoop=1;jettySize=auto;html=1;entryX=0;entryY=0.5;entryDx=0;entryDy=0;" edge="1" parent="1" source="GJSqTZBq8qRsz9hoO4Sf-6" target="GJSqTZBq8qRsz9hoO4Sf-21">
          <mxGeometry relative="1" as="geometry" />
        </mxCell>
        <mxCell id="GJSqTZBq8qRsz9hoO4Sf-23" value="Create and&amp;nbsp;&lt;div&gt;Update feed&lt;/div&gt;" style="edgeLabel;html=1;align=center;verticalAlign=middle;resizable=0;points=[];" connectable="0" vertex="1" parent="GJSqTZBq8qRsz9hoO4Sf-22">
          <mxGeometry x="-0.0286" y="1" relative="1" as="geometry">
            <mxPoint y="-21" as="offset" />
          </mxGeometry>
        </mxCell>
        <mxCell id="GJSqTZBq8qRsz9hoO4Sf-53" value="" style="edgeStyle=orthogonalEdgeStyle;rounded=0;orthogonalLoop=1;jettySize=auto;html=1;startArrow=classic;startFill=1;endArrow=none;" edge="1" parent="1" source="GJSqTZBq8qRsz9hoO4Sf-6" target="GJSqTZBq8qRsz9hoO4Sf-52">
          <mxGeometry relative="1" as="geometry" />
        </mxCell>
        <mxCell id="GJSqTZBq8qRsz9hoO4Sf-54" value="FHIR REST Queries" style="edgeLabel;html=1;align=center;verticalAlign=middle;resizable=0;points=[];" connectable="0" vertex="1" parent="GJSqTZBq8qRsz9hoO4Sf-53">
          <mxGeometry x="-0.2336" y="2" relative="1" as="geometry">
            <mxPoint as="offset" />
          </mxGeometry>
        </mxCell>
        <mxCell id="GJSqTZBq8qRsz9hoO4Sf-6" value="MDM" style="shape=cylinder3;whiteSpace=wrap;html=1;boundedLbl=1;backgroundOutline=1;size=15;fillColor=#d5e8d4;strokeColor=#82b366;" vertex="1" parent="1">
          <mxGeometry x="505" y="172" width="60" height="80" as="geometry" />
        </mxCell>
        <mxCell id="GJSqTZBq8qRsz9hoO4Sf-7" style="edgeStyle=orthogonalEdgeStyle;rounded=0;orthogonalLoop=1;jettySize=auto;html=1;entryX=0.018;entryY=0.508;entryDx=0;entryDy=0;entryPerimeter=0;" edge="1" parent="1" source="GJSqTZBq8qRsz9hoO4Sf-4" target="GJSqTZBq8qRsz9hoO4Sf-47">
          <mxGeometry relative="1" as="geometry" />
        </mxCell>
        <mxCell id="GJSqTZBq8qRsz9hoO4Sf-8" value="Create and&amp;nbsp;&lt;div&gt;Update&lt;/div&gt;" style="edgeLabel;html=1;align=center;verticalAlign=middle;resizable=0;points=[];" connectable="0" vertex="1" parent="GJSqTZBq8qRsz9hoO4Sf-7">
          <mxGeometry x="-0.2" y="-1" relative="1" as="geometry">
            <mxPoint x="6" y="-23" as="offset" />
          </mxGeometry>
        </mxCell>
        <mxCell id="GJSqTZBq8qRsz9hoO4Sf-9" value="" style="shape=image;verticalLabelPosition=bottom;labelBackgroundColor=default;verticalAlign=top;aspect=fixed;imageAspect=0;image=data:image/png,iVBORw0KGgoAAAANSUhEUgAAAWoAAACLCAMAAAB/aSNCAAABs1BMVEX///8Ax9QArUbkOSEBfO5RUE8R4e4E1ln/dVcMtv9OTUxCQUBGRURKSUijo6IAw9HZ2dm3t7Z5eXjKyslpaGc9PDrm5uXDw8NzcnEMuf8Ab+0Ac+35+fnY2NgAeO47OjgAqj1dXFuNjIzw8PBjYmEAvP+UlJMApzDjJgD/c1MAsv+mpqUS5Pecm5sE2k3kNBniFgDuKQCEg4P/bUkGkvR5rfQM1+QDyVNWv3bsg3nyrqj87evjLArpZljmTjuC3OTd9ffm+PrA7fFt2OEFjPIBid4BukydwvbV5fvB2PkE3EcEtWU/uGXl7/0qtFns+PBRl/HG6ND40c7mUD7paFvti4Lul5D0urXrdmr2ycXlQy2Z4+m36+/9kHvzsqz/hGr63duncYyBiLOxaHxzkMHVRz9js7gsKynOjX7MT1Dfg22SfaCymI9UxP9hmc+PpqRHpOF5z/8InvjEV16IaX+RPzMygqtNQTQhh486cndIUEBNODYqoKkDwYZNPkgDvI8I3toDtJ8DorsEynOxzvgLy68CkNQCm8WGtPUCmMkKyKWO6aeo7b3a9+Oz4cGX1al2yo+zAaHfAAAS+0lEQVR4nO2diX/bxpmGIcmQJQAj8QJJSSApHrpCy3Io16fiJI1y+4js2LHVw2nSrttuu1t7t9vubtMkPXbbbG35T945AGJmMAMORuAhQ29/TQQSxPHgwzvfNzNADONUI9Pdw3v33njj008fPrx6/8GDa9c+e/To88+ve6M+jDffHPUeR6+HezuB9pA2sS5c2Ln36dUH1x7dvT6So3hncfH7I9nROHV9c2dGKMweUZ954/61R8Ml/s7iVAZQG9d3JKxD6Aj5hXtXr90dkq9A0plArcDaj/K9zQs37n+Wfny/CUlnA7VxfUaJNQnwzQuH9x+luntMemrxrVQ3OqnyDpVZE9ybD9OjTUhnBbXh3UjCGuHe3Lx6N5Vd+6Qzg9owkrJGtA+vHX+/P/BJZwi1cS8xaxTaD46Zk/RJTy2+nc55nATd20vMemZmb/PBcfYZks4UauMNHdYzmzP6LSRFOluoNVnPXHio6SI06anFdM9l0vWpHuudPa1k5Ic06ayhNh5uarGeuaCRi7CkM4dam/Xm/aR74khPTQ3jdCZaV3VZP0y2nwjp7KEeEeso6QyiNu7rsv6R+j4EpLOI2ngwdNbfF5B+Z5inNLF6cEGP9YwiaxHpjKLWZb2zq8RaSHoxA8O4Ql3TY3249XjwtoWkp6Z+MPyzmkz9WI/11mDWEtJTPxzFaU2kPtNifWNu63F8h8hbEtKL2UWtx/pwbm5rLo61jHRGRnEl0mI9F89aSjpmEKbcam1rnUATrGv9bgx6pMF6C7OWzV+Qk47prq46oFHROf6GVdL52Vh0NznrG3OI9ZaY9dty0vKOvbZrmlZV5/DdE4RagzVGLWH9thz0lLwu7zqWaTbaGkd/olAbd5PW6IdzUtZxMR2D2rSsogO69EflXJldohoHL/wSo27ncp70pxOlz2WTJ+NRz23t8qwHkJbV5TUbbBvAMslSu9GoVEzXtt2gxdu24VKj6gPMVRvwO7CAF1yr2i7B5UbPh+210C+trjGZSsg6QA1Zf85sJ9495HV5C7hlYxvYNbxUds2m49i2YznYHDzTAbYDF13MutKwgO3CL5sILlwX4HWBhVm3AVx0bGBrOf8IlJD1nJj1ANLSutxzrQ4iDFp4sWybpt0tl/PAtPNwed1xWm3Dy9u44Ww3THu73C42Lbw6bE/t7Vy54i8aHcvueka5CuyFYQI7hhQnqnJRDUWxHkhaVsHkHQchLVkuDkyI2saJX861LPivQqOAVyvg77eBg83Bc6yGh1Dj3xptx0TfFm3fWJqWPRxSx1cS1jTqud1gIH0gaWkF0yGMfeIQtdUkX1SJZ/guvADsMg5bsty17TZCDci369h/4D9JHpN37GL6lNJRgknBDOqAtTeQtCytDpyD+AhCHVSAXeDzKlcWeiXLRKid4DoQ9ZM9eKGK6M6wckjl4LpNpNRZs6gJawXSslwPtoc5/Mc6wEFcDkwA4UNOksfpiAswaq48pFFXkG+YcE0o2GxOqllDXT/cmdnb3Bw8I+fGHMf6kRppSa7nmFaTyASoI4RBDSO1gPKJ7XxuHRuIH/qBuKiGqJvBxrQK/RHJu7H5ky+++HLn9QHhvTsXYa1CWpLrFW3TAkSW6Ri0gSwg/624VgG7M0HdT7+NMroFONRVyxkuo7TU/s3a0tLa0k9/9nos6i0e9dzuP6mwFvdWVy3QaxGVLOTNsFn0acL2sm30gN8OwqSijNzYb/hajSflCOp+cm60dcr80WltHmtp7YvYPDtCem7r5ypR/ZZon203bOfKMIBxskfyuQpORVo4mBFL7NVdh8Q8LHRQOsehhvkhqV1KjSeTzHppPtDS/C9iAluA+pcqqIU77QIqVehYjTZCbdmFSmXdNl1Ir+haZj5Xa9kkA/GA5RQqxS5sJJGjc6iNAgDVWrnYAWCSu6FC0lBrP5GyPtSManECYoFG2FWUt2E8QwOpOlDAIp0gLReX3k4pSFAcgL51e+jLBugEP8V1j9eBjagN/18a+WPd6lqbZ7T2hYw1n4Ag1AsKpMUJSKFE9Qx51VIeNYvddg807JKfQ1RKtmv1yrVOFePztpsw8ysU2Z/XSiXSHZWHazvVSU4/fj3Pae2nEtbRVnFuN75Hj0h1ZkKY7L2aipCWs061VRToFUctIC3zEIFVKwW18jT2Vxv1r18ToZ5f+2cB66hVb/1KgbT6fL1yw9YbPT8JkpCGrL+MDoZFrHrrsQpp9UlkXq9XG+bZjlNS0jDB/kWkltGzjyw9iCtXDGkovvcp4h9qRXk2Z7Fziie99C+cXfP+sfuvaqQzOrWaVjxpVDayds2TVilepjI+XY9oEGkY1z/bkfuHKunsPbEY0dOBpOeXfvO61D9U3ePUP1RIcxbCZHlbii3iGP2jnatBkQG1NvxrXPOeCOmlvmRxHb6KiPaPrcdKWR7ROE6v3S25ro3UQOVn7Qn868l4xtEh6aWl1549u3hxH+rixWfP0AdR4FQWQpuHUsepH9QpPG+UKyG11H+w3UCTLrHweEHegX+Np+Z/Or/07OKZer1+xlcd/b2PeXMW8m87fP/HlrpNT6m+ByS/jrQtGT2pAgvKVe4dLTlmX2NG/fQ1yPlMVJA3xM3Q7reM/UZx95cJzEOxUcw38FiuY4m/ruIQVZ7dUQUhaROMFfXTiyLOfd5nLtK0177co/1jSznH84P6LZUjMv3bXTItKRnqik0Y2w6+fGiT40L9tB5HOkobh/WuD/rniUJ6Sq1RrNnB3d4Tfp8MdROvbfdy4UdjQv3+8gDQPm3oJH7CtxcE9e5j5RQvUVC3+nd8QzgsWHUSeHXZxTHNdMaOB7UaaUx7/xkJ7dd3dm7gXDpJc0ikVr64fWcVR26uiqT4PBfGalrRz0aNWp00Ce35pfm1f//tbxFopVEALqiV0o8KhoMjm50AqaVttCHuObtxoP4wCWkEu37xtf/4neOAuV8lNWlEWm1MoITMFeQxazc3eP149UD07hgD6lsJSWP9DrXjv08OekqxUCTm6hrrgnDUUAFdOIdNZcaAWgO0j/o/NUArvsUQ3/Ew98jhPOTYM/4nA/X3BmV5UdWX3/0vmJ/+9x80SCv2M4Ego8ZZmnPcGTMTgfqD5Pax/O5XH70H/vjH38/OXkpKWnHwtoiDGT1rgYEc+7nPZKjbtUo+n6/UUp5QuZ8U9Mr+1+fPnj373u3Vb2ZnE8JW7mbCaDCGNjFtQWfneqdU6hTZ5RJuQNuV9QL8u9OF1wx3SpVILdQs0WqaQtTl7aZrozmCju02F9j9LqBd8IeC+734hruG9s82w39ZSQj6zLfnEenL09OrH5+bnU1EW5k0zTekzp1hA5UwFruM5pu2e66Du6LQNNYm+cuvOxmZItTlqguC/j/4A+D2qND28C741BOVUgBwH+I9PGE+SmbU9eU/nUWgYVBPT09vfDM7mwT2ovLQS5dyjdBLONSkcGeXrY5RdPtlpl32C3K5ONR5l18f0PUo3hp3h5EOBJsNa5xAsS8keD9RUC+/+2cC+uxZSDoMa0Xa6oNcJt0WOkELqYK6lGuEmBKjXneDaMaPhxC54dTYBUF6jnOlyCVzIismCumVbz/yQeOgpsNagfYlddIkUFz6XKJ9TkLUZtNnFRhI1cW267uFQyuKqEs2adlmb6G70LNs8jM3z+yDe3sG6YC0TOZDXIC5dLOaxKlXwpAmQQ11+9wsq0sy3JdmEwzctpi6hVQzkT4nMWqCyu7gDhIYjl4FqUhqz4UKLVIdUahr5Iawq4EZFJtkOKHRtwyM1aUPJdgtYyse9g/G1PcTmMcfQtCoUSRh/VeetYj3pUvwwwSk8YFS7texordtDGq7Gp3ip5Tskfh06ZcstEg3Vf95PXx5GDNb8FsG5pUauAOH+UQ9p67Xv6JI+/6B7FpAOiR+CUMmimPLiaTSTekykQy1K3ofhQpq0vvHPUna69dSWLiNBvSAZtAYMI9P4tuSaSmVC8X6/mWadOAfEPVXorAWSMpVIBLFFDGS+nGpqwS1+KFbFdQYWqRYIk7ct2e+M5akGnxiQnol6c2oOvXK/zCgw6COtIxpkPa9mWpTWqI+JzFqrnkKpIA6R2yLNx8S6/0Wrmex8doF6EKgpoByOHwozPF+qIh6+X8/YkiHQY2UNmk/4yhQn9REfU5i1JIBMAXUXSC8Uh7ZbJBc8y6M7kCQx8DD+2Eh4uiK/hEhfZkmrWIhMqhiCfJoJs/2JUZti6crKaAmVWm0u7bKfE5yi74v4zvQLeN/hfchqXTojagF9QpPmvYPbCGDWMuYiiWqDknEsfmsBLX48UQF1E1hnhPcZP19V5mMGW0DNdgm7SC4W4EpBNT8Y+XvPGnWP+KzkOSk/Shin35pNxjDxEobNZtqcKuF+Q9bByKTRnayAKjLQVah78G/qfhH/d3zPOnLPOqPY8NaDlUocU9eNdrnlDJqT9SVgVRkkw6SchSog0XHincelDZ4Z0zJta8S1PXLPGnOPxDrr2NYx2EViXgFn3IJXCVt1K7E6kmbHL7rAhuNHW6CBDzdmLj8GSgNKS5/HQlq3j+kRaMWab8FjFimHcnERos6TH/o9ALdbGQLyNH9WMdhwZyBilXXo0YtQi1vGuVIJeJjiDlBQDc1KaNuq6KmkmZ8eUhpRTkILt4ZB1RJ9Vai9hGx6jjWMUwlIoWwWahywv1FjAGOK6qxV5D8GyXZQSYO+g4CTI2upvqfovYRtWri1yLWingpeUGHcUT4Y/q2HFmzyDcTYdSirQa5EvoU33Uk6pkWXMGql/8cJS3yDwlrjTdw5KlJ0ALRwZJ2sudEWgMiXB/SVWTfi/HVCS4ODn5UtnQjXU0fKFj1vsCpZaijbaPOu046AwZNqD6ntFGTia3RWRD04BuR7X9ALkLwKVpArSXpLKO3oDDUVf+7wD+EVk1Yf3fuuKRJT5PAPgILoQrntFGT0YNoD2wrMgiEu5xgE4jalbDWQuuBFmlemW5WlVZRiFps1cRDPp4NYWv9p1jXyXTIkkj+DOn+ummjXhcU/0ikkYh0/MP4txnHwQ7ikC/ZonN/sH8IDSQG9fTq6nc+7HN6/9Fbh4tcWiQbC+/wtFFX2N5SbrO0h3skcDFbqrnEjHO9SFeTSqt4ZvlblQKGgT393Tfnzp375qXwhAfJP1vJs4S4OA/DLm3UJAUB/KtHCsS4okditiw2LLCDrOODpHuAjVsqfU31W/8XYR2PGsLemP749sbGFTGueBGYHcm3XNiljToY22IvdFF0AfyJ8Vy041UFT40o1Yq3DCPCehDqgPhNCbAY+RYhfbqFnHXgmqmjJm2yZdEW4u+Es5Vy/4kGJtPoD9mzq7+v0CreQivyrBVRT6/elhGTqkvmrUtTF7/RZClwVI6B2n/6xgLhank72igiBWO3bKbhV7p8Z9ngBISQNox/MKzlud7xWeO7D8ifry0zo3/po/b8x/fsTj7X9tq5rj8NJPriyWBGAptpFP2w5q7MJ4NQr9wKVmVYq6NOzLoWbes54eog6HNKHzV+0S0OS8d24f/8qWSWGdlmMBGCG+4Uzb4ZPINs5YNw3X8IJtsosZ6+I8cWVU88jsrDCRxmCKiNskU/s+vHaFOwSUvgH4GD8KcwINejSTOsk6BOyNoV2iItD497+e2mPxmh/2VtIGp7IGrD67ksbNAQZvmk2XC54bGKKF0ZMC7AkjaMF+e1UCdjbeIXSMTW8+uN8L0SbfR3IyyY8bIryRS38cpsHiF+SUWuh5zDslDvALDtljjJb6NjdSMe3sSnwO4mvrNp+QN+G33WyVAnYu3VcrnagJ4T/J9ooNanO9Da3DL/w8jzFuVaTvTqFa+4UECPGZR6XfnLQjzqQLjj404hdgpqlLRhHNATqxPBTuTXr6Di0moR6ZB1UtSZZx0zMUFM2jCen9dDnXXW8gpm+UPZbwjruJ49iTaej/LUJk3SCkZOGrLWaBdPWe9rkPbjWgP19MbBqE5s8iQJ6njShnFHE3WWWYsrmOW/DPrdHT0HyTBrT4h6MGnMWgv19MaL4Z/WJEpYl6uQRqw1cpAMsxYNd6mRRqxXT1mrS9AFsvy+8q/fO2WtrujIYgLShnFbl/XR0M5oYhVBnYj0KesE4jv2EpI2jJunrBXFdewlJm0YVzZOWSuJRb38N41NHOmy1pv4dGLF9KGu6JA2jINVPRPJGGsatSZpWHJqmki2WFPd1dqkoQ6mtWBninWIeuV7x9rQCy3Yq1qTJ0+m+qiPSdrAsJN7doZYB4MwxycNdXAlOezssPZRp0Ia6s7R7aS0M8OaoE6LNNKdo5sbibI/nQnYJ1GfYNKfpLvROy9eTifArTEB+yRqfwiksSDumxuQtwrwbLDeHxJpoucvjq5Mbwwmvnpb59nGE6b9M/Xhkfb1/ODo5ZXbqxuEuZD66vSwD2L8+mR56KT7uvP84MXRy5dXbhLsvjD91Y1Xf46ZN2C+x9B0B+r5wcHBC6Sjo6zOWDhV+vp/CZbNZMTKfGcAAAAASUVORK5CYII=;" vertex="1" parent="1">
          <mxGeometry x="8" y="-69" width="362" height="139" as="geometry" />
        </mxCell>
        <mxCell id="GJSqTZBq8qRsz9hoO4Sf-10" value="&lt;font style=&quot;font-size: 20px;&quot;&gt;&lt;b&gt;Extract&lt;/b&gt;&lt;/font&gt;" style="text;html=1;align=center;verticalAlign=middle;whiteSpace=wrap;rounded=0;" vertex="1" parent="1">
          <mxGeometry x="-20" y="340" width="60" height="30" as="geometry" />
        </mxCell>
        <mxCell id="GJSqTZBq8qRsz9hoO4Sf-11" value="&lt;font style=&quot;font-size: 20px;&quot;&gt;&lt;b&gt;Transform&lt;/b&gt;&lt;/font&gt;" style="text;html=1;align=center;verticalAlign=middle;whiteSpace=wrap;rounded=0;" vertex="1" parent="1">
          <mxGeometry x="110" y="340" width="100" height="30" as="geometry" />
        </mxCell>
        <mxCell id="GJSqTZBq8qRsz9hoO4Sf-12" value="&lt;font style=&quot;font-size: 20px;&quot;&gt;&lt;b&gt;Load&lt;br&gt;&lt;/b&gt;&lt;/font&gt;" style="text;html=1;align=center;verticalAlign=middle;whiteSpace=wrap;rounded=0;" vertex="1" parent="1">
          <mxGeometry x="260" y="340" width="110" height="30" as="geometry" />
        </mxCell>
        <mxCell id="GJSqTZBq8qRsz9hoO4Sf-14" value="" style="shape=image;verticalLabelPosition=bottom;labelBackgroundColor=default;verticalAlign=top;aspect=fixed;imageAspect=0;image=data:image/png,iVBORw0KGgoAAAANSUhEUgAAAaEAAAB5CAMAAACnbG4GAAABelBMVEX////2mSNsXVP20SNcNxFlVUrPAACYjohjUkdoWE6yrKdpWk/5+PihmZT2kwBfTUHNycaGe3N0Zl24sa3j4eD99PTea2/84MT01dbWPkP1zgD2lxvvvL7XSk7if4LRABH66+zmlpfyysvp5+bbWl700tPooKLDvrv4rlvpqatYMQD2lhSPhX7w7+5VLADn5eP71rD44eL97dzttrdQIgD2njH+9u3SGiL2qiPgeXxRMBBLGACooJvY1NKIfXZRKhD6x5T5uHP6zqH5w4vTJCvVNDrki47+8eP2oCP2vSP2syPdZWntkyKoZxr4rFfLfh5uTzKCaVT65Z51TRT878n5unr827v3pkbNjh72ogC8dByohBr54oSJYhb31DV0ThTkvSHciSCXXRj42l6xkUH877v52IZrQRP65pj2ySOCRgD43Gj310eei3x8Ykz99thpSSpHDwD4u2LQtXWCXRW4kRvKph6Ze10/AAC5ppSDXzpSPS7TxLXnzHpuX6yRAAATk0lEQVR4nO2d/WPTRprHFSWS9WbLlu282E6d4CSCxLKBvLiAZUhIoLt0U+i2cNeldLs9Fjialt7bHte7//00kmb0NpJmZNk44O8PhNia0ctHzzPPPPMShqHW0c2nJ/ePzw8PDxcWDg+fXf323vWVh/TVzDUJHa2cnO+VSqW9vWZzwVGz2dwDHx3evz7H9IF1E9DZg2TCau4BSisf+iI/XT08eRZPx0dp4XgO6UPo6Xk6Hld7pcN7Rx/6ej8xHZ0clgjxQEs6vvmhL/pT0r09Kj6uIV2dM5qSTkp7tHgcQypdnfu6KWjlsJSJj8Po/oe+/I9eR1fp/Ztfe815XDdRXc/o4HwqHc9d3cSkHGd3cD4zWpib0YR0c2FsA7LVLN370Lfycer6eC2QX6WrH/pmPkbdz8PDQe09mzdGeSuXJshTc2Hefc1X5/k0QT5EpTmiPPUsb0CWSvOQLj9NAtAcUY7K3cVBRHNHl49yDhI8NffGieg26v5fkILHBH+1P7pxw/uwvqEED1eClQFZH3XK5hgXOnHlGmaHEB1mv6x9ft37pc63eUfttWvex6s8Hyy0eusMHHT2YMP5/RHf8n+9xm+DH2ewMltXGKamm7XsVzppXZ8cIKtflL3rujbgV9EvdX7waMvWGs9vIbu41W7v+4oon/H8YGt5ea3Ntx2Oy0FC606Va4P1LaR1C5ppmp3MFzpp3ZwkIKspyjocsc2vt2+h3ywbgv9dXeO34KfttdM1r0h9nT/dt13jxgOe3wT/iSHE3wieTKnNLiDmkDLV0yzRpb+zBnTL/I31NmqJfISY+il87Dt864HP0Nb5dVRgm7cPIiQ0yzqmDOP2Dp+u3KebwpApWqhbrdA+v+P96hFiWrCFOhswN/hl+PEmf+arYJ//jPkYCD2l9HHNZ6DU0SEF12xN0Q6/zyiDU/hrgFB90N4AP6/wD8BDd+1mgw8+dzsmuPSEjmg7QrCHQ9ODKl3PcGWDgfXPAxBn2QoQUs6cJ7wFfuw7DQ4woWUmoktPiNbHLaDomSYLkaFX1LKf+w0vJgjY0KltQ+63bdfQzhBOny47oRXaOK6JPNbRwl7TEQGhY+or2+I3nB/uowwQWuVtKK6FPXAg1Hm+zkR02QnRxnE+QszK+VVHBFODqLM/N/hH9s8WaGmAAoSW7U+VwZl7rG1Kq4E4AR3aXt70tHPmEmpvXoPax5SaGdH3VZ1AIaST1NAOWyxJn0GPNXBzBn5CO+3BBsN4kd66bRHb/hQE0vIgkD4YwB6r9xGO68yIlg+wBlw9D89LWHlNFWWnqA7bFsuFOe94nR/sO9pZd3o6liG4Xq1lx9Wr/BqmpuX25hVP22vQhvZXt12tYkrNik4yZBNi/NXNFZxO0MwUyvzcNR7m3jbc517nT7233o6jt20utk4HddvKlGhNl7sdymBCC3snVKdAWXM6I/J5oYGT6wQ25LYb7kvv818DOwl35hwZ1KUmRNQKffG5qy++cIyBskWBdkpVbps/+wxqq233cgKRgvPBAB2z3AaGtsPfilZ1qQk9S23ff/ynxYDevPnDH/+ZMiyDiGjCuUe8N8BgBdEbDIZQgIfdFaq324HnDopdakJpfaEvv3t1++5fFsNqPKc8z7dOW0TRJ9poD3w9m0d23zVC6NSXMWU27eB8MxjNDc42LjehxHRC88s/Ld1eWlq6+32E0AvaE7m2WiJOLGwG3NUVOx4OE2oFIreNtp1kWPPnfbbsbtIlJpSYkXP5AEQ/vAkC+pk6g+Maa4k4xgiYB3BhrSihLT7Q01y2DW3jjF93i66u86d15lITSooTEB9Lt1/91U+IHhDDXLWNqHlOeHgr1PW8BowhROhGCNg2DxKtYAiP39pptTbBT9tTxhBqP9jxFDhidnQeGyd85eNjy4eI2sUBQSMi3HphLWgeIFZYBf/4P7vldYaCha653aY197E/ClYG5yn48wy4EHAGFOfkmj/+OcTH8nQIUSPTYJx7LkI3V2+1Qj3PKy3LJ7UCb3qrtRE8ZrUFO0Or1zZ3vG+3gwdeadWdH37NZlYhbuTubxE+PkSNX7Od7Bmdm5sLCBvJNb8LO7gAosbXGU/mRnNjTZ775ISzny+jDg4JRHQ/ZTwX9KjzScIUeohxct/F81m6/UPWRogBmzM4J9i7l+ctfOSKxtqYCCHg577P6OOOrp/Dc80bIgrdDzdDSQZk6+BfqE9ytHJy/KzkH96bwJ18rAplTZNaIEiIZur5w5WTb88X7C3p/Kch7RHNxTABE2p+lYZnaWn3CWHNv778+9VmhI1L6OlEb+pjUjBQwPaBQrpDsjTg6OXzxUaj8eaLKBwnVKAb/vuU5Z9N/+MrAkAkJvTyZ4uO07X9Ywyhbyd/ax+JvIxCMzVEIDSh15COM9aHJUQ95efT1Qlqh0g8HIEJvVz08wHCerox1nt9YnrqhsBEHg6YUEog9zrMJ8bTNadze5dVnbJUhv+/CRYvNL8i47O0+zi55pcYQIuLf8A0RPPMXKw6kiYIquR9cFxq/okQ0NKBnlj3ERaQ1RhFPN2cUIwUvaJyMstyPkLM9X8lBbS0lFz92xhC0cZo3mXFyixwgoWHDRFizN1dQhOS4qq29U0soMXFz3Mj1NGHXU0WVFWuDGd6ZT2lTL0gCyLrKkiIUX45ICK0i5lt69PP8YDC8UJWQmZRVAVOdt4zmROEoh39D39ns9U3OzJUD0+UEMNc3CEA1HufeA58mIBHlImQIYnuXYicBUfgRJkVVU03FE3UMtQ3UzJUFdySHEeIqR6ke7oUE3qRCCgY0mUgZBQFzrl4VStIermsSwVN5VjZJsUmX9slkGLUTL1akUOEvPsyl3ppJjRMPEOKCQUR0cdykstHYKW+92lHYl1sBm2Fs6miGGdD1jua2hiNZ0IBRLQ91pomOBfOhuN9Zaja4GZ4owoaJRGyGqNERCl9oaRADoOI7rp1NwYVCpi3xARWJMzwbjw0SibE6AmNUS8lI5cYyIURUa7zKqrOZQv4l8S07EsoY7+6dIoQCr2SncexjVEv2dH/SmJCCFGTau+LguACiuv+6EIcvEunFBtiQNiNN6PfUjqHb8kAuYj2aHZh6rqA1PhLqMhclaLGGVY6Iab2Dtca/ZbyisZl5GIQ0YyxFiGghEswhYQ7ulQiIGTFtb2wq9s9SPPyz8kJga4rxZTGqtsGcYWkozSuSFzjTIuIEKNc9Ho+X7d750lqKEsBCCAiX+RVcwGxcuJhBaFLWuNsi4yQxUh6fHDQ293d7fUOek/Sw6SvqQgtfk4eymluHzslVtPZEXGVMy1SQpb61YsnT55cDMsknXWC3mpA/0Z6wZLbCMkV0hJRKUa/VusYpGkhpWN4/63V+oaCLakY1nfktbolajG1IVEQolF6wico4nnFBscSmVCclPKwonGqLVnrSqnd2r5UEX93zmUOrZKCVVBgKwU96OcNvcuq9peyNhqW0zGZ0kgT7BJWbcWEt35ChMh6qz5CpMuPii4hOVPq2uwKggiTxVYlMqdqUsLTNKoaGN+034ay/V9YUrRKVlFJoygI/u8EoZDYFzGGrMqJ9hXIdglBHcW9cZMhRJTwCYgwUDBcH8dm6e30Kyp4HiIHRio4EQ4pxVZldl0mFqFaxUIAHr0l95HJguyG+yCHKzvfce6XojqKNQulqHJOBZxW0QQnASwKGp7RZAj9RAvoLWHFQ+Tk6POiOuAjqlx3WNV1vTrUVBhzVKJmpJhFDpmFYFZVWbYMQzdr/Vp5yMGrUEHAb2gCGJSSylajYuojWKsYl/Aou8Uhkn6Vtd87WR3hzHkihEgTPkiNl4Q1I09CHyfoqv1IfQ1PH+YmRDb0vtfU4PimxrFqxfeKD2HELxQYkxNFtei9MH0NlsSnPGBZ/9wdt4sncphmcSKE4uePxBEidHImcnLJI1MY2d2ocHgBO7+ypoQOtpyg7DVYFsNgySq8EGEoykI3AFiB/QEZN4hYwCZE3BuTMXY3CULUJkS8yBJebYZIDgxVRpOpMHYP5SeMqlTsVjQESOiGnzUc+WQtQOFaawhftIUbCvivyjBZH/HekyBEk/BxTIjWybEq7QBqX8DHf/B9x3okiEGMJpCQNbNstGQXecjwN7oLQowkPAqia83hLyZA6CG1CS0S1txHj0WjnYRQBa2zJkXAlpM6wJWE9AWyIUz6T0dG1A9+4fXmIhfSgdYc9t8TIPTv1Cb0d8Ka0Z3TBwrOK8pFB16RVWIa6SRCXTn+UgwUSIQKdhOeNqxQDVHNn1A/smdWKiHSaT4o1paps6Ijd9JW5HmiB4CJPZIISUldZzSDKtjaoKQvh3EB0JrFUMo+f0JPqAmRdobgY7bugjqUg0XV8LNBbg7zpJMIIXvGEUIzqIKEoAnhPKPnAUNtbO6Ear/9B60JEW84g4Ir+quF5qeGY6U+eq+jwUcSITOJEPJmAUIoIYLvy2p4rLkT+qX3AyUh8v1MUKBAf7UmHPYL25CCEgfRhigzoQKWUBVaCX7CMkQRatnyJqQfLP15UiakeITos3IFJ+cTLZgw3pREqEZPCFYX04pW8YFe3oTeLVESahC3Qp6XyJQ3lTSOHWHcC2ozorMeEglB70hMSImJH6DKyAkGTpczoWJvaYnOy1FsCWSM4eWA8ENlI+z7bitfQqhETEoVWWXw7vIlVAOzgqgINV6T1+4jRB3LxauLb6CB8iXk2UhNwakDvVww3s6X0C9guglVLEez96bXDoX7DOMI32bYypeQFyg4Q0lhoa+DoUKuhN4DE7pN0x9qfENTv0cox3k8UyOE+ttpCnbN8iRk+zgqQpR7qMfcwxgypVFC+50vIZSYZwU1WYFoPE9C7+wpdbejm9nn4uMYX8o/j+VbhilVwCo3+NymR0g0sO2QTwymWA6ELpyJqXf/k9yEKNfdDdFbGEkN0KlTLmrA9atcoYzv/9uaEKFoYjtJ+RGqurO77/4XMSDSYSEolAsbZ+mJYdPhREGoSCDsnVo7JKHEG9XrlRshE65MvvvXdDYOINo/5OEbH8oabhvVCieIsiyIXd19k6cfy9G9XnkR6qC593dJAWXYXxgCyjjjtDyyl1aLQkX3XP3UCCEPQJcRyYmQ8s6beE9IKMtfISh44RD9OmJdc6ICIZj7mRohlGul6yvkQ0h57AEiDLZfZNnHx5sdQL3CztSc6W/hWTvTI+SlRKj6CrkQUnxLKUmD7WwbLWV2c5I70ZCLzF6cGiEFXTzVIug8CPkBkYZyGXfC8vrldJNO4TRCDNipEfK6c1QPOwdCxjv/Qte7b9LxNDK5OPtcXjRHs8SunDCQOj1CKNymcnPjEzJ7gZXIrwgAZf0rEYy39oFuz5Gkl3d6hOA4b8IadozGJlQNLkMmaIYoxuyiMjxCqUZkwIUnKMDA9RWnR8ibZ0HTio5LKLxrSXozlPkP4ThCM6YjE8siGqruTHWvr4g5aoqEfK0ouRGNR8h8F14kntZfbSxSjTdgVIF9orQEd98Kr53/SUlTOKZIqIPcHEVyfhxCxkV0T5mU4bvGT2NvZ9rx+kTJqR8NzXlHNiRiDitOj5C/x02cV8hOyLiI7LKQmtge08M5QoEZqyYluLocelHR+LOKOQ66nmkQ8owIOwvZltENfpORkKE/uYPb8Ccx1s7BgGxJHqJ4d14QvIdQS4oUqlMk5GuJsIuLgDTu90CpDIT65YvHd/B7ZiWNrzZejNsCIQ1TrUgZcazg3VLcTHcgGOhhnkD+hNDsvOiqMvfCNTHURtESOvrHf9856MVtaRYfyTVycXBQPivCXneNFcECRiT4xHBzCWEnGPPdBAh5XW5W1KI9uj648GCMSm9D5i9Y/2YrrrvaWMyTDwMy+WjAshIJupWhKrOBTWPQ44x6f91baRc5ywQIWSaLrEiMLA6rWl+GPXeWdqj/jwM8o7v47mrjRc58wDVoKJcvFAOti1IFG52qwf5sAa0lCby3HYkV5NDAWtmbOYzmumMS6V6aHXN1aA4e5qmavg0dhILv0o2qdU9yxG8X4EJAqkHLo/fvcJBuY4ZXG423ubU/AVXRmnlRGOkdx6kb5YLIgU9CL68CF2jLctVhpBjloQb2QRAk9MDA4+po6Bl53Sg2Ynod1KBwxUh7onuJD0woY1R8nk7o6jXD6JhlqcJxsvVuhc/kjfyLlCP/5sWrcHsUiRMajcZPLyf29xyMIgc3CREFla10uyONA95PVEeRmE1Bj4XjtFF3ZO80IQO4fbS4VBaLUpcTrSDL0HWpwPrmtwmVYlV3n5CpV4cVz1dZh3Ul3d1ERgEFNcFXULMKhk1Q4ryqRc7eh8Yd/PXTJqsrUbX3/7N74OsUBWYogD/a9XxyeGwBv4B2cpGd9fUyJ1SwMbiEdrCwjrM9jSxwTt9DQrtUcNYDs0qbv4NpWn5xgqC6LU7XeqBc6EvV3frHAAW5cMFIsskYij7E8C3jCoEm1d4RPVIXrkuXpCPz/cWr3sGBBarX+75hg7H18+uXU/lTGzWpAibUcvAOhEo1buBI0SvekWDfGDSZhCkDi7J3vReL4LN+t4CR27RJuO+6zlthYAti5jAr5S4Hn799YrkQ3q7JwFaVbT503/zf9+/fF/7v7dvnr19//fU3v073L9X0y7o0LBaHw2q5ljzTUalZHqpoHSrpZhBkp6zretmc6h7d/bJ7MVXdJB9K+X/sMlMLbPAAqAAAAABJRU5ErkJggg==;" vertex="1" parent="1">
          <mxGeometry x="736.5" y="-80" width="417" height="121" as="geometry" />
        </mxCell>
        <mxCell id="GJSqTZBq8qRsz9hoO4Sf-16" value="&lt;font style=&quot;font-size: 27px;&quot;&gt;&lt;b style=&quot;&quot;&gt;or Trust Integration Engine&lt;/b&gt;&lt;/font&gt;" style="text;html=1;align=center;verticalAlign=middle;whiteSpace=wrap;rounded=0;" vertex="1" parent="1">
          <mxGeometry x="760" y="50" width="370" height="30" as="geometry" />
        </mxCell>
        <mxCell id="GJSqTZBq8qRsz9hoO4Sf-17" value="&lt;font style=&quot;font-size: 20px;&quot;&gt;&lt;b&gt;Enterprise Integration&lt;/b&gt;&lt;/font&gt;&lt;div&gt;&lt;font style=&quot;font-size: 20px;&quot;&gt;&lt;b&gt;(&lt;/b&gt;&lt;/font&gt;&lt;b style=&quot;background-color: transparent; color: light-dark(rgb(0, 0, 0), rgb(255, 255, 255)); font-size: 20px;&quot;&gt;Asynchronous Output&lt;/b&gt;&lt;b style=&quot;font-size: 20px; background-color: transparent; color: light-dark(rgb(0, 0, 0), rgb(255, 255, 255));&quot;&gt;)&lt;/b&gt;&lt;/div&gt;" style="text;html=1;align=center;verticalAlign=middle;whiteSpace=wrap;rounded=0;" vertex="1" parent="1">
          <mxGeometry x="806.25" y="340" width="277.5" height="30" as="geometry" />
        </mxCell>
        <mxCell id="GJSqTZBq8qRsz9hoO4Sf-18" value="" style="edgeStyle=orthogonalEdgeStyle;rounded=0;exitX=0;exitY=0.5;endArrow=none;dashed=0;html=1;strokeColor=#808080;strokeWidth=2;" edge="1" parent="1" source="GJSqTZBq8qRsz9hoO4Sf-20" target="GJSqTZBq8qRsz9hoO4Sf-19">
          <mxGeometry relative="1" as="geometry" />
        </mxCell>
        <mxCell id="GJSqTZBq8qRsz9hoO4Sf-19" value="" style="strokeWidth=2;dashed=0;align=center;fontSize=8;shape=ellipse;fillColor=#808080;strokeColor=none;" vertex="1" parent="1">
          <mxGeometry x="710" y="197" width="12" height="12" as="geometry" />
        </mxCell>
        <mxCell id="GJSqTZBq8qRsz9hoO4Sf-20" value="E" style="strokeWidth=2;dashed=0;align=center;fontSize=8;shape=rect;fillColor=#83BEFF;fontStyle=1;whiteSpace=wrap;html=1;" vertex="1" parent="1">
          <mxGeometry x="726" y="215" width="12" height="12" as="geometry" />
        </mxCell>
        <mxCell id="GJSqTZBq8qRsz9hoO4Sf-33" style="edgeStyle=orthogonalEdgeStyle;rounded=0;orthogonalLoop=1;jettySize=auto;html=1;entryX=0;entryY=0.5;entryDx=0;entryDy=0;exitX=1;exitY=0.5;exitDx=0;exitDy=0;exitPerimeter=0;" edge="1" parent="1" source="GJSqTZBq8qRsz9hoO4Sf-35" target="GJSqTZBq8qRsz9hoO4Sf-29">
          <mxGeometry relative="1" as="geometry">
            <mxPoint x="960" y="171" as="sourcePoint" />
          </mxGeometry>
        </mxCell>
        <mxCell id="GJSqTZBq8qRsz9hoO4Sf-29" value="" style="whiteSpace=wrap;html=1;aspect=fixed;strokeColor=none;" vertex="1" parent="1">
          <mxGeometry x="1027" y="128" width="70" height="70" as="geometry" />
        </mxCell>
        <mxCell id="GJSqTZBq8qRsz9hoO4Sf-30" value="" style="edgeStyle=orthogonalEdgeStyle;rounded=0;exitX=0;exitY=0.5;endArrow=none;dashed=0;html=1;strokeColor=#808080;strokeWidth=2;" edge="1" parent="1" source="GJSqTZBq8qRsz9hoO4Sf-32" target="GJSqTZBq8qRsz9hoO4Sf-31">
          <mxGeometry relative="1" as="geometry" />
        </mxCell>
        <mxCell id="GJSqTZBq8qRsz9hoO4Sf-31" value="" style="strokeWidth=2;dashed=0;align=center;fontSize=8;shape=ellipse;fillColor=#808080;strokeColor=none;" vertex="1" parent="1">
          <mxGeometry x="1047" y="147" width="12" height="12" as="geometry" />
        </mxCell>
        <mxCell id="GJSqTZBq8qRsz9hoO4Sf-32" value="E" style="strokeWidth=2;dashed=0;align=center;fontSize=8;shape=rect;fillColor=#83BEFF;fontStyle=1;whiteSpace=wrap;html=1;" vertex="1" parent="1">
          <mxGeometry x="1063" y="165" width="12" height="12" as="geometry" />
        </mxCell>
        <mxCell id="GJSqTZBq8qRsz9hoO4Sf-34" style="edgeStyle=orthogonalEdgeStyle;rounded=0;orthogonalLoop=1;jettySize=auto;html=1;entryX=0;entryY=0.5;entryDx=0;entryDy=0;entryPerimeter=0;exitX=1;exitY=0.5;exitDx=0;exitDy=0;" edge="1" parent="1" source="GJSqTZBq8qRsz9hoO4Sf-21" target="GJSqTZBq8qRsz9hoO4Sf-35">
          <mxGeometry relative="1" as="geometry">
            <mxPoint x="726" y="212" as="sourcePoint" />
            <mxPoint x="856" y="173" as="targetPoint" />
            <Array as="points">
              <mxPoint x="820" y="212" />
              <mxPoint x="820" y="163" />
            </Array>
          </mxGeometry>
        </mxCell>
        <mxCell id="GJSqTZBq8qRsz9hoO4Sf-43" value="HL7 v2 MFN&amp;nbsp;&lt;br&gt;(and FHIR Message)" style="edgeLabel;html=1;align=center;verticalAlign=middle;resizable=0;points=[];" connectable="0" vertex="1" parent="GJSqTZBq8qRsz9hoO4Sf-34">
          <mxGeometry x="0.0499" y="-2" relative="1" as="geometry">
            <mxPoint x="-2" y="-38" as="offset" />
          </mxGeometry>
        </mxCell>
        <mxCell id="GJSqTZBq8qRsz9hoO4Sf-35" value="&lt;font style=&quot;font-size: 13px;&quot;&gt;Message Dispatcher&lt;/font&gt;" style="fillColor=#c0f5a9;dashed=0;outlineConnect=0;strokeWidth=2;html=1;align=center;fontSize=8;verticalLabelPosition=bottom;verticalAlign=top;shape=mxgraph.eip.message_dispatcher;" vertex="1" parent="1">
          <mxGeometry x="890" y="140" width="80" height="46" as="geometry" />
        </mxCell>
        <mxCell id="GJSqTZBq8qRsz9hoO4Sf-42" style="edgeStyle=orthogonalEdgeStyle;rounded=0;orthogonalLoop=1;jettySize=auto;html=1;" edge="1" parent="1" source="GJSqTZBq8qRsz9hoO4Sf-36" target="GJSqTZBq8qRsz9hoO4Sf-38">
          <mxGeometry relative="1" as="geometry" />
        </mxCell>
        <mxCell id="GJSqTZBq8qRsz9hoO4Sf-36" value="&lt;font style=&quot;font-size: 13px;&quot;&gt;Dynamic Router&amp;nbsp;&lt;br&gt;(FHIR Subscription)&lt;/font&gt;" style="fillColor=#c0f5a9;dashed=0;outlineConnect=0;strokeWidth=2;html=1;align=center;fontSize=8;verticalLabelPosition=bottom;verticalAlign=top;shape=mxgraph.eip.message_dispatcher;" vertex="1" parent="1">
          <mxGeometry x="890" y="230" width="80" height="46" as="geometry" />
        </mxCell>
        <mxCell id="GJSqTZBq8qRsz9hoO4Sf-37" style="edgeStyle=orthogonalEdgeStyle;rounded=0;orthogonalLoop=1;jettySize=auto;html=1;entryX=0;entryY=0.5;entryDx=0;entryDy=0;entryPerimeter=0;" edge="1" parent="1" source="GJSqTZBq8qRsz9hoO4Sf-21" target="GJSqTZBq8qRsz9hoO4Sf-36">
          <mxGeometry relative="1" as="geometry">
            <Array as="points">
              <mxPoint x="820" y="212" />
              <mxPoint x="820" y="253" />
            </Array>
          </mxGeometry>
        </mxCell>
        <mxCell id="GJSqTZBq8qRsz9hoO4Sf-44" value="FHIR Subsciption" style="edgeLabel;html=1;align=center;verticalAlign=middle;resizable=0;points=[];" connectable="0" vertex="1" parent="GJSqTZBq8qRsz9hoO4Sf-37">
          <mxGeometry x="0.1438" y="2" relative="1" as="geometry">
            <mxPoint y="17" as="offset" />
          </mxGeometry>
        </mxCell>
        <mxCell id="GJSqTZBq8qRsz9hoO4Sf-38" value="" style="whiteSpace=wrap;html=1;aspect=fixed;strokeColor=none;" vertex="1" parent="1">
          <mxGeometry x="1027" y="218" width="70" height="70" as="geometry" />
        </mxCell>
        <mxCell id="GJSqTZBq8qRsz9hoO4Sf-39" value="" style="edgeStyle=orthogonalEdgeStyle;rounded=0;exitX=0;exitY=0.5;endArrow=none;dashed=0;html=1;strokeColor=#808080;strokeWidth=2;" edge="1" parent="1" source="GJSqTZBq8qRsz9hoO4Sf-41" target="GJSqTZBq8qRsz9hoO4Sf-40">
          <mxGeometry relative="1" as="geometry" />
        </mxCell>
        <mxCell id="GJSqTZBq8qRsz9hoO4Sf-40" value="" style="strokeWidth=2;dashed=0;align=center;fontSize=8;shape=ellipse;fillColor=#808080;strokeColor=none;" vertex="1" parent="1">
          <mxGeometry x="1047" y="237" width="12" height="12" as="geometry" />
        </mxCell>
        <mxCell id="GJSqTZBq8qRsz9hoO4Sf-41" value="E" style="strokeWidth=2;dashed=0;align=center;fontSize=8;shape=rect;fillColor=#83BEFF;fontStyle=1;whiteSpace=wrap;html=1;" vertex="1" parent="1">
          <mxGeometry x="1063" y="255" width="12" height="12" as="geometry" />
        </mxCell>
        <mxCell id="GJSqTZBq8qRsz9hoO4Sf-46" value="&lt;div&gt;EPR&lt;/div&gt;" style="shape=cylinder3;whiteSpace=wrap;html=1;boundedLbl=1;backgroundOutline=1;size=15;" vertex="1" parent="1">
          <mxGeometry x="1120" y="181" width="60" height="80" as="geometry" />
        </mxCell>
        <mxCell id="GJSqTZBq8qRsz9hoO4Sf-45" value="&lt;div&gt;other&lt;/div&gt;MDM" style="shape=cylinder3;whiteSpace=wrap;html=1;boundedLbl=1;backgroundOutline=1;size=15;" vertex="1" parent="1">
          <mxGeometry x="1140" y="129" width="60" height="80" as="geometry" />
        </mxCell>
        <mxCell id="GJSqTZBq8qRsz9hoO4Sf-47" value="" style="html=1;verticalLabelPosition=bottom;align=center;labelBackgroundColor=#ffffff;verticalAlign=top;strokeWidth=2;strokeColor=#0080F0;shadow=0;dashed=0;shape=mxgraph.ios7.icons.settings;" vertex="1" parent="1">
          <mxGeometry x="281" y="168" width="80" height="87" as="geometry" />
        </mxCell>
        <mxCell id="GJSqTZBq8qRsz9hoO4Sf-49" style="edgeStyle=orthogonalEdgeStyle;rounded=0;orthogonalLoop=1;jettySize=auto;html=1;entryX=0;entryY=0.5;entryDx=0;entryDy=0;entryPerimeter=0;" edge="1" parent="1" source="GJSqTZBq8qRsz9hoO4Sf-47" target="GJSqTZBq8qRsz9hoO4Sf-6">
          <mxGeometry relative="1" as="geometry" />
        </mxCell>
        <mxCell id="GJSqTZBq8qRsz9hoO4Sf-50" value="SQL or&amp;nbsp;&lt;div&gt;FHIR REST&lt;/div&gt;" style="edgeLabel;html=1;align=center;verticalAlign=middle;resizable=0;points=[];" connectable="0" vertex="1" parent="GJSqTZBq8qRsz9hoO4Sf-49">
          <mxGeometry x="-0.16" y="-4" relative="1" as="geometry">
            <mxPoint x="2" y="-29" as="offset" />
          </mxGeometry>
        </mxCell>
        <mxCell id="GJSqTZBq8qRsz9hoO4Sf-51" value="&lt;font style=&quot;font-size: 20px;&quot;&gt;&lt;b&gt;Enterprise Integration&lt;/b&gt;&lt;/font&gt;&lt;div&gt;&lt;font style=&quot;font-size: 20px;&quot;&gt;&lt;b&gt;(&lt;/b&gt;&lt;/font&gt;&lt;b style=&quot;background-color: transparent; color: light-dark(rgb(0, 0, 0), rgb(255, 255, 255)); font-size: 20px;&quot;&gt;REST Query&lt;/b&gt;&lt;b style=&quot;font-size: 20px; background-color: transparent; color: light-dark(rgb(0, 0, 0), rgb(255, 255, 255));&quot;&gt;)&lt;/b&gt;&lt;/div&gt;" style="text;html=1;align=center;verticalAlign=middle;whiteSpace=wrap;rounded=0;" vertex="1" parent="1">
          <mxGeometry x="396.25" y="570" width="277.5" height="30" as="geometry" />
        </mxCell>
        <mxCell id="GJSqTZBq8qRsz9hoO4Sf-52" value="Applications" style="shape=umlActor;verticalLabelPosition=bottom;verticalAlign=top;html=1;outlineConnect=0;" vertex="1" parent="1">
          <mxGeometry x="520" y="470" width="30" height="60" as="geometry" />
        </mxCell>
        <mxCell id="GJSqTZBq8qRsz9hoO4Sf-56" value="" style="shape=image;verticalLabelPosition=bottom;labelBackgroundColor=default;verticalAlign=top;aspect=fixed;imageAspect=0;image=data:image/png,iVBORw0KGgoAAAANSUhEUgAAAkoAAAC0CAYAAABrJAPZAAAKsmlDQ1BJQ0MgUHJvZmlsZQAASImVlwdUU+kSgP9700NCC4QOoYYiSCeAlBBaAAXpICohCRAIIQaCgthZXMG1oCKCFV0BUXBViiw2RLGwCBawL4ioqOtiQVRU3g0cwu6+8947b86ZzJe5888/85/7nzMXALIuRywWwsoAZIiyJeEBPrTYuHgabhhggDbAAxPgyOFmiZlhYSEAkWn7d/nYCyCZvWUty/Xvz/+rqPD4WVwAoDCEk3hZ3AyETyH6kSuWZAOAOor4jZdmi2XcjbCaBCkQ4acyTpniTzJOmmQ0aTImMpyFMA0APInDkaQAQJqF+Gk53BQkD0nWg62IJxAhnI+wZ0ZGJg/hVoTNkRgxwrL8jKS/5En5W84keU4OJ0XOU71MCt5XkCUWcnL/z+P435IhlE7vQUeUlCoJDEesKnJmT9Mzg+UsSpoXOs0C3mT8JKdKA6OmmZvFip/mLGEEe5p5HN9geR7hvJBpThb4y2ME2ezIaeZn+UVMsyQzXL5vsoTFnGaOZKYGaXqU3J/KZ8vz56VGxkxzjiB6nry29IjgmRiW3C+Rhst74YsCfGb29ZefQ0bWX3oXsOVrs1MjA+XnwJmpny9izuTMipXXxuP7+s3ERMnjxdk+8r3EwjB5PF8YIPdn5UTI12YjL+fM2jD5GaZxgsKmGbBAJhAiKgE0EIL88wUgm78sW9YIK1OcKxGkpGbTmMht49PYIq7NLJq9rb0TALK7O/VqvKdO3kmIem3Gt84QAI/ciYmJ1hlfMHKnTp4BgHh/xkcfAkDxGgBXdnKlkpwpH1r2gwFEoATUgBbQB8bAHFgDe+AM3IE38ANBIBREgjiwCHBBKshAKl8K8sEaUAiKwRawA5SDfeAgqAbHwAnQBFrBBXAZXAfd4A54APrBEHgFRsBHMA5BEA4iQxRICzKATCEryB5iQJ6QHxQChUNxUCKUAokgKZQPrYOKoRKoHDoA1UC/QKehC9BVqAe6Bw1Aw9A76AuMgkmwGqwHm8GzYQbMhIPhSHghnAIvgfPgAngTXAZXwkfhRvgCfB2+A/fDr+BRFEApoKgoQ5Q1ioFioUJR8ahklAS1ElWEKkVVoupQLagO1C1UP+o16jMai6agaWhrtDs6EB2F5qKXoFeiN6LL0dXoRnQ7+hZ6AD2C/o4hY3QxVhg3DBsTi0nBLMUUYkoxhzENmEuYO5ghzEcsFkvF0rEu2EBsHDYNuxy7EbsHW489j+3BDmJHcTicFs4K54ELxXFw2bhC3C7cUdw53E3cEO4TXgFvgLfH++Pj8SL8Wnwp/gj+LP4m/jl+nKBMMCW4EUIJPEIuYTPhEKGFcIMwRBgnqhDpRA9iJDGNuIZYRqwjXiI+JL5XUFAwUnBVmK8gUFitUKZwXOGKwoDCZ5IqyZLEIiWQpKRNpCrSedI90nsymWxG9ibHk7PJm8g15Ivkx+RPihRFG0W2Ik9xlWKFYqPiTcU3SgQlUyWm0iKlPKVSpZNKN5ReKxOUzZRZyhzllcoVyqeV+5RHVSgqdiqhKhkqG1WOqFxVeaGKUzVT9VPlqRaoHlS9qDpIQVGMKSwKl7KOcohyiTKkhlWjq7HV0tSK1Y6pdamNqKuqO6pHqy9Tr1A/o95PRVHNqGyqkLqZeoLaS/2ioafB1OBrbNCo07ipMaapo+mtydcs0qzXvKP5RYum5aeVrrVVq0nrkTZa21J7vvZS7b3al7Rf66jpuOtwdYp0Tujc14V1LXXDdZfrHtTt1B3V09cL0BPr7dK7qPdan6rvrZ+mv13/rP6wAcXA00BgsN3gnMFLmjqNSRPSymjttBFDXcNAQ6nhAcMuw3EjulGU0VqjeqNHxkRjhnGy8XbjNuMREwOTuSb5JrUm900JpgzTVNOdph2mY2Z0sxiz9WZNZi/omnQ2PY9eS39oTjb3Ml9iXml+2wJrwbBIt9hj0W0JWzpZplpWWN6wgq2crQRWe6x6ZmFmuc4Szaqc1WdNsmZa51jXWg/YUG1CbNbaNNm8mW0yO3721tkds7/bOtkKbQ/ZPrBTtQuyW2vXYvfO3tKea19hf9uB7ODvsMqh2eGto5Uj33Gv410nitNcp/VObU7fnF2cJc51zsMuJi6JLrtd+hhqjDDGRsYVV4yrj+sq11bXz27ObtluJ9z+dLd2T3c/4v5iDn0Of86hOYMeRh4cjwMe/Z40z0TP/Z79XoZeHK9Kryfext4878Pez5kWzDTmUeYbH1sfiU+DzxjLjbWCdd4X5RvgW+Tb5afqF+VX7vfY38g/xb/WfyTAKWB5wPlATGBw4NbAPrYem8uuYY8EuQStCGoPJgVHBJcHPwmxDJGEtMyF5wbN3Tb34TzTeaJ5TaEglB26LfRRGD1sSdiv87Hzw+ZXzH8WbheeH94RQYlYHHEk4mOkT+TmyAdR5lHSqLZopeiE6JrosRjfmJKY/tjZsStir8dpxwnimuNx8dHxh+NHF/gt2LFgKMEpoTChdyF94bKFVxdpLxIuOrNYaTFn8clETGJM4pHEr5xQTiVnNImdtDtphMvi7uS+4nnztvOG+R78Ev7zZI/kkuQXKR4p21KGU71SS1NfC1iCcsHbtMC0fWlj6aHpVekTwhhhfQY+IzHjtEhVlC5qz9TPXJbZI7YSF4r7l7gt2bFkRBIsOZwFZS3Mas5WQ4akTqm59AfpQI5nTkXOp6XRS08uU1kmWtaZa5m7Ifd5nn/ez8vRy7nL2/IN89fkD6xgrjiwElqZtLJtlfGqglVDqwNWV68hrklf89ta27Ulaz+si1nXUqBXsLpg8IeAH2oLFQslhX3r3dfv+xH9o+DHrg0OG3Zt+F7EK7pWbFtcWvx1I3fjtZ/sfir7aWJT8qauzc6b927BbhFt6d3qtbW6RKUkr2Rw29xtjdtp24u2f9ixeMfVUsfSfTuJO6U7+8tCypp3mezasutreWr5nQqfivrdurs37B7bw9tzc6/33rp9evuK933ZL9h/90DAgcZKs8rSg9iDOQefHYo+1PEz4+eaw9qHiw9/qxJV9VeHV7fXuNTUHNE9srkWrpXWDh9NONp9zPdYc5113YF6an3xcXBcevzlL4m/9J4IPtF2knGy7pTpqd0NlIaiRqgxt3GkKbWpvzmuued00Om2FveWhl9tfq1qNWytOKN+ZvNZ4tmCsxPn8s6Nnheff30h5cJg2+K2BxdjL95un9/edSn40pXL/pcvdjA7zl3xuNJ61e3q6WuMa03Xna83djp1Nvzm9FtDl3NX4w2XG83drt0tPXN6zt70unnhlu+ty7fZt6/fmXenpzeq925fQl//Xd7dF/eE997ez7k//mD1Q8zDokfKj0of6z6u/N3i9/p+5/4zA74DnU8injwY5A6+epr19OtQwTPys9LnBs9rXti/aB32H+5+ueDl0Cvxq/HXhX+o/LH7jfmbU396/9k5Ejsy9FbyduLdxvda76s+OH5oGw0bffwx4+P4WNEnrU/VnxmfO77EfHk+vvQr7mvZN4tvLd+Dvz+cyJiYEHMknMlRAIUonJwMwLsqAMhxAFCQGYK4YGq2nhRo6ntgksB/4qn5e1KcAahDjGwsYp0H4DiiZquR3IiVjUSR3gB2cJDr9Bw8ObPLBIt8vez3ldG9bQtXg3/I1Dz/l7r/aYEsqyP4p/0Xv84NjKAV3sMAAACKZVhJZk1NACoAAAAIAAQBGgAFAAAAAQAAAD4BGwAFAAAAAQAAAEYBKAADAAAAAQACAACHaQAEAAAAAQAAAE4AAAAAAAAAkAAAAAEAAACQAAAAAQADkoYABwAAABIAAAB4oAIABAAAAAEAAAJKoAMABAAAAAEAAAC0AAAAAEFTQ0lJAAAAU2NyZWVuc2hvdE4x8UcAAAAJcEhZcwAAFiUAABYlAUlSJPAAAAHWaVRYdFhNTDpjb20uYWRvYmUueG1wAAAAAAA8eDp4bXBtZXRhIHhtbG5zOng9ImFkb2JlOm5zOm1ldGEvIiB4OnhtcHRrPSJYTVAgQ29yZSA2LjAuMCI+CiAgIDxyZGY6UkRGIHhtbG5zOnJkZj0iaHR0cDovL3d3dy53My5vcmcvMTk5OS8wMi8yMi1yZGYtc3ludGF4LW5zIyI+CiAgICAgIDxyZGY6RGVzY3JpcHRpb24gcmRmOmFib3V0PSIiCiAgICAgICAgICAgIHhtbG5zOmV4aWY9Imh0dHA6Ly9ucy5hZG9iZS5jb20vZXhpZi8xLjAvIj4KICAgICAgICAgPGV4aWY6UGl4ZWxZRGltZW5zaW9uPjE4MDwvZXhpZjpQaXhlbFlEaW1lbnNpb24+CiAgICAgICAgIDxleGlmOlBpeGVsWERpbWVuc2lvbj41ODY8L2V4aWY6UGl4ZWxYRGltZW5zaW9uPgogICAgICAgICA8ZXhpZjpVc2VyQ29tbWVudD5TY3JlZW5zaG90PC9leGlmOlVzZXJDb21tZW50PgogICAgICA8L3JkZjpEZXNjcmlwdGlvbj4KICAgPC9yZGY6UkRGPgo8L3g6eG1wbWV0YT4KfD/lAAAAABxpRE9UAAAAAgAAAAAAAABaAAAAKAAAAFoAAABaAAAxWHUEVjMAADEkSURBVHgB7J0HQJRXtscPTUB6BwVBmgjYsGHvUWNLM8WYqImbmLbJ2/K2JNtL3svu280mW7PZ9B5jmiXGWGLvBcQCinRsNOlieed/xw8GmAEGPmEGzk1whq/c797/d5nvN+eee47ddS4kRRQQBUQBUUAUEAVEAVGgmQJ2AkrNNJENooAoIAqIAqKAKCAKKAUElGQgiAKigCggCogCooAoYEYBASUzwshmUUAUEAVEAVFAFBAF7HJys8VHScaBKCAKiAKigCggCogCJhQQUDIhimwSBUQBUUAUEAVEAVEACsjUm4wDUUAUEAVEAVFAFBAFzCggoGRGGNksCogCooAoIAqIAqKAgJKMAVFAFBAFRAFRQBQQBcwoIKBkRhjZLAqIAqKAKCAKiAKigICSjAFRQBQQBUQBUUAUEAXMKCCgZEYY2SwKiAKigCggCogCooCAkowBUUAUEAVEAVFAFBAFzCggoGRGGNksCogCooAoIAqIAqKAgJKMAVFAFBAFRAFRQBQQBcwoIKBkRhjZLAqIAqKAKCAKiAKigICSjAFRQBQQBUQBUUAUEAXMKCCgZEYY2SwKiAKigCggCogCooCAkowBUUAUEAVEAVFAFBAFzCggoGRGGNksCogCooAoIAqIAqKAgJKMAVFAFBAFRIF2KVCYf54y0rPowJ5U2rvzCJUWldGlsgoiezsi/l+KKHDTFbjOw40Hm3+AD/UJC6Jxk4bT0JEJ1Dc0mLy8PXS5vICSLjJKJaKAKCAK9BwFqqtqqLTkEp3OyKZjqRl0Ii2T0o9nUkV5FVVVVRsgyU5IqeeMiK7rqR2DEkaap5cH+fl7U/zgGBo4KIYGDIykwCA/Cgrx73DjBJQ6LKFUIAqIAqJAz1IAlqTUwyfo4J6jtHdXChVfLKWKikq6evUq/1wTa1LPGg5d3luAkoOjI/Xq5UReDEyh/UJo/OQR1D86jCbPSO5w+wSUOiyhVCAKiAKiQM9RoCD/HGWm59DWjXvpaEo6nU7PpprqWrp27Rpd5/+kiAJdo4Ad2bEV08nJkbx9PClxSAwF9wmgn/7myQ43R0CpwxJKBaKAKCAK9BwFtm7aw9Ntp2jtp5upIO88Xa6ro+vXGZKuCyT1nFFgrT21Y/c4wJITuXm4krOzE23Y826HGyug1GEJpQJRgKiqsoacXXqRg4O9yCEKdGsFXvj1Pykv+ywd3JdGZeynBAcRAyMJKHXrG28jnWO7EtnxYgJHRwey59f9Gas73HIBpQ5LKBX0ZAWuXbvOD4sK+vabwxSX0I/Co4LJ1dW5J0sife/mCsyf8rD6YlDMK9zqLrM1Sabbuvkdt+3uHc39usMdEFDqsIRSQU9WoK7uCju0ptNTS/9Mdy6aRIsemkFhEUE9WRLpezdXYOqI+6i29jJVVlTRlStXu3lvpXu2rAB8llJz1ne4CwJKHZZQKujJChiD0tRZSfTwk3MpJi6sJ0sife/mCiTH305XGZAAS3DgliIKWKMCgCQUASVrvDvSph6lgIBSj7rd0llWYOygO+kKW1JranilG0IBSBEFrFABASUrvCnSpJ6pgIBSz7zvPbnX44bcRRj3NRx00nJQMnzL78n6Sd87okDbFwwIKHVEZzlXFNBRAQElHcWUqmxCgfaAElYicZAbrEdSfRRcsolbbTWN1PAICwcMYSi0LeabKKBkXhvZIwp0qgICSp0qt1zMChSwFJQQMsPFxYVj2jjzTy+yd3BgXGr9QWcFXZUmWIkC13nEXLlSR9XVNVTLU751HLsLK45bKl0GSpcvX6HS4nK1NLSlBrZ1n6e3O+dn6a3iHbR2zqXSSiou4pgdOhQvvq6Pnz7J8nRojqqi6EIZlV+q0qU6vwAv8vDsrUtdbank/NkSOltQzMkwK9VS+YvnSzmNwXXCPSvjbTeCrLSlKrPH2Nnbc94eL3LmpffIt4mCPnp6u5EjR2JFYLGQvn681Y4Cg33IxZU/kLUD1dE35x8BpZujq9RqvQpYAkqwIPV2c6U+oUEU3DeAgoL9OXyGC3cOlgHr7aO0zHoUUD7Z/A9iduVk5dO5wiIqulCipn9bCk3RJaBUkHeRdm1No5NpOSrxoR4y+vpxmPGhkZzpF6HGfU1WCXg4uDedDuw+SXgA61F8fD0oYUh/Shody9fFw7XrSnbmWTq0L0PpWlbKWbd1KACFkWMH0pDh0eTO0Un1LFgODKg7nc4DluGo6OIlBUnnCkvUuCgD0PL+q0z75WVVCv70iNiLQe8f6MXfTJ1UmHr0CX3z8GJQ4sBizrwd/cZxAEVXBiUAcW83Z/L196TI2L6c/ydATylUXQJKuksqFVq5ApaAkr2dPaeT8KKEoTEUFx9JUTHh/Dfrrr48CSdZ+Y22kubhezE+188WXKAjB49x8uUsys7Mp2q2LCEivLnSJaD0yXtb6I2/r6WTx3J1i53h1MuRH+hxtOTR2TRjzkiT/d219Si9+vKXtH1TqiJIkwdZuBEP1sSh/WnpY7fS/IXjLTxb38P/89fV9OGbGynr9FlddYWeDz0xh5JGxXa4wXVsSSxmS2J+zgWOyHueMjMK6Mj+DNXmwvwigqXRGosfA5IHWyxhaZp8SxLNvWMshYTqC8YCStZ456VNN1OBtoMS0knYKyvSuCnDaUTyIEoYFEvevp43s3lSdzdVIPtMPu3YcoANC2mUdiSDKiur6Np183G8ugSUnnvmFVr3+R4qKSrX9TbgW/4Dj8yk73x3vsl6X/rfj+nDNzYRHsh6Flgn5i8cR889v1TPai2ua8ltv6U9O47T5do6i89t6YT+0SG0ZMVsevCRWS0d1uI+ZAEvZosRrEdHDpyiPdvS1GtJsT6WrxYvrvPO+MERtOzxOSoopJ5VCyjpqabUZQsKWAJKDgClkACacksyjZ4wlIYkxZOfv7ctdFPaaGUKZJ7Koc1f76Z9O1Mo5eAJqqioFFDS7lF3B6X5E39MRw9nat3V7TU0PEBB0vKn5rWrzmrOBl6YV0TfrNlHn320jU4czWlXPdZyUmCwN91+30T60a8W69okASVd5ZTKbEABi0EpOIAmTB9JyeOH0rCRieQf4GMDvZQmWpsCpzOyaeNXO2n/rhR+ZqYzKIlFqf4eCSjVS2HRm46AEqxbO789Sn994RNKPZSp25SnRR3Q+WABJZ0Flep6rAKWglIgO3BPmGYApaRRACXT/qg9VlDpeJsUUKC0bgft251KaQJKjTUTUGqsR1t/ay8owULyx1++T1+s3KGc5zH91h2KgFJ3uIvSB2tQQEDJGu5Cz2uDgFIP9lGypqm3UvY9+teLnxMc94vZF83yqLvW+8croGS990ZaZlsKCCjZ1v3qLq0VUBJQ0n0sW2pRgrP8e69toI/f3qwsSa0F89K9wTe5QgGlmyywVN9jFBBQ6jG32qo6KqAkoKT7gLQElM6fK6X1X+yhV178gvJzL+jeFmuoUEDJGu6CtKE7KCCg1B3uou31QUBJQEn3UdtWUKplx23EqoLj9sE96bq3w1oqFFCyljsh7bB1BQSUbP0O2mb7BZQElHQfuW0FpTOnCnjK7Rt6+99fcSwn6wwcqYc4Akp6qCh1iAJEAkoyCrpCAQElASXdx11bQAkr3Nau2kX/+NNnHBY+V/c2WFOFAkrWdDekLbasgICSLd892227gJKAku6jty2glMcpSf790pf09itf6X59a6tQQMna7oi0x1YVEFCy1Ttn2+0WUBJQ0n0EtwWUPv1gKyHX3LGULN2vb20VBoX40B2LJtEPf7FI16Z1RmRuhGm4csUQzwr5ETk/pJQOKlB3+aoKpGpvb0/OzqypvYjaVkkFlNqqlBynpwICSgJKeo4nVVdbQOmPv36fXvvbGqqpvqz79a2twv5RIbTo4Rn08JNzdW1aZ4BSYV4pnUw7q9qdPCGKXHo76dqHnljZnu2nae/2TM5D5kkz5w8iL5/ePVGGdvVZQKldsslJHVRAQElAqYNDqPnprYHSmVOF9OLvP6LVn+yk69evN6+gG23pxRaDabNH0NM/WUixA8N07VlngNK6VUdo5Tv7qV9/P1ry2DiKiA7QtQ89sbK3/7mDNqw+SoOGhdG9D4+msAi/nihDu/osoNQu2eSkDiogoCSg1MEh1Pz01kBp0/oDKm7S3h3Hm5+s0xZMEbn2duaM4dEU3NeX+oQFkI+fBzk5Oep0hbZV48vXjI4Lo4ioYJ5m0dca0xmg9Nn7B+j9/+ymyJgAWv7MJIoaENS2jps46uL5ckrZn8vxskpoUFIYDR3Zz8RRtr0J1rf9O8+Qs4sjW4sSycPLtVmH3vrndlr/eSolDg2lRd8ZQ+GR/s2OkQ2mFRBQMq2LbL25CggoCSjpPsJaA6V3Xl3PTtzrKeNEnu7XRoVu7q5sxUmiSdOH8UMoiNw8XNU2Fxcngl9IZ5ZeDEcANgcH/a9ra6B06sQ5Di56lHIyL9It8wbRtDnxnXkrOuVaq1ceptUfH1YWuAfZAhca3jwJ68m0QoIWvn5uNGRkOPV269UpbesOFxFQ6g530fb6IKAkoKT7qG0NlDDt9tFbm+hsQbHu1/b2dafJM4bR0sdm81RXP/5m78QOyN3TWdYaQAmO3pXlNVRdVVd/L+0d7Mjbx42cejk0cv4+nlJAAImsUxdpyuyBNH5qbP05vv5uhGlK41J3+QoVXais3+Tl7UrOroBd8/cTjtJlpVV0pc7ggO7AbXF1cyZ3D+f6eozfXOX2V5TXcvsNvnI4vre7M4N14+OrKi9TZUUt4XgUgK+3b2/VR+P6PnhtN3363gGKjA2kOxePqAclaAFfJEdHe6q4VEOlxVXkxP2Fn1LTgrbgWlofsL8Xn+8b4N700Ea/o++XyqoJr1rxZIsW/Mpa0kw71hZeBZRs4S51vzYKKAko6T6qWwOl555+hT77aBtVVdbqem17fnglDI6gn/z2AUqekKBr3dZYWVeDUm5WMaXzVFNhXglVVxuBEoMMQCluUAhP1QWSC8MNigZKaUfy2dLnVw8R2Dc8OYJiE4IZaFwUJORlF1PG8XNcdyl2q4KHPuqLHhjE9Td2gAawwVJz+sR5Kr5QQXVXDLAAoHHt3YsAWf5BHjRqfKSqCxCSdiSP0IfSoipuvwGUYN3BtCB+wNdFXNfpk+cp50wRXSqtpqu8ChAF9QJ80KbBw0PJL9BDQZAGSoCoAQkhPPXmoo7HisG5dw0l/0B3OrQnm46nFlBIqLdqjzGUZRw/yzoVNuoDKsDquD79fFSdfcK8G1koKxhUc88U0+n083TxXDmvqDMCJU9X8uS+h/X3pX6sOdpry0VAyZbvnu22XUBJQEn30dsaKD215M+05tNdul/XnafYpt86gn7/8grCNFt3L10JSuVsFcEU0/aN6cqKAYuNCwMJLC7lbNWABWbY6HBa+OAo9YB2cnKoB6WDu7OUpc/YgjTrtkE0YfoAtuT0omNHCujbr09w6IgCFZoAkHCVwQd1Rg8Mpimz4mjYqHD2OXNTtxhR3QEJX3x4iI4eylNWHgABQKeW91XzeYCH6Lgg+uWfblfnFF+spDf/sZ0O781Wv8PyiALAmblgEE1li1fFpVrasv447dicQecKLymrDqxN6CMgH5YfTKt+h323Bg8PU0CmgRIsR9BDm3J14N9//Ns5FB7lr64LH6UhI/rRA4+OY/85b0Ii6PycEvr8w4MKpBCWwY01dXR0UFHrAXKoc/SEaLrrgZEK/BBWAG1IPZin2gn/qOtcjxf3AQV6VbFlypG1HzUukmbMS1AaqJ02+o+Ako3eOBtvtoCSgJLuQ7glUMJ0ytMP/4W++nyP7tcNiwike5ZMo8e/b3gY6n4BK6uwK0HpEAPGu6/sVBaX/uzoHcNWHl9/dwUm8EHCwxsWmHuWjaaJM+J4n1s9KAGAcA6sSloZyQ9yOIxnZlygNQxgRw7kKAtQFE9hwSJSW1NHZ3hfQW6pssTMWziUkidGqxhE5wrK6O1/7aCDu7MpMNhTWbIiov3VPrQhM/2CAqLgPl70l7cWq0vCSvTay1uVr1BsfLCyUmEHrDtwMo9mp/V9OzLpHe5jGdeBVX8xbPEKZKsUwCyfLV2ALFijHv/hVBo+tr86VwMl9Dd+SF/VdtQLR/5b2Lkb23FdgBKuozlzX+a/iw9e20NbvjquQG9AYggvAPBXQGmwGBXx9XKUResnv59LAxL7KIdx+DoBEA/uyaKAIE/eHkL9ue8oF9h5PvVArtIsblAfZdEaMkLflZfqQp34j4BSJ4otl6pXQEBJQKl+MOj1piVQKswvomd56m3L14f0ulx9PXGJ4bT8yTkc3HFy/bbu/KYrQQkAsXXDSerL00EL7k1qtIINPj/v/nunsjYBFu5lWAIYaVNvmO7CNBTAwbhgWgv+PWtWHmHLjivNun2wijOkHQNrEVbgAXJgHblj0Qj2J+qloOwPP1+rrDfLnpxIyZOiyMPTMOWFc2EReul3X5M5ULp76WjlT6RdR3t9+fkNDF9Zqu23LxqupuO0fZiSe4n3Y+rxse9PaQZKmHZc+vgEda52jvZqCpRqeOryl9//VE2hTboljm69Y3CjqUn4df3xl+sIKwdhUZoxL1FZldatSqF1n6WQPZvPprMm0NW4vPH3bar/EVEBAkqjEsk/oLlzvbFe8l4UMKWAgJKAkqlx0aFtLYFS2pEz9LufvkW7t6V16BqmThZQmksxHIpAz2IuPMDfXthIB3gZfPzQvuoBHMeWDK1gymc1w86alYd4WsmHlj4xgX1rglsFpQvsX/PRm3tp24YTNHJcFD35o+nsvN3Ywfuf/7eZdn97SvkzwaoUxpaeHTz9B3CDn9Cv/nw7+TVxem4PKCG+15P3v8VgUqGsYlNmDayf6kM/9QYlaLbinjeU5WzJY+Np3NSYRoEo4bOFvp9iv6053G8AkQ9Psb364haOyZRGSTzNCetU05hMAkr+NGHaSEoeP5SSBJS0P1F5tVABASUBJQuHTOuHCyi1rpEeR3SlRelmgBJ8dFa+vY8tRLkEq8riR8Y1WjUHzbB/M09PYYptLgMDLFprPjlCG9ek8fRfMD3zs5kKIIz1tRSU4C9UcrGCnnvqEyouqlR1Jk+M4rY0rLazNlCaPHMgPcqWraar2wSUBJSM/xbkffsUEFASUGrfyGnhLAGlFsTRcVf3A6ViWvnWfrY2nlZO3U1XtkG6S2U1KhxBLK8og1UFK8HWcMiBTeuOKSvTM8/OVA7ZxjJbCkpYQZfJ03uY6iorqaLv/WIWO1FHGVdpdRYlhFtY8f2pjdqIXwSUBJSaDQrZYLECAkoCShYPmtZOEFBqTSF99ndXUEIuNKyi8/I1rGozpVZUbABNnB5HPuwcrT8oXaX0Y2fpxd+sZ1CqFlAydQO6aJs4c3eR8D38sgJKAkq6/wkIKOkuqckKuysoHd6frZbbYzrJXHFnZ21Mv8G3R29QwvL/rNMX6YXn1lCpjViUMFX5yH9NVqEAjDUTi5JYlIzHg7xvnwICSgJK7Rs5LZwloNSCODru6q6gdGD3GRo7JYaWfxcP/pZTv2AV2MY1xwhO50F9vejnf1igwhQYy2zp1BtiESHC9Y8f+4gQb2n505No/LRYFSdJq9fafJQQXuGBR8dSEIdAMC4CSgJKxuNB3rdPAQElAaX2jZwWzhJQakEcHXfZKihls7UGQR3n3T2skRpI6/HxW3sN/kbxIXQ/r+JCjKOWCkIR7N+ZSf/44yYVEPIHv7qV4m7EGNLOsxSUtPN+/vQqjsF0ngNhxtKs2warYJHaPmsBpQ9e30Nfc0ymYIbE+axn8qRorYnqVUBJQKnRgJBf2qWAgJKAUrsGTksnCSi1pI5++2wNlE4cLVTTZEjfkcQpS/BgR9oZFKQuceP0Id+sTaPVHx3mwJV1HJspnCbNjFNpNxDhGtG1EbAUq9IQhBLBGxE/CHGVENOoiK1LYybHKOsPpuWwAgyBHA/syqKPOeyApXGUPnlnP339RaqyJE2cMYCnA/upuE3Xrl6n84VlBEjJ5dQmj/2gIeDkqnf3s3XroAIXhC+I4mjgWgng8AXI+WYqjlJ7wwPs3npaaXqWg24igOWU2fGsl4vSFbGZvuBI3ykcdDKKA2jC+V0CTkocJW08ymvbFRBQElBq+2hp45ECSm0UqoOHdQYoff7BQRXkEdGel3OqDjxwUWDBQeTqxKGhNIcfwIiTpBWk1VjDgRC/5Ie0cRwl5EsDeCBQJXKqJfC5hqTFRInDQlUk63Je1bZp7THatvGkSs/h4+fOVqUgdVz5pWrlXA1gGj4mgqawDxNiJiH6NmIJoW68D4/0V6vhMG0HZ+yC3BIGm0uNQAlRvl/9y7cKsu5eOoruuH+E1vz6V7QX8ZnSOYecnb29SsUSyqvsamuucELnMgVJALEn/nu6SteCqN6wXq3++BAV5pdRH87lhkCbWrntvuEcPduDXv8rInMfVdCiReYGKD1+35uqz+biKL3y5y0qwKVxHCVMPW748ihtXndc5dtD4txozocHXS+cLaecrItUXlpDCayvgJIEnNTGorxapoCAUheAkl+AJ825fQz996/ut+xu6Xz03TN/zvm0snSulTiicAA9+MgsWv7UvGZ1S8DJZpK0e0NngBIewqve208hfb3pwRXjKCLa8OB/99+7aC+vThuUFErT5yaqdBtaR2o43QhywCHKNqw49y1PVilBrjDgICHsp+xPBNAwLuOnDVCRugEiSFOy7ZuTCpYAEMbFjuzYWmJHk9nSNPuOIeR7I98b4OVLBhRAWCVPx13n/1ThlyucJw77jS1KuP7rnEokJ6tIRRaftWCw8WXq32P1G5zFkUcNUKQVRFSyZ3hCZPBlT03k6b4QlV8QSXyRHw79N04UjPN+xv5T/Vk/TC/CrwpwuXDJKBWBu7qqjn729ErC9CPSviAcgXECW7T3A45KjujkM7mtt8xPqA9IiX1bOUgn+t5Ur7patsKx7oM4F52AUteBUnV1DecOrKSii6V08UKJysmnjSVTr4jZ5e7hxmDtw+PAncNlsPWULaRaQS7A4qJSKim+xCl2yhmwa7RdXf6KYK0ODg4qUn6fsCAKDgkgB85ZqOU91BpYznqcLbjA/oAVVMP6wFJsqnB1KoYZ8kVCC9Tp4emu9DCObWbqXL22CSh1ASj1dnOhuIR+NGlG43QDet3Uttbz3msbONlnSVsPb/NxAkptlqpDB3YGKAE6YLXAhxggSYu5iGkuRK0ODPHkuEVu9du1DuF4WGKQSsSfrSha0ll8iMJqhHxwxiU41IcQNwlWIHww4rhKTuiafeqC8WHUy9VJrXYDRBg/OHAQrllVcZkK80pUhGtsAySkcN65tRyU0hiUcI3s04a60T5M/ZkqaAecu2EhQhBKrSDJLXLbwaKF99oHNurF9GAJ54C7cLYxDGIazpUT5cLqBU2RFLhvP1+lHa5x/uwldh6vUNHGm7YH6V2gGyJ094vwI6z6AzCi4JpKV05UnNtE1y0MT0f25ah7J6DUdaB08UIx5WYXUtqRDEo5dJKuXb2q7pk2noxf8WXAzs6eo6yH0NARcRQRGcpwEKwSJGvH1V2uo+NHT9GJtEzOj5jLef3wOc4DQfuCoB3Yya/aWOzFuQ2dnZ1p4tSRNGrsUHJx7cXjvSFROY6DHru3HeIVpnkMkCX8habhi4hxs3Gs+lLS24W/kIXSxGmcaDuiDzk5Oap8jsbH3qz3AkpdAEr4UHXq5djlGe4rK2pUkk29B1dXgVJQiA8lT4inwUmNHVr17l9b6nNxdWYrQzinFAnlh7BrW06x+JjOACU8gK+yTw4KstdrBX46V69dU98SmwKLdgwgBT5EeKBrIIF9gAIEdTQu+Lap6mn40qweJFfqGh8HUINfk7lrqvZy3fhwRQF8YCpvNVuFjEEJ+7Q2ODRpH/Y1LQAV9Lm+oB38Db/pt2Tsx7WvsTaNjuftgEDoAKDDfjwQAVlaUdfgfY7cPzsj64G2H+chdAHOMdV/U7r+6TdfqcS4E6cPUJHMMRVqy8VW4yhlZeZR6qETdHj/cTq87zhdUaDUeGxr9wXjwt7egQGpLw1PTuBp6QEUPyiGFys0gEZNdS19+80e2rvjMGVlFhisVGrQG41RrcJOfNX+7hzZguTo6Ejz7pxGM+aMv2EVM3wO4hj8nR5LyaDPPvqaMk5k8ZeASv6cYXg0AXo43p7BEf59sQP70+33zKSBiVHk6uZq8u/vZnRXQKkLQOlm3EhrqrOrQAnfMNzYMtC7t3OXy2GYlnGh2QuSaeHiKfyN0JDRXc+GdQYo6dnem1UXfKKOpRQoSw2uASdvBKysZOvSsSP57Et1Rllqho2KoO8+O+NmNaNL6i1j6xR8qS5ynjxHnprwYid39L2M/ZJOnzynpgHhp4Wkvli5B98wWy62CkppDAVbN+3lJMtH6fDeE1R3tY6uXTcDSgzTDnYOPE0bSiPGJnKeumE0ZmISf7Fu+FyrrKiiT95bRxvWbqf8nPNqCg7wbQo0uuJ+4wsBviQtWraAbr/3FgoI9OWpYg/VFMOXr2u0d+dheuWl9+nE0dN0uRaLNPjLhUZaRo0GOKKgbwmDY2jZioU0fDSSQrvzmG+cC9LoNF3fCigJKOk6oFBZV4GS7h3RocKk0bH08BNzafZtyTrU1rgKASWDHliq/x777yDsAD6EXXh6Dv4M8ImCz08FT+FhumrhgyOVr05jFW37N6wk/Hb9CUo/flZZmZx5Og/Wajx40HcEzISjPKbdEjiBsSlLlC0pYKughGmy7Vv20b6dqQxLaVR3pWVQsmdQiooNo9GczBcJfUePG8bT1w2QW1lZTZ99uJ42rttB2WcKOaVOiQIvjH9rKAAl/Cx+6Da6475Z5B/ow2DTGJT2706h//z9QzqeeoqnzGtuWNmat19h0g3wShgSQ0sfNYAS/JUElIzu9nPPvELrPt/D8/7lRls7/ja0XwA9IKDUcSGb1CCg1CBIv/5B9OCjs+ihx+c0bNTpnYCSQUj4Ue3lFXhZ7M90nld6YQpLKy68+gtBGAckBqsVeoCo7lSwmg9JhE9xiAT4dCEkgFZgPfJnHyqAEvyj4C9m68VWQelE2mnaufUAj9MjbElJ4Wnf1kEpOjacxk5KolHjhtKoMUMagVIVg9LnKzfQpq92UuapPPZRKuYvCeb9njr3vhtsQAClBx6+g+5cNJt9+QBK7qoZmkXpwN5UeuNfKwnWtvLSCrPTkahNWah48UTikFhlUUoamUgeXm4CSsY3VkDJWA3rfy+g1HCPWoPxhiMtfyegZNAMH7yXeXUXrCeYgjIGJTiR+wcanK4tV9g2zgAolhRXqhVvxqAEx3H0HYCEabnuUASUDHcRoPTZxwClHXTmVD5dYGdxawSlxQCl+2bfsCgJKLXnb9COP+Ca29lM1CSgZEIUK94koNRwcwSUGrSQd6JARxUQUDIoqCxKDEob2aJ0hleNXeRVb9fabFFq02PXzK0y+AuZ2XljMyxAvKSff3tg+R089XYrWza9xaLUsmhm9woomZXGtncIKDXcv54ASnWXr/JUwlW1fBkrU6S0rABWp2FFIFaxwdJjvJqw5TMNe+G8jtV2ONfWfY7a0l/jYwSUDGoAlFav2kSb1u9S4QHOn2urRemGuzfbKCxx/Namvwz4Y3xHTL03gBL2PMigdOeiW3mBhRevfHNTB8vUmynNzG8TUDKvjU3vEVBquH3dHZSwxB4xkeAbFBjsQZGxgQ2d78R3gI4ijuuElUSIsQTfJFNL7NEkgAZyxAE2sEIM8Yw6s1RcquWVSsXKpwg52tq6ZB/2dwS9PLw3m7+du6p4S4gG3pOKgJLhbiM8wPbN+2nfrhS2KOWzRQmgZH7VG6w7sCNhuv5y7WUqKyvnqdrqG1sNdZr+106FJXDmGEgenh6cZqgh1Il5uxTCG+DHnubfNZ1umTNBhQdA/EAUASXTSpvbKqBkThkb3y6g1HADbR2UYP3AA5rDmCiHyoaeGd7l55TQqnf20fZNGSqa9Pd+MavpIZ3yezkHW/yvh96lirJaWvGDKTRyXCRHM24OEfBfQlwl5HFDOpG7l45W0cU7pZE3LoLo5IjrhOCR4zm+0QOPjK2/vIq9hGkLnrvA9IVxgeXuJAfx/NOvv1IO6suemNBq0mDj87vDewElw128yhbcgrzz/HOOCvLPs3/eJRAI7zSDLzcGU2kJB4pl61PK4RMcfylPQYu5czQrko+fl1reH89L8/tH9Wu4hrpe41Glrs7/OHHMJ2fnXhzvKJqj8keolZiIrYQioNRYs9Z+E1BqTSEb3S+g1HDjbBmU8GDOOM4fxBzpOiLKn6J55VTTYi2gdKmsmh6/9001pfUQpxQZMylaJc5t2l6A0pqVRxSoePv2pkXLx6hksk2Pu5m/mwIlPHNqOI3Jjs3pHAvMmdObhKh4UMbtEFAiElAyjAjABqxKVZU1VFp6ia2kbB3SKMV40GjvGZQwxmB5ys0qpG84rMDhA8d4WwtWKMA62VNfThkS3r8PTZg6ioYMj+ca1YVMXk9rAkAJP74MWd7enmrGDvCPIqCkZGjzPwJKbZbKtg4UUGq4X7YMSsc5iOOGL9M41UARjZ4YRXctHtnQsRvvrAmUHrvnTeUrtezJCTR2coxZUFrNoLRm5SHyAig9PIaGjQpv1q+bucEUKCHm0xaOh7T20xQFSHcuHkEDB/Vp1AwBJQEl4wFhiP5+TY15vG+tAFDOny1SKUM+fnctbf92vwGUQFAmCtKoICJ2f04bEsMRsWfPm8SZD4aZOLL5JmUR5ek3ROfWLEnaUQJKmhJtexVQaptONneUgFLDLbNlUDrEvjCYIsrNKqYJ02LpgUfHNXTsxjsBpWaStLrBFCgBgqA1fvx4Sf9ino4bnBTWqC4BJQGlRgPCwl8AKEhCe/pkNn3w1mratnlvi0EqNVCKjA6jAfGRNJfTkYyfPMLCqzY/XECpuSYtbRFQakkdG94noNRw87oDKJ06cU5lvR8+JqK+YwFBnpQwpC9n/q6u91EKDfelkeP7U1kxnESJnaQdKCDYU1lG+vbzURGz6yvgN/jARAyg1EN5/C33ImdXr1G+OT6cgiSSE/BGDghUTsvG55h7j3boYVECjBTml9KJ1EIGxCKO7n1NJbL1DXDjh0Uw9Y8J5NVmDfnZtPYAJtOPnWUn7RKqrrysNjtx/wO5/5hKC2Ntwvr7sd+GI7UGSogqnpQcTiGh3qoeT3bcjh0YzLFoPOp9lJxdHJUlDE62iJ2EfHoeXi4UHumvpu18/JonKobWSHeC6dTCvFKt6XyPPFTS3KjYAE4z0VvlqCspqqST6A/7URXze8y2YEUj2oKfIE6G3I/7g+tgOrP4YiVHWC6gYo6SjvfQESWex8iE6bHqPY5DgMzjrC0WANTWXCFnDgDqy3VE8b0ekMCJX1uJ9yRTb0rKdv2Dv7f8nLOUfuIMrXx3He1gixIWP2C7qaKBEixKsQMj2DF7Bo2f0tyqbOrclrYJKLWkTvN9AkrNNekWWwSUGm5jdwClY4fz1QMNK8S0grxpc+8awmb/a/WghAcpAjwCeFDwwAf09I8J4FxV0ZQwrK9akYZ92sN145o0zqieXw8YMNl7ertQKKccGTw8jCbPjKs/B+eZK3qAUhUDTganAtn69UkO4neBzuaXqXaiT14+rhSJfrDv0wh2FDde0p96MI/2bDvNOasK6QIn4dWCPuKhj7xzCPyI9CFII+LHkbJbA6UaXpWHnIUATRQA6Mz5iRxhO6welGpr6siVM7LXcqoSpCvBKqPe7LzeN8yb4gb3oZkLBpGPr1t9+ADAy5H9ObRveyZlZ3JuuPMNWQ4AO8ncr2m3xnPGel/KZZjatjGd8+QVMNiUcd44A/gCEN25XXCSj2WomTQjjgbytbCC8OsvU2n/zjOcPaFK5dzDVCJWFc7gdsPpHO3MyrhAm9Yd4+XsrG1emVrBhxWHAK/wSD8aNT6Sxk+NbRGWBJTM/QW0vh2AkpdTyOluGJQ4T9zObw+0HZTiImger2CDn1JHi4CSZQoKKFmml80cLaDUcKti48No6YrZdO/S6Q0bdXp3syNza1Nv6WlnCcvYY9iqoZXY+CAaNjpCQZG26g0QEM8Pzl4MFii1bOlADjJYGWBZmLtwKA0ZgVUzxNnCa2j9F6lqqsmBH/JwFPfmBzZW2Z1li05udgl5M5zMuXMoTZ+boM5p6R9jULpn2WhOJtrfZMoOrCrbwHD2zeo0hrgGHyWEF0CuuFXv7qf9u86wxcRLWUzc3HupiNewFCGnXAxble5eMprbG6i+iSPh7Ot/20YpDCF44Icx4OEVBTADC04OgwnA4rEfTFWhAFoDJZwbMzCIIcsQydiPrVlD2Y8K+eq0VW942MQONDh8IwwCVkEBhjLTz6uwCAvuHa7AB2lMAKV7tmXS2lVHKI+tZCGhPqpvDo4NljHoDzCFpWrrhpP0+Qf8EGVN4FQOSFTeuPwvLEKwBgX19VbgN3pCpEo4/Jffb6AMHieBbGmC4z+gzcHRTlkdR0+IonMFl2jl27w6cuNJZWVEX2ABg0b5OaV0joEMQLj40bHNfLOgh1YElDQlLH8VULJcM+0MSYorud60saDba1eBEr7BInFkZ8fFMSecC7dlwrQhdN+y6TR0RIy5w9q9vbNAqa0+Skmjw+mJH09XVgd0qpynw776LIWdlE+qmEEApfn3DFOWBkDJ8z9drY5JZmvTHLZORUQFqId6yoFcWv95ipqiwfTOL/7vNp6269VsubyxcMaghClCTEGZyuuGh/+JowVqai2wj2e9MzesIru2ZNDb/9qhrGIL7kWOrUhlAUJ6kF3fnlIAcYmtK+PZX+v+5WN5Nuo6HWCoev2v23jVUR3NmJdAU2fH10+ZAVzgc7SGfywBpbb4KMEKtPSx8RTPliqMe1iVTjMkrf74MCddzSJ/Dn3w3AsL1NQf2rzy7b20+avjCkbm3DlEhXIw9XdyjB340d6jh/MU9C5+ZJyCuxsLlliH02o/4AwWsqagNGHGALqNtdOmDXGPELfqyP5c+vsL3zBcEs3n/WN4cQBy8MH6CGvcpnXHOQ5WubLWASjNFQElc8q0vl1AqXWNzB0hoNQFoIQPNjd3F57f52WTXVgK84v4A7YhiaZeTekqUPL2cWc/kjD2twjRqysdqicg0JunJ4bS8OS4DtVj7mRrAyVYDprGUcJD+uXnNxDgZwpDBFZzYSoKVpt//mGjgpLn/ne+mp7T/FMwdbVzcwa99vJW5d/zvV/M5lgsgWyhaLCANNXEGJQw5WfPf2Paw73psZguhAUmjKd7tFVvSKi7hi0uuxkEYtlq9Cy3yTjqNfyWvvzoEG1cc4wT7IbQD355K7m6OdF7r+6ib3m1Wh/2wbqXLVlIQKuVmwlKgIymcZRgnTnK06QvPLdGNeG3L92ldD2dfo4+fe8AT6Xl09gpMfTQkxPNfpnYyDGmPnv/gIIvwOuMuYlad9Rra6A0bU6CAqgghlCtQLt1q1KUFS+Up/ae/Z95yhdK249pwA1fHuXrHlSA9T//uNsk5OJ4ASVNNctfBZQs10w7Q0CpC0DJ28eNneIG05IVt2r3oUtef/TEP9hfoED3a3cVKMUlhtPyJ+fQHYsm694na6zQFkAJur3ws7XK8jKRgyvefv9wBTGIZQT/pCiewlrx/an8paF3I4nxwH/nXzvZ2buG7npwlJpGMmUB0U4yBqV+DECYttLASzsGr3hYnCsoo3PsfxTSz7selGBBWcVBKGE9mzxzoLKKIMimcVn7SQp9/NZe5di+/JlJavrqT79ZT8f43NETNKuYf/0pnQ1KuDCm+n74nQ9UG7770xk8PRrOkJqnrECYOpw6J95kmAet0Z8yJGEqFRY5xKNqGmm9PaB0hn2SPnxjjwK1ibfEKW0xJWhcdmw+Ra++uEUl8X3iR9PVVK3xfu29gJKmhOWvAkqWa6adIaDUBaDkH+jFKwjG0bPPL9HuQ5e8Lpj0E/4Gmqn7tQWUdJfUZIW2Dkob2AHYlR+Y/fihDCuQcalgQMLKLAdOgzCHp3gwzQP/GXPFGJSWPj5eOSdrvkLG51xla9Iatm6s++QweTGcaRalA7uy6IPXd1NBbqmatkLU7qYFjtpw8O7PK/K6Kyh9/OZe5UsEHym9QAl+VW/8fbty5vbn1ZL+Qe7KYmWsL1bZ5TGk+nNoBAElDvNo50DRseE0dhKmgIfSqDFDlFuBsWaWvhdQslSxhuMFlLoKlBaOo+eeX9pwJ7rg3fyJPxZQ6gLd9bqkrYPS1+zMjVVuppbbw5cFUAOQAiRZAkrtCTi5f5cBlPLYIoMcVVhu37TAERyO0QJKh5XDuCkfJVNTbwCl1/+2nc6wDxXcDkxqy75juN8CSob0NQJKDX99WioV/F0mDomlZSsWUtLIRF4M4MafHea/PDXU0PF3AkoCSh0fRU1qEItSE0Fu0q+2DkrfrD6qYgstfHAkf+g1JNs0lsuBgcXXz12FGTD2GTI+Bu+NLUodAaVSdsAew3484yZH44nV9DLqdyTcxSpAtKe7Tb3dLIsSQAkxmRAxfeyUaOWbZkpcWBbhCN50ak47VqbeNCUsfxWLkuWaaWcIKAkoaWNBt1cBJd2kbLEiWwUl+A6t/yxVLVcPCfOhnz4/T1kSWuxsKzs7CkqI5YTQANmnLqpEtUseG6esXS1dFivNNFBKSuaAfHcnsU9PQP0ptuij9MWHh+gT1iGEQRB58BAywLi0y0eJHeU/4im9NA4sOol9lO59KNlkwmLj65h7L6BkTpnWtwsota6RuSO6EpT+HwAA//8hrQ27AAA5zUlEQVTtnQdcVVe2/xe9Sa/SFcSGCth7j8aWppnEmMQ0UybJZDI9k/+bN5n3Zt6UJJNMSZlkEtMmaqJJ7L1XREUERcSKgiC9C+h//Tae6wW5lFvwcrO2H+By7jn77PPbR873rrX2WnbXuVE72qsvvU9rv91PxYXl7di7/buERwbSw4um0VMvzmnxoLf/uIyWfLyFci8Wtvi+sRsDgrxpzrzR9OofFhrbhVmOmzPul3TsyGmz9KXfSXhUID2yaDo9+cJs/c3qdXrqGfrfVz6hfTvTb3nP1A194qPoyedn0r3zJ5jaVZc4vq6ung7tP0kvLHyTJk1Poieen0W9+kSYbeyHD5yjVV8doQtni2js5Dh6+OnRt/R98XwxLf8smXZtyaLhY2Po5d9Mv2WfP/2/NZSy9wyNm9Kb7nloMHXzdKW920/RR3/fQa5uzvTz382g2L7B5OzseMux7d1QVlpNz/5gMdXXN9Bjz4+lURN6kZeP2y2HNzRc42tKpdVfHSZvP3ea/8RIShwWRWezr9Da5Udpz7YsiukdRD/h68A47eztbulD21BX10BLPtpPW9ZmUFCIF81/ciQNHHxT/6IrlUq/1axhXP8Qevankyg0wpcO72/UNedcEY1hTR5eNIrqrjaofaG3f1A3WsDbBibd7AvnxD6Z6bn0xmvrKDjUmx774ViK6xeiDUf9PH+mkH721Jfq9YuvTKXE4VF06UIJLf/8IKWnXqQRY2PpIe7by9u1yXHaL1vWHqdv/pNC11inKbPj6e4HkrS31M+927NZuyNKl1lzE3jOe1LRlQp66/cbKSs9jybP7E/YHhzqpTsu72IprfvmKG1YeYwie/rTj165g4K6e5GDg71un/a+GD1oLuG+r6mqUWM0fJwdOdjZ87wE8L07lEaMSaCkYfEUEOhn+BALvnMiPZv27EihA7tT6cCeo3yf1tG169daPKOdnR3Z2zlQbFwUjRqfRMNGJ9CwkYPIxdW5xf3buxGP25zzuXTy+Bn66ou1tGc7zzOPwdBj2I71s+evHjHhFNcnmmbPnUJjJw1r7+kM7ofz4f9hyoE0+vi9ryj9aBaVl1RQfUMDj+VWTeyI/0ETe3uKHxRHjz0zj5KGxpOntwc5Ohn/N8PgAFt4IzvrHG1eu5uS96VR+pGTVFFRxdo1tLBn4yaMFy3t/PrGDSZ8t2PBBJRMENDUQwWUTFXw9h5vaVA6mZFHK5cdobSU8zRoaKQCAUdHB3XRrm5O5MZfufwQ7CgoBTJUnDpxmd763w1UUlhJ46f1oaGje1IYQ4SzS+MfvnqGkMqKWvUHskevwDaFNhWUykqqaffWLAU+Ts72NGteIg1IjOA/xq78B7rxj151VR3VVF9lgHKhkDAf9aBOO5RDH/5tO5WX1tDEO/spcPD191AQUMzXtuG7Y7R9w4k2QQnXu2l1Bn39aTK5uDnSvQ8NoQEMSji3k5MDeXRzoWvXrhsFStf42bPii4O0aVU6BQZ70dQ58RSfEMaQ6qR0rSyvJXfuH2B56vhlBUJphy9QTwbGu36QRJHR/sTPKtX27cimrQyGbh4uCojaA0qYx0MMhx++tZ0fkA18XCIlDIskTSd0XFtTT5WVteqeCo8yDDMCSo3zYMx3PG4FlIxRjkhASSxKxt05rRwlFqVWxDHjW5YGJVhEVi47rKwBfgHd+NNtrA5kQsK8aeCQSKooq+kwKMGqUlpcrfretv44Xb1aT7F9Qiiqhz+5ezR+aq6tqaMS3sfN3ZmeeHFcm6qZCko4wZlTBbT04wOUwZYXABssTX4BjdCD98v5WvEVHRNAd7GlBR/zKsqq6eN3dtHRgxcU0AAuwsJ9+JOuA1Xxgz899RKdY2tVWxYlfMI+fjSX3n19M2tTpSApggHF0dGefNjy1XdgGAWzFcYYi5I7Qw0AB1YdWM78GOTiE8PJ06vRqgSgg0Vv4OBItuo5qH3XLE+looIKimZIBVRpn5BPHs+j0ycLlGWsvRYlaJefV0afvb+HUpPPkxNbDnH+oBBPpRner6y8SiVFVWobLHOGmoCSIWXa3i6g1LZGhvYQUBJQMnRvGL1dQMlo6Tp0oKVBCVaOXVtO0vpv09RD7GptA5ubr5MLQwQerA88Nly5y9auOEop+85SErt5FrI7qHl7/82tCiSGsWvuzrsHECxK19k6AuiA6+pU5mWqqrhK1dV11MCuM0AG3HBwe4WwC+fVP93VvMtbfq8or6H/9+LXhDFiXIkjopTrrPmOAJJt607QxlXHyNvXXQFPv4GhajfA2anMfLaopLK7qlhZOWpr69RY8XCHZcfRyZ76J4TToh9P0HV9/Ogl2rruOJ3JKlDXBPADWAA67Nm9pOk175FhbNHxZBC7RJvXpFNuTgkNY9fV3Q8MJmLoglXl/b9upeyT+QxgtUoLBwalSAbIKTPjadiYHnT21BV6742tynU195Gh1CO2qbUNbrY/vLJSjQ2A2Sc+VFmOYPE6yO7PnZsyKT+3jGpr6wnzC61xXSPGxdKkGX0J1pwr+RV0YFc2bV9/Ql1PddVV1Z8LW6Ac2P3hxNcFl9+4O/ooiCphsFv8z13KSgj3KixrAew+1G9wU+awC3f55ylKW/SJMcDFp823ulZ2zf30v+/UP7TJawGlJnJ06BcBpQ7J1WRnASUBpSY3hDl+EVAyh4pt92FpUMII8EBD3Ase7rAKAAK6s9sJVpU+A7ozDDhRFlsZCtn6EMUPuSje3rzBPQUowEO4FwMWHrT67cSxXEKs07nThfxgriZfPw9+0Hoqq054pA+fpxFk9I9p/hrxO4gvqqqsY0tQpAISPHibNzws4C48kZarXGixfYKV1UjbD+4tuKIyGH5yL5aor6v8QIfLyofBytffna1fwap/7Rj8LOcYKVhastilWHC5nHBuQJG7uwt1D/dSmvmydQquS1hOTjNUwQoWGe1HPeOCdF3hvWNHcigr4zKVsRaIk4Kuffp3p7AoX6rm69vD8V0+fm4KVry8m8ZhYezJe06r/hAzBouc1urrrlHepVKOschRP0vZ3Qhrla+vB4NvkAIyuPjQ6nieEVt0hC1lsLRBtwieP8SU4boieNywMjq7OCjgOaH0KlUAHc7jdHVtdOtp58ZP9FFTXc/aXlSwhHnA/QULl3+gJ3XzclHXFMLxV4aagJIhZdreLqDUtkaG9hBQElAydG8YvV1AyWjpOnRgZ4BShwYkO4sCFlZAQMl4gQWUjNdOQElAyfi7x8CRAkoGhDHzZgElMwsq3Vm9AgJKxk+RgJLx2gkoCSgZf/cYOFJAyYAwZt4soGRmQaU7q1dAQMn4KRJQMl47ASUBJePvHgNHtgZKOecL6NWX/kU7Nh0xcLTxmyWPknnzKBk/E3KkKGAZBQSUjNdVQMl47QSUBJSMv3sMHNkaKFVzHpqXn3yb1q88YOBo4zdH9Qyh+Y9PMZhA1PierfNIsShZ57zIqCyngICS8doKKBmvnYCSgJLxd4+BI1sDJRzywqNv0uoVew0cbfxmb99uNG32MHrtjSfV8nLje+oaRwoodY15klGaTwEBJeO1FFAyXjsBJQEl4+8eA0e2BUq/+OE79N2yXZw3ps5AD8ZtRkmEQUNi6b///Djnd+lpXCdd6KjOAqUanqdCzq2DZe9lJVVcfqFpmQEsQUdJjVBOtKhle+5CMlpkqEhXgHQKSBCJlAAjxsXoknVa5ITfk04FlIyfaAEl47UTUBJQMv7uMXBkW6D0xu++pKWfbuEHSYmBHozfjDp6s+4bRQufmcFlJvw5mR4nLjRcrsv4E1nBkZ0BSijbcZoTIO7fmU0oaaIlYtS/fOTiGTWxF027awAniDScA0f/mJZeI0dTA0MYwKJ5rqWW9rfmbcirhGzYH769nZxdHentxQ+rnEXWPOauMDYBJeNnSUDJeO0ElASUjL97DBzZFih99M4a+vyDDZx075KBHkzb7MXFEu95cCzNuHsUwxInyeNiksj0jAzAWikG087Q/qPx0EfhRq1eWPuPbHvPzgAlwBGKoCbvPsPJC53IgxMgIpOzuh49AB3AJSkASrAsGdOQJTqbEzYWFVboEloa04+1HIOs48m7T6uM1Ug++caH8wWUzDA5AkrGiyigZLx2AkoCSsbfPQaObAuU1q/cTx+8vZJSuPK9pRqsSB7d3Gj4mH6cRTiIsxuHUGCQD7s/bs0YbKkxoF//QG/OeBzM2aa7MVzcminalHNbGpRQZmTV10dU/TPUYEOm57GT41SdL/yOEiPmasjS/PHfd9ARrgU2875B9MizY8zV9W3pBxmnM9PzaBOXKkHm6QceG6GrY3dbBmQjJxVQMn4iBZSM105ASUDJ+LvHwJFtgdLJjAv01h+W0tpv9xvowXybASd2zCewJOGfVgXdfGdovSeUcriDA8xf/OU8LgFxs1RF60e1711LgxKK4n635BChllvv/iH04it3kD/X8LKEVQ6FYz99bzeh3IktgBJmEOVQ8AWcbKmcSvtmWfbSV0BASV+Njr0WUOqYXvp7CygJKOnfD2Z53RYooY7UX177D33y3jquE2XegG6zXIAZOwFUxPWNoEf4Pnvw8alm7JnrcdXV0yG2yr2w8E2aND2JnnjevHmULnNdsO+WHKZNq9NVtfdf/99sVeS1vRdxaN85dq/mc5HVcq4R16AOQy2xmLhArscWpYrSan2hqv1nN0Cp36AwLgDbGIwPwOge5k19B4Zx7FKjRa6Y66GdzMilk2yxwWsUnUW9tCSu8ebL1hsUotVaDRfaRVwV6rAVFVaqGmd4L7i7F02Y1od/eqs6dSg2i9puFVwrDUHYaIi9iuKCtAOSIprUg8N7iKfCMWey+DiuY1dZyUVsucBr/4QwGjw8mjy9XVUAPCxkIWr8ocpliWMLuH/UhNPGhG1wZeI6UUstiY8PCvHUwRX6LSqopNSD59U5q2uuEmq8od5aPBfoDeJr+b40ASXjZ1pAyXjtBJQElIy/ewwc2RYo4bAlizfTh39fzdXacwz0Yjubu3Oc1H0PTaCXX33ArBdlaVDKY3AAKG1ek8GwEE6v/umudo0fcLJ1/XHatu44lRZXqwKrbFhRzcHBThV6je0TRPMeHa6AADCpD0pYRefh2VicFfFQvbhS/ePPj1UFXgEXm9mdlZF6kSorahkWrynIcOdjACcz70ughKGRuuMRW7VmeSpd4RV7qGCPivVoPXoF0IJFoxk4XGkLXx8Cr2tr6nlFX4MO6pyc7BW4AEimzOyvgMmRt6FI7qnMfPqIXYXVlVdVnwhCxyWOn9qb7rxnIBd4daVUhqSliw9QDF/r48+PY1ewC+WcK6KNK4/xexeoit1zGBMarE4uHPQNC+j9jw6jwSOjVR+4xqMpF2j9t2kKvODSa2AxAY1YYYjixJNm9FPgqTqy8W8CSsZPsICS8doJKAkoGX/3GDiyPaCUcfQsffC3lfTNkp0GerGdzUEhPhxcPo5+8dsFZr0oawQlWD9yL5TQ679dy9abMuo3MJQie/qTGz/U0ZBi4HjaJQUbYyb3pvlPjlQPfX1Q6tU3mAYOjlD7w6IUFuFLg0f1oGJ2BX7z5SE6yEHSsBphv7BIX0Lg9Knjl+nc6UKORfOnR58bo+AKkAW34efv71EQAqtUZA8/1a8vV74fPCKaq9lfpRVfpNCOjZnUndMbjJoQq97Ht/KyWrbYnaUqhpUk3veOOfHsguxOVQxHRw6co7d/v4Fhxo2GjopW1jFYhWDZ6hPfnfBQAnx9/M9dFMduy5f/azp5MjxtYEgC9JQWV1FM72BlXdOd8MaLBLa2RbIlCyCUevACX3OKuj4vHzcFRJ5eLmz1quAYqEtqLENYm+l3DeRzBzbvyuZ+F1AyfkoFlIzXTkBJQMn4u8fAke0BpcrKGmVVeveNb9g1U2qgJ9vYbAugFMpAMoMtJYZaSJiPAheAEkDmn3/eolxXsNrAeuTM7jG0PHbn7dhwgkvYnFTurz+//4BKBaAPSrCQzH14qNofQflu7I5y5RV3W9Ycp5XLDjPc1Km8RCPHx3KwfDeClQWQ9NVnyZTPcHbXg0k06c5+FBjsyfsfUS49QNC8R4ZSnwGhql9YZGC1ys8t04ESXGzP/mySeh/fkBph77YsHmumAruZcxNoxr2DVP6vQ/vO0j//tJkiGGgWMpgFhXip4HbEpGGsgKuWQGnJx/uVpc2Pxw0rlQaEupPyC1ieoFcZpxjY8N0xterQL8CDZs1NVNCF1YelJdW0n0Fs345THAdFvOIwnmbPS9TvxiZfCygZP60CSsZrJ6AkoGT83WPgyPaAEg49cjCL/v2P1byyao+Bnmxjsy2AEh7cvvywNtRgnZmDBzWDzbpv0uib/6SweyuQA8CnqlVy2nGw/uzZyvP+tx0KCN5dslBBgT4oGQrmfvO1dcrC0p9jmGbOS1DWKq1fwBOCwXdtPqlg4n5268HipIESLE2LXp7I0BasHaJ+In5JsyjB3fXz381s8j7itP711+0cZH6BJjPY/IDdYo7ODqSBEqxFL/xqKgUEeTY5Tsuj1NyitIJ12bw6Q6VamDCtr7JgIa6qpYbUDKs4NcMxDnAfzFarRS9NbJJfCjFSAC+4+EZP6kWPPDOa3Y9uLXVlM9sElIyfSgEl47UTUBJQMv7uMXBke0EJbo+Nq5Ppz7/9gmM3Cgz01vU32wIowfoS3TOgxcmw47gjWGMmTe+rYm5WfZVKazitQFx8CD3308nKpaUdiED+g3vO0l//Z32HQekXTy9RsUzT7x5AE9lihGX3WkOszwG2ZH31STLHQLnQ4y+M4yztkSaDEvr/xx83sWXpFA0b25PuWzBUWcqMBSXkVgL8ZHOMU3iUH41kV18/5RL0V+5B7Xrwcy9bi1YtPaLcdOM48Hz6nAH6byutv/hgr4LDxOFRNP+JkcrN2WQnG/tFQMn4CRVQMl47ASUBJePvHgNHtheUcPj5M5dp2Wdb6NP3N7CrodJAj117sy2AEiwxT700vsWJQCJPxM9gJVZhQQWDgGFQQgdYvfX7X640GpSwYg4uNC3uCX1eY/9Tfl65CiJHYPXzv5yi8j6ZalFC35//aw9tZ3dhPCfVNBWUKnlV3abVx2gnW74KcsuVu65Xv2BOIRFP0bGBanUdSvGgYbXhyqWNrsb+fO7efUPUdv1ve9g1eOJYLgko6auC13bkwHlBgkICOPfXUBoxJoFXRcZTQGBjjFrzvS39+4n0bNqzI4VhPpWS9xyluvp6una9MZC/+bnteNz2/BUbF0WjxiXRsNEJNGzUIAZp5+a7duj3pqC0jvZsT1FjwPaWGsaAsfSICadefdhiPHcKjZ00rKVdO7QN54OLPuVAGn307jLKOJpF5aVcGqmhnmP7mpZHQscqsQv74LHQIX5QHC18ep6aSyQWRjLfzmgCSgJKZr/POgJKOPmZU5fojf9ZyoGuB/hTcuOqJLMP6jZ2aAug1N5Vb50BSojRQeJQxC+11LCK7kmGuiEje5jFooSVa1t5BV/fAd1NBiWMF3XgkDYAIHSK0wRUcWoBPAQQm4U4MMQ7IYhdA6UCBkCsiNPivFq6ZkDcvfMHUxhbqWy5dVWLUkbaKdq1LZlS9h7jBQLpbYASQ4GdA/WMjeCEuQP5K5FBL9EsoHTh7CU6efwMLf9yPYPbYQUmhkAJ/48ASxFRIdSzVyTd88A0Gj9luMm3lwZKyXtT6YN/fEnHj2VTDS+QaLjWoBZBtHQCLQde/4Fx9NgzczkFRzx/MOsmoKQv1qsvva+SExYXlutvNvl1eGQgPSygZLKOzTvoKCjBAnCaYeknT71NmZyMUlsy3bzfrvq7gJJPk6kz1aKE1WdY6YWyNC01F14thjxJCIo2h0VJgdLaDM7lFGoWUNLGjJVvB3adViv5itgSh+SUQ0f3oAceH6Hcchoo4f8HXHTIr2Sowd0YxDmhAFS23LoqKJ3IOE17dx6iw/szOKbsBNU11LE151brCeYOUODAoBQdwzm5RvanoSMH8pd5LEoXz+dxaotz9N1Xm2k/W7cwBkOgZA9Q4rGERgZTFI9lzn2wKDUusjDlHsP5YAFO2Q+L0lecE+2MWqCBbddVko1be1efifhb3/hYeviJeyhhSF+Ox2NQ4hJRndHEoiSgZPb7rKOghAEgdiXnfAG98/oKWs+WpfKyKrOP63Z1KKBkXlCaxavPAEv+zQKotfmFpQlL9fGJ2ByghHgqrDADrJjqetPGiJ8oEYMPBVfyK2j9d2kqvxIeTk/9eIICpiOca2kVr/JDLiVc7zROAWCoNV4zXCWG9rCN7V0VlC7lXFaWnLRDmZSacqJFN5PmAGu05DhwstNQzgnWj/r078lpJKJUgW9TZhGAUlJUxolV82nL+r08juOcN4xdgFg22ULDOPAvksfRo1eEcv/1G9CrhT07tgmePrjYTmWe5RjVXZSddZ5Kisu5IDZckZoKN/vEFlhcXVyclQ7TZ4+n2N5RqoanfnLZm0eY/5WAkoCS2e8qY0AJg0Cyv4K8ElqxZAd/yt5BZ0/nEYqldvXWVUGptKSKvvvysAo+7sNup5/85k4Vi9TafFjS9faX36yhtJQcQp6hmXMHURwnomyrmQpKyCr+3htb6SjnM5rMrrH7Fw7jlWeORq96a2m8iNeAe+0NXtV3kRNSTuLVddO5wHAJZx1H4DdikGBNWvTSBHJxs22LUUv66G/rqqBUVlJOBflFDAUXKItdX43Wk1sBBRChAIVdXiHdA/ge70HdQ4M4DYYvabFr+np09HVNdS2nlqhgSMpgK/559ff1Gru8mIdaaMAkotDwYAqP7M45ysIoJNQ8uboAbQWXCwkuyUs5+Zxhv1T9/bezawGUeBOu3dXNlULDgmjQ4H4UzLFncE9Dq85oAkoCSma/z4wFJW0geZcK6VjqGdq2/jDt2JzKK+Lytbe65M+uCkr17PKBRWMZryTDCrOpHHCcODxSxQcFcB4g/KFq3swBSoCEBU+PbrIUHudBssbVDA7IbzRiXIwClyjOTI2GBwwyZhcy2CCw3N3DhZNSdsyihCDxlxkGnV0azflY4r+WUx0g7xO0mMHFehFDhOzexq56Q34lWJFckG/pRhJO/I6l/khgCevSbE59gFQEKM2C5JSreQUhUghMnRVP46bEqRQAWkHi8tIaqubVo+gLwfS23roqKCH2spZLz1RWVLG1vLLRxXQrE+BO5i9YQ4ktJi6c0NSD59ZFWVPMAQWAcoyltLiMy/VUKcsO/u8YasAQV3dXcseXh5sai6F9O7q9pqaWF/BUUE1VLWfDrzPoAoQmuHYHBwd1fh9fL6WN9n+go+c1Zn8Bpe8xKC2Y9Rol72V/uZkDqE0FJdzISB1wji1K6QxMB/dlUsq+E2qFXFesDadqvT09neZ3sVpvmAdkoP6Wy5gg83UAJ3AMjfBRgNSN43/g3tIaVmwhDxHibIxZ9Yas2x/9YyenDjijztGLV3ih3AlyFsVwtusR42LZPF+l8jNhiT1W2kVxugL/G7md8LcesTyo1Ya0AEkjolQyyo5YlFDwd2BSJMc9NF5XTU0dx09c5k/gVSqL9/S7ByorFlxhxoKSWqXGmclRLgWZw9EaGq5TMdehS+eyLE58vSh3ksR5qZC8Mu1wDq98O0Qn0nIpkIO8kX0b27UP0jXcD9zWWBWHlXO23roqKNn6vNj69XUJUFr83lpa/O5azqGSZ9b5SBgSS48/N5Mz3o5usd81K/aq8x5OzlJmwRZ36uBGmBB794ugh57iIqkLp3TwaPPu/tffL6Vln25ln3Wh2TpGcN2o8fH02HMzuO6V6ZmC8SkMKQTSjpzm1XG5nH/mIp07k0d5F4tUOgF8QrLW1s3TjQud+tOYSQNp7oKJHIgYZdahAnAtWRQXg0XAcRonPNy7/RRdOFvEy3irVSZs/U+hCJpG/A5ih9w9nHkpfSZbf9IYKrrTg0+MUBmy9S8crqT3Xt+qarf99s17FBzUc822nZsz1XnOc5ZtZKXGOXx8uUTI6J6q1AmsJkjCeGDnaVUGJf9yGWG5/TUGDQAGLEmAj7FTevNXnFo9tn3jCfqWy55gJdnDi0bdsipMP+EkVpUhXxSsNHD5ouYckmwis/ioCb24NAmnJOAVd0humXH0ogI7XOOCp0Yqi4/+NWIlG9x1X360X8EVyqpAJ1jFdnPCTWQEr+GM4iiHgr8JXj6uylIEF9tEzkeFQrcA0TLOwJ1x9BIHfWfz/wPWpaSmURsGUlwvrE6oKzd2chy7IxP0h2CTrwWUbHJarf6iugQonc66RCs4ZiUzvdGnag5Vsbx4yMjeNHXmUP5k2nKsw+XcItq8NoX278pQeR7McV4PT1f+1Bqrzhsd0/J5zXGe9vRxPO0sr37YreDDXLFA3r4eCpAm3JHID7lu7RlGu/eBfx2r4k7yF6xNlxjwSorK+RN/JT9AKvmhU8PulzouNlrLD/Padvfb3h3xEO7m5a5baQH3iQebo+GCwsPOP8BbdeXr76ksHt4+3XjlSjANSIxhOI5qdXl3e8egv19ngBLOh4c5irlmsVUJlo+K8pomMZee/MCO4yzYAAm4rVBOBDAUzKuwBiSGkTsDgn6DewmWI8DNBE6kCO3QkLUbiRizMxvPg0VBgAHUisMqN80CgzIo2O/i+WIFErAkOfNqL5T5ADighlp4lK8CHcAFxoLVYENG9NAVy9XGow9KYXzMmElxHC9RSXW1DbyvKwOWp1rtFhLmrVtlh/MhdgkJLnGNKEOiudG0fvH/6TLD0OHkcxxr4q2sXLjec9lXODakgEoKq1SQdgVfM+4fuDYBZYN5jCjuq2+tg0sR1wxIhP5FbH1DIDjKoOC8Pr7uytKEBJa23gSUbH2GrfP6ugQoQboyTkhVdKVUuWTMISU+7fsFePEnYNdWu7vKZu2iK2Xqgdzqju18E0myAoL4jy6DmjU0JHnE9cHVZY4GTQEKTp2QCKykuIItS4V08UIBPzQL6EoBLAzV6nqKGaC0VlFR3e6gcKyicOXEbi0tPXflmmMhbCHC+2ieDE2BmEsGJlxvTFyY2h4d2123j9pgoW+dBUoWGr5VdKsPSi2VMLGKQcogdAoIKOmkkBedqECXAaVO1EROZWMKwCJZ0c50A84MQQi+9vP3snoVBJRMnyIBJdM17MweBJQ6U205l6aAgJKmhPwUBbqYAgJKpk/YpQucjuKLg7RjY6YKRm9eFNf0M0gP5lRAQMmcakpf7VVAQKm9Ssl+ooCVKSCgZPqEINZo+WcHCUHfw8b0pB/9eprpnUoPFlNAQMli0krHrSggoNSKOPKWKGDNCggomT47WDWJlALVvAINy+59/NxN71R6sJgCAkoWk1Y6bkUBAaVWxJG3RAFrVkBAyZpnR8ZmCQUElCyhqvTZlgICSm0pJO+LAlaqgICSlU6MDMtiCggoWUxa6bgVBQSUWhFH3hIFrFkBASVrnh0ZmyUUEFCyhKrSZ1sKCCi1pZC8LwpYqQICSlY6MTIsiykgoGQxaaXjVhQQUGpFHHlLFLBmBQSUrHl2ZGyWUEBAyRKqSp9tKSCg1JZC8r4oYKUKCChZ6cTIsCymgICSxaSVjltRQECpFXHkLVHAmhUQULLm2ZGxWUIBASVLqCp9tqWAgFJbCsn7ooCVKiCgZKUTI8OymAICShaTVjpuRQEBpVbEkbdEAWtWQEDJmmdHxmYJBQSULKGq9NmWAgJKbSkk74sCVqqAgJKVTowMy2IKCChZTFrpuBUFBJRaEUfeEgWsWQEBJWueHRmbJRQQULKEqtJnWwoIKLWlkLwvClipAgJKVjoxMiyLKSCgZDFppeNWFBBQakUceUsUsGYFBJSseXZkbJZQQEDJEqpKn20p0CVAqbyshhrqr6lrcXSyJxcXJ3JydlC/X79+ncpKqol/qCrg9fUNTa7ZwcGePLq5kJePGzk62jd572ptPdXW1FFDAx/cjoZzd/N0bbJndXUdlRZVUQ33o9/s7Oz4vM7k5e3OY7Un/F7L50OV8pqqulv2x7Fubk7k6e1GrvzT3t5Ovzv1GmOtrcGY69XxqHyuNezt6OSgrhPX29Lxal++1HrWsqy0iirLr1LDtZt92PMYcW5UUHd2cdS6Vj+rKmrp6tWm2jbZQe8Xewc7niNH1UcdH1NVeVX3rpu7Mznz3Nk1u75r165TJZ+j6Eolz2XjfDjx9eBaPDxdCK9bajgG54A2mIvmzd0Dc+CmxtP8nPr7VvG8lJdWK20xFq1BR4zBm+8fB0cet9604J7EeaELtuN9zDnmujOagFJnqCznsCYFBJSsaTa+P2PpEqC0c1MmlRZXqVnxC+hGPeOCKCTMm+rqGuji+WLKOHKRrvEDP+9S2S0A4uzkSEHdPSmyRwB1D/emwGBPBRTo7PTJfDqZcZnq6+rbNePeDBCDR/QgPHwBKTnniujC2SI6k3WFSksax6d1ZG9vz+fqRglDo/jc/vwQtaMsPlc2n7O4sJL3r9Z21f309fOg8ChfCov0peDu3gxNjVAGcKhhODqafI6K+NiykhoGHX6oM3hpTYOc8Cg/iuzpT2ERvgow9IEJgIRznz9dSOfPXKH8vHKlodYHoNLH15169gqk8B5+FBruox76gLu0QzmUn1uq7drqTzcPF4qODaDIaH/Ku1hCqQfP6/aPT4yg0AgfHYhBx4ryWrXfuexCpY8GgO4MVUEhXqyfH4XxdUEfQJjW8nPLKDM9V90bpaxJcVGl9pbuZ0BgN6UFjg8O9VLQo3vzxgvM45msAjWXgO56PQB1ZPgJCsH948/XFKggUgPugrwyyjp+meGuQunkwpA5bkpv3bU1P4+5fxdQMrei0p+1KyCgZO0zZJvj6xKg9KvnlimowRT0HRhKM+cm0NBRPdQDavE7u+jArtN0rRWrED7hu7k70fBxsTTzvkEMTD7KuvTVp8m0bPGBds9sFAPIoh9PpJg+QXSZoezff99BmWm5t8CZfocz7kugWXMHkQNbJr74YC9t35ip//Ytr2Epi+0TTBOn96Who3s2QhkDzrkzhfSHX61U1rNbDmq2AaA0895BlDQiWlmY8DZgqzC/gtavPEYbvkujWra+3DDcNDuaLVsMKINHRtNDi0YpcAJYffrebjp2OOeWfVvaEMhwM/3uATThjj50YPdpeu/1rbrdHn9+HI2cEKvGhfMXFlRQ8p7TtGVNhgI43Y56LzBfYxlAxk6OY+j10r2z9JMDtG3dcXVduo0GXsQnRdC0OfE0cHCEspphN1iOKtha+eHbOxTMAQhbajAQAYJmz0tU8wJYx7b9O7NpKd8/OQzLaADNd758lLwZNjujCSh1hspyDmtSQEDJmmbj+zOWLg1KBWwR+dsfN1JWep566GHalAVFc33wkxgPY82Vg/fvvHcg3XnPQGWxWf7ZQQIs6RwtvLO+2wWApbq60R9A6amXxlN0TKCCpL3bTil3EfpV+zZzJ2H7TAalGXxOuK7wUMXDVWtwBWluGozxup7LpwdbdXDs2ClxbPFqYMtXHr3x2jp2D9WowzEkdawaGy6y8cGv9Q2gePTZMQqWoEkNg9GRA+fozd+t13bhDlivxo4gUhOtnJ0daTrrdNcPEhXMfPb+HjrGljvVmu2LbY2645UdBbIFZtqcATR+au9WQQkuxN1bTtLH7+xkcNOzjt3Q8RqfR5scwMcoBqyHnx7N1rlGF+qHf9tB+7af0sFj8zmAnvpz329QmILsIQyBaHAJfrvkEK1bcVTpg22qD9aFXyhN9MfgyrD9o1em0YDB4coVKKAExaSJAp2ngIBS52ktZ7qpgM2BUii7rRCPhIYHMdwiiCHSWgC73n7488mEh+burVm0bf0JjjGpV4AEmLl4rlj3cEW8kF+gh7Kw4Hi4ouYuGEJe/ND+6VP/YVdUmc6ShX7x1bzdx/vH9QuhKwx1+qAEyxEsE74BHuoQuMSKCio53qYRGJxdHGjE+Fge65QWQQmxUhibO8fPXIP7ii0jly6U6E6PB/7U2f1p2l0D2J3nxxawUtrA1qRVy47o9kE8UnCoN7mxKxHnLSmsUlCEHezZOgIw/NlrMxQErf46lbJOXFbHtqQrrD7dvFwVxMC9OWJsDPWJ794qKB1NuUDffnnoFktVj7hABU6YOwAeGrgF7sj5T42k4WNiwGPUHJS8fd2oO7sc0QBI0BN9aPFtLq4Mf3cPpPlPjlT7lPB98Zsfr2AXJOaxMVbLj+cDc+LEoFjDFqY81g0xZVq7Z/4QmjSjr3IJCihpqshPUaBzFBBQ6hyd5SxNFbA5UHrs+bHKZYXLhCUmO7OAFrPFAg9FNLhHnv3ZJBo2pqeCI7hbYLhAUG7msVz611+3q/gj7Js4PJomz+ynYnbwO2JTAANw8z03f7HOkgHrDVxNI9i117xhfwQvA8D0QcmfY2cmz+xPE6b1UYcgLmf5Fyl0cPcZFVQMMADMwVWFeKzmFqX+ieE0eUY/BSMYf0V5DSGWC9YRxCKhxSeFs0UoSbmbEMsF2Nm8Ol29h293P5hEwxloYK0BWKQmn6evPz+oc2UhgPr1Dx9UcV0VN4KmcRyAbDO7yvZuy8Kvqi1gN92goZEqBggaA8Kgf2uut42rjtGX/97HkFer+kAw+jM/nUSxvYMUcB0/ekmdB/OCBi1HT+xFmGOAYHNQGja2Jy18bqzaF9dTVXGVPnl3l4pDw/xC0zGTe9ODT44gf4ZUBI4/v+ATHUhhTu56IEm5HdE/4pWS2XX4NVsetTbxzn7KfRsR7SeuN00U+SkKdJICHQWl4O6BNG7yUP5wlUBJQ+PJP7Dxg1QnDVdOYyMKZGedpy3rd1Py3jT+YJ9JFRVVdO264cVNeH6gpZ3X8+AYqYUdP8z4Ed92MxSj1JLr7cVXptLoSXGqU3Sfd7GUln2SrFw82pkeeWY0jeGYF6xk0hosF4jBgXtLs0AgpgnxRbAI6Tessnr2gY8Jq/HQQtmKcff8wcrVpL+f/mvEseiDEuJ4ZnGsFQBLa7D4rPsmjaGqMeYFFpmFPxxLeCg3B6XE4VHq+HgGJjSAVm5OCb3yw2XKkoZtkTH+dO9DQ2gkX0cOQImtSVvWZuAt1Z54cTyNHB+jVtphw6H95+jzf+3Rxdxg21ufLKAQtjrpNwSwr/rqiIoP0rY/85OJClABM1qDlcsQKOFGQh/fsesL7k64+uL6h9ALv5qq5gVuSQR5r/jioNIE0IWVeLF9g+m//nxXi6CEOKbnfzlFO70C2hX/SVFwiFgoNIDhDx4brgLmi3jbsw8u1u0fxoH0Dzw+goZxbBhaS+Mfz3FXs+YlqOBusSjppJMXokCnKNBRUAoJDaKJd4zg//cJNCixL1vxfTplnHIS21Lg9KkLtG3jPgalVI5nPcGgVGk7oISpwgNyJQPC2uWpupmD62Ucx8/4+je6vfCGKaAEi9IUtg4N4QDz5g2QgZia9oASxrmJrSyAO7SOgBL2R8wNAE5zV+HBf9+CocoK0xIoLfrxBBrG4OB5A24OcwzTFx/upfO8+kxrlgIlWHhwveu/TVOncueVcpPYQvaDhcOarBrD+998maLcaIiDAmC+tfihdoESOsbxADK4SdEAQfczKAE+m4NSBK9sA0RhoQBaJYPawT1n6J9/3qx+xzcBJZ0U8kIU6HQFOgJK9na88jjIj8MAEilhSF/q3S+GfHxuDY/o9IuQE3Y5BS6cz6X9u1Mp7fAJOp6WTVVV1QJKHbUoYZUYHrxYRt68zbo/kcIjG2OE9C1KiKMCWI2c0IsBp5bKiquVKyc7M1/lWsIyeKQWeJotNd04DqktixLO21FQmsErAPsOCNXFYJ3KvKxWn2lQgT4tBUpwea5cdpg2rmx0BSLmCqsZZ80bpKxLODfaVl7VhjgmWMvQkOPp3SULLQJKgLAJ0/gPKlu20Kqrr9JJXiiwculh9Tu+CSjppJAXokCnK9B+UMJCFXv+ENiNYuKieAFOGP8d7s6hATe9CJ0+eDlhl1XgSn4xx+ie5rQ6uXQpJ59qryJk52YOwuYX1qVcbxh8Z1iUmouk//tLr06jhGGRKu5HH5QQ/4Ng7O5hvlRZWaNiqBBHBbceGlaOwcJyLwcPt7TqrbnrDcd0FJQiOD+Rj6+HbhUZcjPlcvyR/jL57xMouTLwdud4MG15P4AZ+bGQHkFrAkqaEvJTFOh8BToCSrymmFxcnTke0Ze9B978t85bJSvu/FHLGbu6ApUck1RwuZCKi8s4hyEWCDXwgmzDkUMCSjzjzWOU4BJy5hVVTpzcsnn74c8nce6nMLpyuemqt+b7ab+jLwQVI4fSxDv7qlgYS4GSds7Wfn6fQKk1HbT3BJQ0JeSnKND5CnQElDA6/D11dHTiL0f1pdKhdP6w5YxdXAFUsKirq+OFUvUcD1yvFoC1dkkCSqxOc1By57IVPXoFqYzTzcWbwcvRgzhOKY9dR/oWJbjWXN2cVWkNWHI0dx/SBuBhPIMTRiJDN5qlQAmr8ew5fgqfvNAQEI5z6eeSut2ghNV1CPjW4rYs6XpDADksfVi1h4ZPDNfqr6v0EWoDfxNQ0pSQn6JA5yvQUVDCCNXfN148ov2d6/xRyxm7vgI37Ee8QKw1S5J2nQJKrERzUDJm1RticvolhHIW7hBelXWMLU5szruRywcr4bCs348tS2iWAqWenK8I50CZDrQSLgECNxNceFqzFCgh4BwxShu+O6ZOhXpqd3DOp3t59aBWZw4JI9d+c5RB6bAqvYIVl8g99Y8vHrFIjBLyScEd6ed/Q3c2ryK/VfaJfE0OASWdEvJCFOh8BYwBpc4fpZzx+66AgBLfAeYAJS09wJRZ/dWqrNW8Mgt5e9CQIBIZxLGSDs1SoHQ7V73BorZy6RH6hpfvoyGHUg+uD/fr/5ujEmBiG4rUIrWDtjIOAIVA61//cY5FQElWvUF1aaKA9SowasB97AJBYfBaXZJY6x2tjOz7qoCAEs98c1DCCjaUKblj9gBViLalm8NQegBkzkYQ91v/u55OceZr9A3XD/L9zHt0qMrRZIughIK/G1el05KP9qt8RfD+oYDx+Ol9aMjIxsLDqOG3b8cpQr4sNOiMuK0HHx/JoHRrZu7meZRwTGemB0A8xM9+N4P6c6JQF1cnnN6iTWq9WVRe6dwKFRjZ/x71wbG29iqHCBhedWSFQ5chfY8UEFDiya7jOJ5fPrtUrRCDuwxgg/IZeJBr8S3aPYGVa4AelFHRj1HSLEpwsyEmCEVhsQwdJTPQUBJk6ux4lQXaFkEJWmUdv0ywpO3lem2qMfzAJdnN04WDMO1VtvFKzgiuxW/BxYmEoqiDh9Y8M3dngxISlH7DqQvSuBSL1pBFHekiAE1aQxoIJP40dxNQMrei0p+1KzB91COctoPTqfDKI9z/umKQ1j5wGd/3UoFjFzaYfN0Wz8yNEVoiPQDgCJYQwI2WnduQGrM5jxICs5sXxdUHJRxbzHXW/vXXbYT6Z6i7hlpjCUMjVBFYrIKzRB6l2+l6AyghDcERLpuCPElnsgoMSai2a0k9UdBYi2G63aCEe2sb53lC9m9YAg21SVz2BPmwzN0ElMytqPRn7Qo8et/LVFpcQRdzLnNi3Zp2BdZa+zXJ+GxLgcbFA6hPakdHz60z+eLaDUr/9dJyysrIU5YXlOxACYnEYVF0Jb+c3n19K6XzJ3tYZRDn8vwvpnASx5s111DPax0HBONhrLVHnh1NY7nmFx7WWqutracTabn0p1dX6WqljZkcpyAnhmuP6TeURsnh2m0bvktjsMnhHEnlysqkv4/2et6jw1SsEaxCyz45QDs3n1QWEhSjRV0x1GvT2iauw4ZabSgRggYLCkqojOckiGdPFdAfX12ti2MaOroHW5sSOPVAqHa4CsJ+8ZFPVe00jDEqJkBZMkaMi1EJG9dy31q8D1bXQSvUZ4MFBA2QhtprSHqJhsK8f/ngQVWMVm248Q1149DXRi65goa+XuTSIwMGR+j6wnZYgw7tO0t//79N+FW1RS9PZAtbT2U5woaS4ipVOmb/jtOUkXpRHaNf2Qar3HrEBqp6dUiZgPxSWlv2aTJtW3tc3Qew5I27ozc985NJ2tvq585NJ2n558m6gsHQ4oEnRnC+JB9V6+1Hj36qIIflIhTjvf/R4ZTE5WHQEHAOa9Ff/nut+h3fEFMGWEMcWT0HeyP4fSsXVkZW84Ib2b91O/MLjAv1AlEuxtxNH5TmzBtDDz81jQsZNy23Y+5zSn+iwO1U4N/vLKXTXHdr1zauSXnlRhHwdq5Eup3jlnN/PxSw4ySnDvYO5MTxtFgktTd9uckX3m5QQn2yAs5DhFVQKAnSh7NJw8WB1VnJXEQ272KJKuqKUiF4EEZE++sGB6sFYn/Sj1zUbUsaEa0gwoUvRmuwEhXms4Vg/XEFXdgezQ9oBA/rlzrR9sfPs9lXFFQUM4whMWE1jwdLzGHx0MqCJDDQIUgZLe1QDv8nL1BBiKiJhlgWzY2E95Fr6eihC7pyG0gfEM2wM3BIBPdfrawXKP2BFs6ZwFHiJCDoJjjAJbiGC98iozR/1FLj7p/AGWn5oQ7LF1xdJ9MbC8wCKlFgNoizUUM3tMvs9jvKYwT4oQGApt01ULnC1IYb38pL0VeesnJhE/oaM6kXF8+92Re2YzzIqL1n683iuXBDorQKartpDUACLWE1g+UNK82wqNeD0y4EBHuq+Yzk1WhaIkjtuEy+FlwTarIhOBxABZjSbzlcNw8AqAXKR3KZkkFDuHgvu/dwb6zh0jaaNQiWO4A43J5ouCcK8sr4njih67JX3xDq1S+YvLwbIfsqW5Lyc0s5rf0ltXIRAejY5sKQCQB15lglgPZgvufM3TC+SzlX6MuPNnFpln6UOLQXw//NsjzmPp/0JwrcbgXSjmTSsdRMWvn1Jjp/9hL/za2les5r03CNLbr8N0+aKHC7FIAFydHBidP+uKiagu6cBX7Zmr+bPJx2g5LJZ+qEDvCABEDY8QPbjQEHlhBpximQz3CCBoufaycERRs3ypaPggUTMOvq5qQAEy5USze4Ijw83XRpHix9PulfFLhdCpRwZuSzp3O47tYRAjQdP5bN8UrlahUcLNH61ujbNUY57/dPATuOqYX3wN3dnYKDA9jj1Y/CIkLoiefuN1kMmwIlk9WQDkQBUUAUEAXaVCDvUgGlp52kA3uO0u7tKeyCK2aXfaXyOAgotSmf7GABBbD4yJFXbXt5eVJkdBhNnj6SevWJplHjBpt8NgElkyWUDkQBUUAUEAVEAVHAVhUQULLVmZXrEgVEAVFAFBAFRAGTFRBQMllC6UAUEAVEAVFAFBAFbFUBASVbnVm5LlFAFBAFRAFRQBQwWQEBJZMllA5EAVFAFBAFRAFRwFYVEFCy1ZmV6xIFRAFRQBQQBUQBkxUQUDJZQulAFBAFRAFRQBQQBWxVAQElW51ZuS5RQBQQBUQBUUAUMFkBASWTJZQORAFRQBQQBUQBUcBWFRBQstWZlesSBUQBUUAUEAVEAZMVEFAyWULpQBQQBUQBUUAUEAVsVQEBJVudWbkuUUAUEAVEAVFAFDBZAQElkyWUDkQBUUAUEAVEAVHAVhUQULLVmZXrEgVEAVFAFBAFRAGTFRBQMllC6UAUEAVEAVFAFBAFbFUBASVbnVm5LlFAFBAFRAFRQBQwWQEBJZMllA5EAVFAFBAFRAFRwFYVEFCy1ZmV6xIFRAFRQBQQBUQBkxWwmzXm99dN7kU6EAVEAVFAFBAFRAFRwAYVEFCywUmVSxIFRAFRQBQQBUQB8yjw/wE37+GQdrC/KAAAAABJRU5ErkJggg==;" vertex="1" parent="1">
          <mxGeometry x="379.12" y="620" width="311.75" height="95.76" as="geometry" />
        </mxCell>
        <mxCell id="GJSqTZBq8qRsz9hoO4Sf-57" value="" style="shape=image;verticalLabelPosition=bottom;labelBackgroundColor=default;verticalAlign=top;aspect=fixed;imageAspect=0;image=data:image/png,iVBORw0KGgoAAAANSUhEUgAAAwAAAACACAYAAAC82Q7LAAAKsmlDQ1BJQ0MgUHJvZmlsZQAASImVlwdUU+kSgP9700NCC4QOoYYiSCeAlBBaAAXpICohCRAIIQaCgthZXMG1oCKCFV0BUXBViiw2RLGwCBawL4ioqOtiQVRU3g0cwu6+8947b86ZzJe5888/85/7nzMXALIuRywWwsoAZIiyJeEBPrTYuHgabhhggDbAAxPgyOFmiZlhYSEAkWn7d/nYCyCZvWUty/Xvz/+rqPD4WVwAoDCEk3hZ3AyETyH6kSuWZAOAOor4jZdmi2XcjbCaBCkQ4acyTpniTzJOmmQ0aTImMpyFMA0APInDkaQAQJqF+Gk53BQkD0nWg62IJxAhnI+wZ0ZGJg/hVoTNkRgxwrL8jKS/5En5W84keU4OJ0XOU71MCt5XkCUWcnL/z+P435IhlE7vQUeUlCoJDEesKnJmT9Mzg+UsSpoXOs0C3mT8JKdKA6OmmZvFip/mLGEEe5p5HN9geR7hvJBpThb4y2ME2ezIaeZn+UVMsyQzXL5vsoTFnGaOZKYGaXqU3J/KZ8vz56VGxkxzjiB6nry29IjgmRiW3C+Rhst74YsCfGb29ZefQ0bWX3oXsOVrs1MjA+XnwJmpny9izuTMipXXxuP7+s3ERMnjxdk+8r3EwjB5PF8YIPdn5UTI12YjL+fM2jD5GaZxgsKmGbBAJhAiKgE0EIL88wUgm78sW9YIK1OcKxGkpGbTmMht49PYIq7NLJq9rb0TALK7O/VqvKdO3kmIem3Gt84QAI/ciYmJ1hlfMHKnTp4BgHh/xkcfAkDxGgBXdnKlkpwpH1r2gwFEoATUgBbQB8bAHFgDe+AM3IE38ANBIBREgjiwCHBBKshAKl8K8sEaUAiKwRawA5SDfeAgqAbHwAnQBFrBBXAZXAfd4A54APrBEHgFRsBHMA5BEA4iQxRICzKATCEryB5iQJ6QHxQChUNxUCKUAokgKZQPrYOKoRKoHDoA1UC/QKehC9BVqAe6Bw1Aw9A76AuMgkmwGqwHm8GzYQbMhIPhSHghnAIvgfPgAngTXAZXwkfhRvgCfB2+A/fDr+BRFEApoKgoQ5Q1ioFioUJR8ahklAS1ElWEKkVVoupQLagO1C1UP+o16jMai6agaWhrtDs6EB2F5qKXoFeiN6LL0dXoRnQ7+hZ6AD2C/o4hY3QxVhg3DBsTi0nBLMUUYkoxhzENmEuYO5ghzEcsFkvF0rEu2EBsHDYNuxy7EbsHW489j+3BDmJHcTicFs4K54ELxXFw2bhC3C7cUdw53E3cEO4TXgFvgLfH++Pj8SL8Wnwp/gj+LP4m/jl+nKBMMCW4EUIJPEIuYTPhEKGFcIMwRBgnqhDpRA9iJDGNuIZYRqwjXiI+JL5XUFAwUnBVmK8gUFitUKZwXOGKwoDCZ5IqyZLEIiWQpKRNpCrSedI90nsymWxG9ibHk7PJm8g15Ivkx+RPihRFG0W2Ik9xlWKFYqPiTcU3SgQlUyWm0iKlPKVSpZNKN5ReKxOUzZRZyhzllcoVyqeV+5RHVSgqdiqhKhkqG1WOqFxVeaGKUzVT9VPlqRaoHlS9qDpIQVGMKSwKl7KOcohyiTKkhlWjq7HV0tSK1Y6pdamNqKuqO6pHqy9Tr1A/o95PRVHNqGyqkLqZeoLaS/2ioafB1OBrbNCo07ipMaapo+mtydcs0qzXvKP5RYum5aeVrrVVq0nrkTZa21J7vvZS7b3al7Rf66jpuOtwdYp0Tujc14V1LXXDdZfrHtTt1B3V09cL0BPr7dK7qPdan6rvrZ+mv13/rP6wAcXA00BgsN3gnMFLmjqNSRPSymjttBFDXcNAQ6nhAcMuw3EjulGU0VqjeqNHxkRjhnGy8XbjNuMREwOTuSb5JrUm900JpgzTVNOdph2mY2Z0sxiz9WZNZi/omnQ2PY9eS39oTjb3Ml9iXml+2wJrwbBIt9hj0W0JWzpZplpWWN6wgq2crQRWe6x6ZmFmuc4Szaqc1WdNsmZa51jXWg/YUG1CbNbaNNm8mW0yO3721tkds7/bOtkKbQ/ZPrBTtQuyW2vXYvfO3tKea19hf9uB7ODvsMqh2eGto5Uj33Gv410nitNcp/VObU7fnF2cJc51zsMuJi6JLrtd+hhqjDDGRsYVV4yrj+sq11bXz27ObtluJ9z+dLd2T3c/4v5iDn0Of86hOYMeRh4cjwMe/Z40z0TP/Z79XoZeHK9Kryfext4878Pez5kWzDTmUeYbH1sfiU+DzxjLjbWCdd4X5RvgW+Tb5afqF+VX7vfY38g/xb/WfyTAKWB5wPlATGBw4NbAPrYem8uuYY8EuQStCGoPJgVHBJcHPwmxDJGEtMyF5wbN3Tb34TzTeaJ5TaEglB26LfRRGD1sSdiv87Hzw+ZXzH8WbheeH94RQYlYHHEk4mOkT+TmyAdR5lHSqLZopeiE6JrosRjfmJKY/tjZsStir8dpxwnimuNx8dHxh+NHF/gt2LFgKMEpoTChdyF94bKFVxdpLxIuOrNYaTFn8clETGJM4pHEr5xQTiVnNImdtDtphMvi7uS+4nnztvOG+R78Ev7zZI/kkuQXKR4p21KGU71SS1NfC1iCcsHbtMC0fWlj6aHpVekTwhhhfQY+IzHjtEhVlC5qz9TPXJbZI7YSF4r7l7gt2bFkRBIsOZwFZS3Mas5WQ4akTqm59AfpQI5nTkXOp6XRS08uU1kmWtaZa5m7Ifd5nn/ez8vRy7nL2/IN89fkD6xgrjiwElqZtLJtlfGqglVDqwNWV68hrklf89ta27Ulaz+si1nXUqBXsLpg8IeAH2oLFQslhX3r3dfv+xH9o+DHrg0OG3Zt+F7EK7pWbFtcWvx1I3fjtZ/sfir7aWJT8qauzc6b927BbhFt6d3qtbW6RKUkr2Rw29xtjdtp24u2f9ixeMfVUsfSfTuJO6U7+8tCypp3mezasutreWr5nQqfivrdurs37B7bw9tzc6/33rp9evuK933ZL9h/90DAgcZKs8rSg9iDOQefHYo+1PEz4+eaw9qHiw9/qxJV9VeHV7fXuNTUHNE9srkWrpXWDh9NONp9zPdYc5113YF6an3xcXBcevzlL4m/9J4IPtF2knGy7pTpqd0NlIaiRqgxt3GkKbWpvzmuued00Om2FveWhl9tfq1qNWytOKN+ZvNZ4tmCsxPn8s6Nnheff30h5cJg2+K2BxdjL95un9/edSn40pXL/pcvdjA7zl3xuNJ61e3q6WuMa03Xna83djp1Nvzm9FtDl3NX4w2XG83drt0tPXN6zt70unnhlu+ty7fZt6/fmXenpzeq925fQl//Xd7dF/eE997ez7k//mD1Q8zDokfKj0of6z6u/N3i9/p+5/4zA74DnU8injwY5A6+epr19OtQwTPys9LnBs9rXti/aB32H+5+ueDl0Cvxq/HXhX+o/LH7jfmbU396/9k5Ejsy9FbyduLdxvda76s+OH5oGw0bffwx4+P4WNEnrU/VnxmfO77EfHk+vvQr7mvZN4tvLd+Dvz+cyJiYEHMknMlRAIUonJwMwLsqAMhxAFCQGYK4YGq2nhRo6ntgksB/4qn5e1KcAahDjGwsYp0H4DiiZquR3IiVjUSR3gB2cJDr9Bw8ObPLBIt8vez3ldG9bQtXg3/I1Dz/l7r/aYEsqyP4p/0Xv84NjKAV3sMAAACKZVhJZk1NACoAAAAIAAQBGgAFAAAAAQAAAD4BGwAFAAAAAQAAAEYBKAADAAAAAQACAACHaQAEAAAAAQAAAE4AAAAAAAAAkAAAAAEAAACQAAAAAQADkoYABwAAABIAAAB4oAIABAAAAAEAAAMAoAMABAAAAAEAAACAAAAAAEFTQ0lJAAAAU2NyZWVuc2hvdLIakSwAAAAJcEhZcwAAFiUAABYlAUlSJPAAAAHWaVRYdFhNTDpjb20uYWRvYmUueG1wAAAAAAA8eDp4bXBtZXRhIHhtbG5zOng9ImFkb2JlOm5zOm1ldGEvIiB4OnhtcHRrPSJYTVAgQ29yZSA2LjAuMCI+CiAgIDxyZGY6UkRGIHhtbG5zOnJkZj0iaHR0cDovL3d3dy53My5vcmcvMTk5OS8wMi8yMi1yZGYtc3ludGF4LW5zIyI+CiAgICAgIDxyZGY6RGVzY3JpcHRpb24gcmRmOmFib3V0PSIiCiAgICAgICAgICAgIHhtbG5zOmV4aWY9Imh0dHA6Ly9ucy5hZG9iZS5jb20vZXhpZi8xLjAvIj4KICAgICAgICAgPGV4aWY6UGl4ZWxZRGltZW5zaW9uPjEyODwvZXhpZjpQaXhlbFlEaW1lbnNpb24+CiAgICAgICAgIDxleGlmOlBpeGVsWERpbWVuc2lvbj43Njg8L2V4aWY6UGl4ZWxYRGltZW5zaW9uPgogICAgICAgICA8ZXhpZjpVc2VyQ29tbWVudD5TY3JlZW5zaG90PC9leGlmOlVzZXJDb21tZW50PgogICAgICA8L3JkZjpEZXNjcmlwdGlvbj4KICAgPC9yZGY6UkRGPgo8L3g6eG1wbWV0YT4KE43hdgAAABxpRE9UAAAAAgAAAAAAAABAAAAAKAAAAEAAAABAAAAxcph8ng0AADE+SURBVHgB7F0J3E3FG361aiVkX5O0SCSRJbIv/ZE1IYmyL1kqZIssoex7yJo1ZJc9oUUpKpWsiaR9leo/z6m5nTtn5ix3+b6r+87v933nnjmzPmfOzDwz7/tOmr+EI3aMACPACDACjAAjwAgwAowAI5AUCKRhApAU75kryQgwAowAI8AIMAKMACPACFgIMAHghsAIMAKMACPACDACjAAjwAgkEQJMAJLoZXNVGQFGgBFgBBgBRoARYAQYASYA3AYYAUaAEWAEGAFGgBFgBBiBJEKACUASvWyuKiPACDACjAAjwAgwAowAI8AEgNsAI8AIMAKMACPACDACjAAjkEQIMAFIopfNVWUEGAFGgBFgBBgBRoARYASYAHAbYAQYAUaAEWAEGAFGgBFgBJIIASYASfSyuaqMACPACDACjAAjwAgwAowAEwBuA4wAI8AIMAKMACPACDACjEASIcAEIIleNleVEWAEGAFGgBFgBBgBRoARYALAbYARYAQYAUaAEWAEGAFGgBFIIgSYACTRy+aqMgKMACPACDACjAAjwAgwAkwAuA0wAowAI8AIMAKMACPACDACSYQAE4AketlcVUaAEWAEGAFGgBFgBBgBRoAJALcBRoARYAQYAUaAEWAEGAFGIIkQYAKQRC+bq8oIMAKMACPACDACjAAjwAgwAeA2wAgwAowAI8AIMAKMACPACCQRAkwAkuhlc1UZAUaAEWAEGAFGgBFgBBgBJgDcBhgBRoARYAQYAUaAEWAEGIEkQoAJQBK9bK4qI8AIMAKMACPACDACjAAjwASA2wAjwAgwAowAI8AIMAKMACOQRAgwAUiil81VZQQYAUaAEWAEGAFGgBFgBJgAcBtgBBgBRoARYAQYAUaAEWAEkggBJgBJ9LK5qowAI8AIMAKMACPACDACjAATAG4DjAAjwAgwAowAI8AIMAKMQBIhwAQgiV42V5URYAQYAUaAEWAEGAFGgBFgAhCDNjBm+Aw68MFBR0q9B3ak7DmzOPz9euzc/jbNmf6yI3j2HFmo96COYf4HPzlCzw2eGuaHm6J33EKt2jd2+J8PHn/++Sf98P1PVlEvvzwtXXzJxedDsc/bMgLvs7/9Tmkvu/S8rUO8Cv7lya9oQM9RjuTTXJCGhjz/BF119ZWOZ+yRegi8OHUxvfH6u44ClKtUkho2udfhzx6MQEog8PPPv1Df7iPpl19+dWRXv3ENuqdKKYf/+eTxy8+/0m+/naWLLr6Irrzy8pgVPdHHpn17D9DEUbMd9cX40GdQJ8qS7VrHs0TwSBUCMGf6UnrvnY+09b/u+tzUpnNT7TO7JybHLy9cZ/cK/b7wwgto4IgedNFFF4b84vmjXtVHabdmsFn72mwqdFvBiLOeO+NleqLTEEf83Hlz0OvvhxMD4NGgRltH2Ko1y9ELLw13+Ceix9EjJ2jDqm20ZeMuev+dD+mr09+EFRMdSvFSRajI7TdThaqlqEixWyhNmjRhYfjGHwLnzv1B61dtpR1b3yLgfuSz4/TZp0dDkfEd5sydTXRcmahw0Zvo7golKH+BPKHnyfbj448OUYXijbTVfuvAKsqaPTE7eG2BU9HTre+XxUK/DRKa/pp0lCdfDsqbLyfdVOh6uuTSS2QQz2v7Fk/R8sXrHeEebFWPBgvCxo4RSA0EerQfRPNnrXBkjbFt+cYXqODN+R3PEtUDY8iWV3fSVjFeb311V9j4Ict8w435qNidt1rjNuYi6dJfJR8Zr7Ecm9zmibIAmC+mvSytRVhy5c0u+pycdKN4D37KKtPAAlHN8g/RF59/Kb1C17vKFqP5K8al2Hw0lLGPH6lCAFre34PWicmHye3cv5xyicmHm6tV4WHa8+Y+Y5BPTm2jy8SqcUo4JgDRofz72d9pyrh5NKTf+EAJgQi17tSEHmhem3cHfCKHFZqXF66lcSNfpKOHP/cZ6+9g2XJkpgceqkOPPdkqULz/QmAmALF5i159vykXTJAwea8vVu8xqfByTAC8EOLnKY0ACCnapc6t2DSdbi9eSPcoIf0+3Pcpde8wiPa+/UGg8tVpWJU6dG1ON95yvSNePMamGZMWUp8eIxx5+fGoe391ur9ZLSpZpihdcMEFnlEOf3aM6lRq5Vi4RMTH+7alTj1aeKaR0gESkgC07dzMIeJiB+at3e9ZQNv91N9MAP5GJNF3AN59ez91bfM0YYIVqdvx3lKLtUcaP1ninfriNDWu1SEqrLEzsO2dxckCWaieTABCUET1I1ICYM+0YtXS9PzkfpQhY3q7d9hvJgBhcPBNKiNw5NBxKl24rrYUWB0ue8+d2meJ5vnrL7+JxaOZNGrYCxEXDSJ4z03qGxY/XmNTNARAFhBj3qRZQ+jmWwtIL+P1o/2fUqWSD2ifv7xhKhUveZv2WWp5JiQBABgfHN9IV6fTbxe1ebAnrXx5oytm/wUCsPSlNdTrsWGOeuYvmJdWbZkZ5n8+igBt2bCTmtbtHFaPSG6YAHijBnEq7JoFXfVXU05WAoDVnWqlm6lwWPfb9y6lazNn0D5jz3AEYkEAkCJ2o2YtHmWJBoXn8PcdRCeXL3KKiGIXoZfQzWLHCKQkAqY5i9diZ0qW0SuvP/74k+pXa01v7trrFdT1uUoA4jk2xYIAyMqMnzGIatevIm+NV4g5Ptl5qOM5xBjX7ZjjazfBETlOHglLAPoN6UKPdHAyKUxgSt16nycc/wUC4FlJW4DzjQBgu+/u2+trZeZs1bJ+Ysv/xPFT9OOPP6uPrHsmAFpYwjwH9h5Nk8fMDfOz32BiX1RsQV8otjo/FKsY779r1tFJxh0AO1b8O3IEYkUAUAKIBW3dsyhhFewiR4lj/pcQgLhM5buccxmQ2C1vL6Qrroidsmw8cTPpJKp5Zrr2Gmvx1q5TZg+jEoB4jk2xJACog5/dGhCl+yq30oqoQx8TUhmJ4hKWAKARQbkO2uR2B0scU4W8uJfzSwD++usvOn3qDB0WW3SHDh6zlErz5c9lKZ5dmyWjVzbWcz86AGgUWEVEZwDlEmwnZcx0ja/0/QSKBQHABPuwwOCwUAj9+sy3lCNXVoKcPfQxYm0ZZmj/CdZWoqluUDrt80xnKiAm/1KZG4o2i+atst6/XUHYRACgTIQ4337zvVUfXGGFIf01V9M1GdJZSobohDGRSC135qtv6Mihz+mQUMA9K3QhcuXJTrmF4iMsPcl6R1u277/7gW7OWVGbDN4vtjcLF70x7Pm5389ZSl1Y7Rk+cFJIrjHIDkBK1C2s0OfBzXff/kCfHztJx46eoN9+PWspD2cT7zpr1kyB9FigNwPlbXyrSC9jpvSWGFxuocRm2jl1gwfpnRLfykkhJobteNEtUuasGSmz6AMzi7JdfvllbtF9PzMRgP/VrURDR/ekc+fOWbigT35t65u0ZP5qV5G10uXuoHnLxxEU+WLp0FecPPGlwOQMnTn9tdVfYDzIIrDIIPrtoPmhL/pCpPf50S+sRY+rxRiAbxz9D/ojvw7pnDh+UoxVx+nYkc8t61P58uemfPlzJpwlKlhugVIk2ihEYNKmvdTq2/KIPieT2DFLFgMOptX/2UtGxczqD77Z94UlGizg3C6Ubt0UWDG2f/D+J9a8B1YKrxPGHbx2MDGO3l20vnERDu0XyvV1GlQJ9T8YQzB+TBo9hzau2xFq4nYCEO+xyUQAMObv/vAV+tu60Fn65uvv6B2hz/DKkg20bdPuUFnVH4i3/d0l5DU3hFXIiiWc1hcTbRcgYQkAgJ8w8xmqVa9y6B1g8Lwll34iEwr0zw8vAoAPZrBQOsUAY3J42VX/V556P93BGgRN4dwIwJVXXU6DnhpLa1/Z4oiOzh8fTeXqZR3P4PHOW/uoRcNujmcIP3x8uDJRpAQAMn2Tx86lGZMWhCZ5jgyFBzTZBw7vplXe0YV383OTk0O8IaOepKYP32ccIH74/kcLU6xIwKkEADKKawTefhWUIJfXpMV9BAUl06Qbnfiu1/ZY+dn/LVozmQoIkSyQuyXz19Ae8c7e3vWe1VEuWDmBMEFRHdresAETafXyTa4dKhRun+jXNmqi+N6eD6lGueZqMaz7kRP7UKOm/9M+k57YrZkxZRGNEXKfmAy67QDEqm4vTHiJxo6YIYsQukJ8AwMI+oJFc1cS9IHwXkAIuz/V2rJGcejgv9aMZMSO3VtQy3b3y9uwKzr/e+5oGOYnb6CcB5KEidcdN9SQ3qHr5WL1TrXIFXr4zw9MgvCNvfTictf3fe99FQmKZ+UqlKRL016iJiMm5X/RqmWbhLnfKa6TYpS3/7DHqEqNux1pqB6wXoYFFV3/ZA+LNCtVL0P1GlWn24rdbH8U6LeJANgnBfYEgfvkMXNcDQSMmz5QTDyq2qORV/sJC/zPDdrUfPGOJo2e7doXIjjMidasXYFqCZEA0wICJhfrVm6lcc+96NoXAdv7H6wlxrpKlPe6XLqiEb7hAT2f11qbkxGwaPZQ64YEsRJd+7mv8iOCOMT+25D5yyss/D3TZ4xlYUz6qVdg1kUYE2jZtpGR+Eba544YNFlbz269W1Ozlno5fLkjDSKsuiXrpkRsAe2TA4e1fQvGHMiEezm3dlxHtL1JYld39gtLHDvptxa5kTo/0ZKq3fvvajMWCgb3Hae1joXx/Xkhlw/Lbzpn0qlBWOQ1c+FI15247ZvfoI4t+1jflf1bj/fYZCIA+Fbe/cwpIoj6vLr2NeoglLVNEgeYKwwb0xNBXR10GxeKMUp1sSR+atpB7xOaAKBhrdk+K1QniDBgu8iPMxEADCiQ0Xqqm3/TmOisegtbrpiQ6VZ+TAQAWz1u1o5kPXoOaE/tHnvQMeENMqkPElbmu3n969Rb4BBELhxWd3oO6GCcKMu03a49uwwVndZSbRBMgrAi7cfBqsLIZ6bQotUTwzofmOPyO/m354Ndh1mLn3fsOiGM6R1jgrhm+WaaKCYNqpuzdDSVr3xXyBttb/a0JYGsEqDtPfPc41RP2IiO1KFDe6hBV230IHhjonz6y6+1VlhiXbfnh06z3q1a6IHDu9MVglT37T7C0UF36PaQNUkeLyZcqsPKy4ad+p1DdNLorFVn3+3AxCBfxtJqEOv++A9vaP2B13NDpgpyvVD73OSJ9938kfphjzGReKrbs66TqrAI4gbKsiPEQoFutQpE7ZEmT2i3qdV07Pd+Jy72OPbfQQmAjAu7/r27Pitvw66YvKAPsDu39tOijZPszRQEN8iYIPMyiQRsWLOdhojJVhDjBvjWP/pii0zaumKFdLiY0AZpQyAUw8f1diw+wMpaPL4NWWDsmmC3EO/Kr8M3Nnba01pSGWmfC1KrWzxw6wOwGPNo0ycdxUb5tgoxs0h3K7D6PeipMY50sYDXWJA+L2dqx9XEwuRn4uwfr/Yl26epj7Pnj/a3atuLDrKDBYziN95rDxr2e/3rc30pyKI/7N5ukBW2W+9HrTTiPTZFQgBQMIjAVi/7YFg97Tf4ToGXm3t929vUsKbTNDtIKBY5E8ElNAEAQEvWTqYSpYsSBmA0QrvohxuAJgLgJW/mliYm6b3EboDqTB2VGs7tftr84WFsHWGDTOqDhEXafuX5EFZ1g0b2oIcebaB6+77He9TZy0UCb3+8Kmwy7ztRW8BICQCSMH2ckbxjlQC4raLYiq/9Gc2ZEl6dGVZ0GzxQk0qUKhomcqUtiMEz1nUzDXyG7C1vEACsoJvs9WMg151l0KxeFwIZVl3/oY+FDtELSgBAiGBxCd9lUKcSAJMMsZ90MVGYNi984gzxGuwImb5Bt3RTiwBg96NhzXZGPNVdQFP7AYFUCQAO8Hmmz1i3ahufyQmWPQBWO/HugzqVAKAN1a7UMqLFDOStrjS6WbKK5ttAXj/99DNVLtkk0GIS4sFhNXaHONdGlYWPtM/Nc11OKluk3t+JK/9Nk9VWDzyu3QUbOEK0F7GrEqlrdG87LWnff2yjq5iOzM/UjuVzP9cS4uwc3TlFurgQxZv44uCwRy8vWEsdW/UN85M3pjmRfO51jffYFCkBQLlh6Qi7STo3ekp/z0U5iH0XK1DdMWdFe3/n4NqISaWuPJH6JRQBADDqBF+asdTZ0NWFl0DoCADODYAlFJOTjM609YN4uolYJB2VWgZMwqKx7BOEAEBcpcxt+g4SeBctfot1IuzG9TuMg0+kE3WsPBa7oaZafesepyBi0IrW6QgA3i3EV7CiprYxNT9d3SJ5x3YCsELIFrZ7qLealXWPLcW8YtD6RshmYqVGVz60jxUbp2t3oLSJ2jyDiM4hGgaM0uWLixXE4lRU5Ot1AFM86hbJwAcC8GT/dtY3rjsjBM8Qxu6wKnVrnn/FDO3P0ElL2digBABb7ROe/3f30p6u1287ATgrTtVEewYJUB3aRMUqpcX7uZjeeXO/cbfxRbGrhd0A6fqI3ZMZk827ElgphdPlmVoEAOWBVbROj/TDT4ebPHsI1azzr3ioqf2oBOC4kMkveUttR3rSA2MMZOwhOqP7LlUCADGLinfe79idkum5XVUC4LXj7Tb+IR+dkqnp/Jxovg3kBWt1s8TupupQRoh8QG8CegCmnV/dRDKaPheHYurId7suzRxWoNz6x31HXw2ko2GvP+YRN2Yrb/eyfsOSDCzK+HGmduwnbqRhINKIXSTp3PqLaM8vcMNe5m+/Bh2boiEA0LEqVaiOPfvQb5BCkEMvBwkFvEPVbXpzgXYnXQ0X7/uEIgBQ+tSJ+GwVK3cdHu7jsExiCg/QVAKAgRT2WXWa6WjsE4W+AQZUrDRBceVRsT2u6/AhlvTK5hlhIjBuHRVWm0qKHQysbhz48DN6XogEmAiGKjMeZFLvN6ybKa+FqyZSqbuLhdocwj7ZabD25EKIAgH/oA7KR1VKNdFGizRNNTFp7hIDT7lKd1ky+pj8SwcxlmXiMCwolOucunKGMG7vWJcG/CQBMClQYYB+ZdOMsFNkod9Qu2JL7dbuDCFnadIXMZVB+psU0eRz0xWTkuZitwciKVAYU1286hbJwCcJwII5r1C3tgPVolodLjpeuzNtjauiUUEIABTemtd/zJ5N2G/Ij5Ysc7ulBPrlqa+sFUKICsi+yU4AIFIx+tnpYfFxA90Q1NcummCqi130AXLpudOVdKQHj2fH9qKGQh9E6sFgBfq4UFbeLMz1jharYegPU5MAnDxxmu4oqF88GDCsa5iOh6n9qARg2vj51P/J5x14oJ+f/tIIaxItH2KyAv2lFyYusPR34G8nAOgva1V82LhoAhLWvltz0Q6vs8aZg0KEY+GclTRv5jIrCzsBcFukwULJSCFCgj4N7wiGEXDCrM492vEB6ju4S+hRPL6NrRt3U5M6TtOq6Kugx2c/kNNtF2LvoXVh+k7R9Lm6BUOAAIwxqbcbFzFhgkOgRkwI17ULAenjh2knCCJP9zWq5iMFsiaPmESaHBbscuTOapF1HeGxx4M1PSzqQN/h1bXbtfMbhJ+7bCyVq1giFNW0O4IA0RAkmUG8xiakHw0BQHxYnNSJSMuFaYRxc6ZFZ4wBWPhLbZdQBAATpqkT5luKfHZgMFFSt6uhXIkB0LTVqhIAt8PDVm99kQrffpM9S0s21rRbsHLLDCpS7JZQeFNHpWPH6PTL3a4Xn4FcnP2UVb+TehTEb1iTOAFMrsL0quogLlD0+uqqN0Feft7y4NvmO7a+RdgW1Tm/cpG6uHY/KDZjVdTr9D6TRSkommKlyO5M7xhhsMqFCR0OJrpUWLqAlYWjwrJPv6FdrHZikl82mQQzyaPqVunsZXT7/enHh6l8sci3spG2rtOKV91MEziUA4M4xAIzZ8lIV6W7kn768Rdr8ly7fmWhPF6XQKJuylEBQR1u81sLLUIoH5jEf1QSGIQAmNJEudfumK1V9ET6Y0fMtHQGJAHAYsRN2e9xLBhgQq+zJ43w6FskkZB1xPXwNzutiT3Ib9H8+smHm51rWCxaNG+lpXzdXpzkGamLVAcA+cGqSN4MpbRZq/bUTe1HJQB9Hx9J08WEXnUgAEvWTTZaPwIRmCsm7iDG19+Q14puGuzxsFX7xmIi3lnbJ2FRBJMgkGmpAwBZfd3J6GhDew6ucZRrghBjGmwQYzry7a7QzmE8vg3TBA5KlugbVYeTWTExU516UFI0fS4muWjnusU29ds2ienoxm+1zG73MDDS+dH+jiBqPR0BbB6mdgxRHciR2y1IgciC0Ooc6gx9NLlgADJdvlgDLT5qPw/lcZ3tf7RF2V51efr1i9fYhPyjJQCmtmFfVHGrp0nioWvPR6hrr0fcoqbIs4QjAH+IFSq31TOJyvQFI+iyy9L6JgCw7tCjwzMyeuiqUyCTD03bpWOmDrBkjWU4U0elExdCHHQKOutD6oqD30k90vQb1rSNDgs45Sv+q7CKNKXr0rq//Bm6omM3adGHAml+uB3+pVp90kQP7IVJw/73PqYDH31Gxw6fsEwdnhErmSdPnqaDBw5rO0CQMKmkJDM0veOZi56jStXKyGDaK1bn5s9a4Xj2lFAsz3RtBoc/SKJOic1uPcERyYcHFKPRoekGRR/RrSBQWLdPAONVN9PAB9IPaz9yldpUbiibvTTbibn9SHaT+A/a9lsfrw7Lwy8BMG37o5w6YqmW/5gQSYGJWgyupi1oDD6tOzZVo1r3Y4ZP1xKA1/YusYgHdkKvy2Rur0i7TPk7rQO2bi5UwNo18RIB0xbE4BkNAcCkrkCWu7Upq7uHpvajEgDsrmCXRefwDsqIE1phVvGmm/NbyotZsl2rC2r5QV5Yd0Iq0nnzwEpXM52QoT/z1beUW5gBhusgLKYsW7jO+m3/16NPG+r8+MN2L+u3myjF6/uWhdJF4Fh/GyadrlGT+1tlU/+tWbFZK66G02HRx0kXTZ+LNEwLPHY5d5OCq98Jniyr7jpl7Dx6utcox6Nd+5cbre2ogf22Y8Rzk6fXGSowtTH0r12EBSHpdCK1eAbJCS8LaDINr2s8xibkGS0BwPkNOlFIv+0Du4J50jt3XHEgISxAprZLOAJQVqwsQ4FHt+0iwcKOwM59y61Jr98dANNKj2nlG3mZZN9gUhBb8NKZOioTATBtOapkxO+kHuXwG9bUKcq6BLn60YRX04Np0//d4xzAEE7teNS4Qe6xhT5+5Iv0ytJXA094gxAA0zu2lxVKqV7WGuzhTb91eiKmsCZ/rEhAhGGWsNQRKRHY/cEK64wI5BGvugUZ+HR1hdIbvkvV2S37LJ63mnTkVvf+/RIAk9k/lAPnmmTNbp5AqmVdK0xItmrcQ/WO6F6KoyGyaVAzJQyTlzAVC5OC0ZKBaAjAu2/vp3vLt9AWUyWmftvP+tXb6OFG3rK8MlOQw0ZCNKRh03sdCuWmCVUkgz1srut2cky7hiifKY4q0hHLbwNnfdyWL9wEq8Qq6FWK8Ml4QcdVGU9eTbvdeC6VcE0iYBCHg9W/aJxJD+jw16+HiSC55eG3HSMNNxKoIwDPDZ5q7Tiq+auSCKYdTcQ7ePo1rclZNU0/97Eem5BnNAQA4nV5r9EvigaRgNCJEemMM/jBKNZhEo4AYJvK9NJk5SHTCNlGk4wdwqkiQCalINOJw0jDtA2rvrygHZVJxAMyenYZZb+TepTVb1gTDkgjqAs6oUH6brKtqtx10PLI8DDB11HojEQ6wdVNAIO+Y1kWrxVXGc7PNZYrLj/88BNtWLWNYKrMTR5UVy4pihTPugUZ+HRlhKw7FN11Cwkbd8+ngmJFFzuN9gNqZDpytVze4+qXAOze8Q7Vq9baHjX0++h3u7QiIKEAyg83KxRKUM9b++5apMQCBHTqnGFaXRDPAvwTIBoC4Ga5TD0LwG/7wSBfvWwz7SqfV51Ua2imvlWOV17pyedubU0nrirjPVC7o/YQI7Wcsfw2cAZH/eptZBGiuqpEKdI+114I0+o1zKQ2bl7bMvWIlXPVfXhiM1111RWqd6B73U5L0J1zv+0YBXPbIdMRgDHDZ9CzT4ebz0U6KgF4rM0AcebKKjxyuFd3zYvJ2UD2hGMxNsn0THNJP+/BTV/F71kAKIfuuwxCIGRd4nFNSALgxmQBglQ8CUIATLJcaudoB9lkhUFVAAnaUa1atpFaN+tpz8r6rZ574HdSj8h+w5oGKUdhfHhEQgDcOilMcDH58pLddysaFOoe7xhuxkwXHh0AdAV0JCGWBMBtMNeVy80vlgRAzefE8VPiJMmPaM8b+2iBEJ3RKcDLOA2a1BSHxvRznRTLsH6vat2CDHymPGCFB6twqsMABysOhXJXUh9ZB96pNuURyO092gfXN3a+S3WrOHcekIY9HO69nJt4ildc9bmdAOAZRMxwGF1Qhz5q5ZaZIZnyoPGjIQBPdBpimS/W5bl626yw06yDtB8sSmAXIJJdOrtifiRjjK4ubroOJjOWSMdEaFWxJ4SN1bfhRniRTxAXDwIAMUBMxFV3e/FCBJEjnV4U9DqghxOt051342fiac83SDv220fJ9E16IyoBcOuHgig0y3yDXiMZm2Qe0RCAZYvWWcZnZFr2q91EtN1f91s3P1SlPXTxUsIvIQkAKm4Sv7HbaQ9CAEwiQOq2ox10yO9Bjk91qryp7gUjjkk8xLTtCBvm0C+Qzu+kHuH9hjUpCgHXOg31yoGyPPZrmjREtxe/NUxO2v7c7beOEcvwQ0fjFOC68tb1CqK4WFjAuL95LcvKEhQVb8tXRTuphxxuT3GGQzEhz1ugYD5r2zKICEjQd2wvuElMBqfwmk7+tMeXv6+44jIqdFtBeev7ClOHn4sJ/p133RZSAnOLDBwnidNXTbLRsGYC05Jw8apbkIHPVBeTfC/EgDr1eFgr/mMa0PwOrjgMSUcsUMb3Dq+3FMVN5VX9cTovLHCoDivxdssu6nPdfcGbrgtTGEQYGEbAAVg6WXNdGtJPNSsq/f1cIyUAboqC6s4pyhG0/UAGf84LL1sEQyd6Y6qbfdHGdMaMm5ipKV2TOI9dlEuNaxLtspMUGSdW3wYWCopcpxcBwgm6QVw2IR6HhQDpoulzZRpYTYYivc5hx3nlyxsdj9xIliOwi4dJJ+TTL7dT2ssudYn576Mg7dhvHyVT90sAoAAMRWCd05ma1YWTfrAYdcEFaais0K2Bi+fYhPQjJQBYqKxauqlWDA/p7vlktWWFC7+9HL4PdUHNrofiFT+ezxOWAHwsTGZWEPaUVYfTPKGAAReEAMD+MBi56uyTGfWZSfbNr7KSiQCYVuFVBS+/k3qU229Yk/6BSj5ULGJ5b/ooZR6qHWLpb79KyxkYrOUhQG4mRnW2/VOKAJiUvmNl9ciOi+63VEaDCcfegzrSHSUK64KF+bnJP9rtWMerbkEGvrCCKzemVVEQQt3ujyo6KJMLMrialCJN5ELmgSsGnosvudgi1ocOHtMeaIRVRFVJ2Z5G0N+wDPP+uwdo394DtP/9j+nNnXu1olMyXRyGCLvtkbhICADsxzer28U4GMMaChYw7C7S9gNLSlDCBxYfCOMB+8Tftk277Uk7fksLSyYDCyCcm954yVXuG8qCEKmTJjPbNu9l6S+pmZnEiUDa81+rV+7WibQh3Vh9G7oJDtLfajh4D8/8uFgQAOSDHWFpatUrX+wMwPpPLBzO2sBCpupM70MNh/sg7ThIH4W0/RIApIuzUnT9JdLxYxMfaWAnAWKNdmMW8RybUDbTXMNtJwaLATAjrSOHSDPI5N20m/dw20b09LPdkFyquoQlAEAFq1Ow1CFd+vRXh53iGIQAmCbISFvXUcHMG84N0DnVPFiQjsrt6Oupc4dR9Vr/rlaYyqyKIKGMfsO6KdKph+no6g5cnhsyzVrBsO9W6MKa/DBYYbXKtNKGjxMDHSwTqeJAUBSaLkzI2Y+0lwQAp7mCtKnOpLGfUgTAJEqGSeia12aLg4ZyqUUO3WNCsknUa5wwEVm7QZWITmCWnaxMtEbtCpYSu+5UXBnGrZ3YFS7jVbcgA58ss+4KiyOPiDM9/Di3rf8gg6vJbjba9dY9i40ngMotZzmhdSNhOF8Eoh1uDiY/J42eTRtWbyfI6kKBF6QCx9P3GtCBaokDiS688AJtEtCdgC6Dan4ZgVURAW0CBs8gBACHai0XB+iNEZMG0+QDK8Ybds11nCLrt/1gUQhjTL8hj4XZ/LcXH+9+ojinQScvjXCHzuywSJvbAgTOTMHOsc5BkRaHBMISijSraCq/ZQDj/WUOMmFa4EJ+kqCoecfq2zARCexULV49KURq1Pxxj7Fg/qzlllEC7IgWvaNQKFiQcTUUSfPDzTyrGly18Kc+D3JvOotg8ZpJltloP2mZ2oFOrCtIH4W8/RIAhDWRWzyDw1iNPkU9Kwb6JjhHZGj/8SE9Gx0B+DsVoliOTUgzCAHAQsi6ldvIZElNltG+CC39TFf0YSVuruV4bLdG53iYgh4JTQC8cAhCALCyVrFEY+3KFiaIU4Rym5yIwZJH66ZPaGVCsZojB1NZPlNHBf2CGmJCD9vwRz47TlBOxQetcxjItr690BpI5HO/k3qE9xsWHS6U3kzyrlBueUgc/JS/QG5rwgAGi4n6Rx8cJFjMkOIC0R4I5HYug6w/tvZhXx9iMt99+704hOeg1nycJABuFoaWvTotbOUbbQcyxTol0VjqAKAubmc/gAS0Faup9RvXEBZiMlsTsp9//oWwAwbM581YZp1JgXR05YK/l1MJgAyPCWmxOwvTLYVvEEqxEBFJZ034du/YozVbKuPZT8iNV92CDHyyXLor2rtJLEwNj5O4MWnRuSCDq4lYIl1gDvNvxe8qYp0yjJOp9+75kGZOXhRq2/IcAIR3k3uHdZ42nZoKM5WFrAkwyOJxMeCg7UA2234SsdzZsFtGQV/WpnNT65Rg1bwlygUxFHXrGmWKxkKKiQDgO8DZDuf++IN+FX31F8JOue7bRP52t2b7LIIYjur8th+7DXtLDLJBVSomdshUM7Omb8guAoQ2Uk6ctWEqN8w8w3gFTv2+4MIL6cTxk+JAsc0WSQPOwEASANMOOOqJHTiISl519ZVWtbGo1KHFU1qSpJqWtuMUq29DEld72vI32liH7g9ZBxjCZj3s0IPwHPjgM8ts5TRx7o8kmfZD1RDfNK6adtZlnrqrSVTRHhb4o2+TuzD2Z5H8NhEPHC6G9+LH+W3HSCtIH4XwQQgA+pYHhdEELLK5OUzgIW54pVCghm4NRH7U78GNAMi0YzE2IS0TAcAzSH/8KeqFnTecd2SaEyGsdPa+Wfq5XU3zMj+7wW7pxupZ0hAAAOZ2CBWeYxKOjt+0Mo0wS9dPEbLURfAz5EwdVSiAjx86uVpT44lmBwBFOSAmliBDXg4domnlLVoCgLxN+ghe5VKfSwKAifMNWcqpj0P3GKyvFgdHYaXNVC8E1k20Te/Y72BkEr0KFe6fH+j4dJMuU7nU+Lp70+RFF9bLT6czE4+6BRn4vMps0uWxx9PJkdufBx1c24sJGVYAI3H2QQZtulrpZq59EvJw+1bxXEcA4C8d+j5MTDNlzkA/fPejtaBg+kbe+PAVx0qfTMfraiIAXvF0z2Fnvv4DNXSPfItO2AmATAhY5i+Yl3LkzEoXX3yRhb3OUgzC48BAnO8gHUSHqpVpJm8DXZGvJACIaPoGZKJoszh00NRfIL1dwmSv/bAoGVdeY/FtIC2TKKDMR17d2mk8CYBJHEeWC1dVt8/+LJLfWDyDPpD6HQWxAGNqAym9A4D6Q16/5C21I4EiLI4fAhAWweeNbmxyIwA+kw0Fa/xgLXpWWI+Sh6mFHrj86N31WcJhmarTiSSrYVLiPqkIAAA1HVzkB2yTrJtpcugnTYTRTejhHy8CgLT9WstBWJ2LBQFAx9i5Vb/QyqcuHz9+kgAgrN+ByC3deBAA5GeyE+5WFvszXbnsz02/Y0UAsEKKyakqloV8Y123IAOfqd7S377qLf3U68AR3S1ZVtVf3gclAFA+rFqqqWP1S6bndrUTAITzU3639PDMiwB4xZfPcf4JzkGJ1MWCAGASCcVWWNIwOb/tR0cATGmq/tg5XrxmskOka870pfRkZ6e+mRpfvVcJAFbo3UQl1fjq/aRZQwiKrm7OT9vy+jaQPvryKnc1iai9y/LFkwCAKBXOW0Vmpb1uETvw8lRnbYAIPE3ty36Wiluyftsx0gjaRwXZAZBlXLdqqzVmq6RGPvdzjQcBMI1NsSIAA4Z1pZbtnDqpbvWF1InuNGqTSLJbWvF6lnQEAKYfsTX+3JCpgTCFgm5bsV2uOwgnGgKAVYee/ds7ZDpRuHgSAKSP8wiG9p/gubqIsKqLBQGQacIW+5Odh4S2gqW/n+s9VUrRuBcGhgZhyPFBeVxuK7ulge1p3W6PbqJtesd+dwBQDnQIWA0YJcTAIulAdeVyq598BtGtTi37RpQn0oDcMU4fxcE4usk/wsS6bkEGPuTv5aqXfdASOTCF23toHWXMdI3pceDBFQlh63tIv/FaZU5jRuKBSgAQFivQSMtLIdWUbiwIgJ+TjE35S/9oCAB2KZq0qEMNHqjpaYHDb/sxTdBkeU1XDOLzV4y3RLp0YXDy/LABE4yr87o4KgFAGOg8YacUBxr6ddhFHDTycc/Jv0wv2m9DpoOyQtFz1rQl0ivQNZ4EAAVxW6SIl1lGkxlSux6VG0h+2zHSSAkCgHxg6Qz6MJG8Z7RxiEDC6AhcvMemaAgAynq/OCsChyDiew/qoESM/kV1up0KNUxK3acKATB1umoH4AWCaYKMeF4n1EF2GRr6XgMqJpgDh3dzNddosv/cW2wNL12wJqT8Yq8PrA2069rcOl3T7m//bbIprjswK0hYex5QNFzy0mqaLJTc/MjAVa5elqrVKk/3VLrLcxC25+P1GxPIqePnW7sBENFxc5i4Q+kIsrA6RVZ0UBh8oRinc5D9w7vZLyx8dGzV1xFEp+RoesdBFIJkRjBfOnXcPILojBdRQScEqwOVa95Npcvd4VB2lGl6XfGeoSOxXig5rRLET5XL1MWHyBQI6r11KmoJqi5OrOpmslOvmxzryqH6ua3K+rHqYLLmoJu0qXljlXXk4CkEs55uDvoHWB2rVa8yXZMhnTYoDm7DpAB9n5dDHwOjAhWrlSGIi8ChHWzduMsST1ovThr2IqKo36OiDTQR5E/VE/DKX/fc1PfbwyLPzFkzWToSuEI3pqpo/3eWKmIkoPb4+O23/RwTYg2YXL8ilI1NYj72tKF30art/XR3xZJGBWoZHiv4UHAF4TeJ6SAs6ntfo2qWGeYSoo46t0UoUvYS4gRe322r9o2pW69HQvoBurRUv2i/DTU9KJqjjfppXyB1GM8q1yhrKQDbdS9i2eeijFi9BgHVOT+7Jbp4Xn5QxMcqsOpQ723vLHbomqjh/LZjxDP1UXimO4PEtDPsd5cP4/TYkTOFDtMHnuMYDk+tK9p4xaplHCcHx3NswoIbxHC8HBa5sol+RvY7pcsVp0qi3/RrrlWXvsnceZBFQ126sfRLFQIQywpEmxYmnuhUDwkl3WPiCpc7Xw7KJxRP8ZFG0wBk2aBggoHmh+9/EnbA01lKMrqdBBk+ta74EKGYdvTwCQuTs0KpLUPG9GKVK4O10pUzTza6/PLL4l48KBydFEqAWJ3HqtLv587R1ULhLZ2wAgUmbpocqQVDXJCaw+LdXnLpxZQ5c0ZLyRN1ShSH9oe2gTYIiwGwygK8M4pVPFxz5cnuOUhEUheZ77EjJ+g7QZiAMU6+hBUHdISZBFYmCzF+85N5pHTd/JYvpcPB1OOXJ78Sirpf0PEjX9BvZ89SunRXWTss2XNkCUSo8Y2gXzkq3h8MDHwvdr6QVka0nUzprffo1c5RnjOnv6YvRTpI69Spr+iXn3612l5WYZM9i5h8o1wwS5oMDub/LBxO/o3H6S/PUFphwCFrNoGF+AMmXpiacIJI2AnxfUNJG0qwcPjOQG7y5M2u3VnWpQWCfVhMsA8JBUv0kRif8uXPLf5yineeNS59ha4cfv1QXnz/Rw59TsATCrbXir4FbRTXHLmy+k0q6nDY7R4nJqyqAwHDGR3xGpMH9xlrKdyq+QY5TEqNm2j36OsxzmJhFXpLl4g+A0rq6D8KiMUHO7HzKrscN+I5NnmVIdrnMPjSoqHTzKdJ3Dva/CKNn/QEIFLgOB4jwAgwAowAI8AIJD4CmFTq5LFRcog3QsQ3Xg6ksuj1f4u8qHns3L+ccuXOpnrz/XmMAHZVyxS+T7vrl0ir/4CYCcB53NC46IwAI8AIMAKMACPgjsDCuSupa5untYH8HDypjRjA07QL4HYQaYDkOWgCIWCyrJVoq/+AjAlAAjUcLgojwAgwAowAI8AIxBYBWFOCLo7qoOM3e8ko1Tvm91gVNllJwu4DdiHYnf8IrBC6RDjUT3UQM9v05oKIzSer6cXqnglArJDkdBgBRoARYAQYAUYgoRBwO3QS5mRh2CIlnNsZEbCM82CreilRDM4jTgjgkLRm9bpoU5++YARVqXG39llqejIBSE30OW9GgBFgBBgBRoARiBsCJvOfMJf61serAymoRltIN7OUc5aOpvKV74o2C46fCgi4Ha7aok1DYUmyeyqUyjtLJgDeGHEIRoARYAQYAUaAETgPEYA99u++/d5RcpiTdjtMzhEhBh6w3rVk/hr67bffHKndUaIwFbw5v8OfPRIfgRPHT9HmDa87CopTg+s2qh4Ta5KOxGPgwQQgBiByEowAI8AIMAKMACPACDACjMD5ggATgPPlTXE5GQFGgBFgBBgBRoARYAQYgRggwAQgBiByEowAI8AIMAKMACPACDACjMD5ggATgPPlTXE5GQFGgBFgBBgBRoARYAQYgRgg8H8AAAD//zl/ZjoAAB/QSURBVO2dCZxO1f/Hv0O/DFG/oiiMUkJ/WSJRWYpSSpQo/VoI2SuikDVJSpFCpSJCRZaypCQk+76Mfd/3ZQxmLPd/vmec03nu3DvPfZ5n5nme0ee8Xtx7z/q973Nm5vs953zPjbFEIAQQAAEQAAEQAAEQCJJATN6/gywZ3cWsA/dFt4CQDgSCJBADAyBIcigGAiAAAiAAAiAgCcAAwEAAgcxFAAZA5uovSAsCIAACIAACUUcABkDUdQkEAoE0CcAASBMPEkEABEAABEAABPwRgAHgjxDSQSC6CMAAiK7+gDSZlMCFCxfp/LnzlC32ygx5g+SkZMqSNStdcUXWDKn/31Lp0M9G09mzSXTPfWWofMXS/5bX9nnP1SvW06wZ8ylLlizU/LUXKGvWLD7peACBYAjAAAiGGsqAQOQIwACIHHu0HAECo4ZNoBnT5sqWPxzUhfJcf23QUiSdTabBA0bQvDlLaf5fS2U9d5YuRnfdXYKavfY8xRW6Kei6ueC+PQdpcP8RtGThKmKljUPFSmWpglBeW7Z9kbLniJVxkfhv+JdjafaMBUE13bBZfapS7Z40yyacPEW1qzWWeR5+rAp17NEyzfxeE4vdWJVOnTpNb7z9CrXt2MRrMZ1v/drN1LfnEP1s3tyQLw/1HdjJjIrK+xFf/USd2/aVsm09PJeuzJYxRmtUvnwAQp04nkCJYqywUZ87T/C/J9ya9FL/grnLdF+92a0FPVKrqlt1EY/PSAMgLn82qlbpGipbKieVKZmTConn02cu0sy5x+m9Abtp556kDHt/OAFnGFpUHGECMAAi3AFoPnwEfp08m5o06KAbnLdmYtBKOv/xbvLcm1rx15VeumHDYszPg6h4idvsSZ6eN8RvoWceb0mHDx1zzH93hVI0fOzHdM1/czmmZ3Tkm23eo9HDJwbVzIefvU0NXqqdZtljR0/QnYUeknmeevZRGji0Z5r5vSaGagCwsVf/sRaOzd2Y/wZavH6yY1o0RcIA8NYbrzbtTuO/n0alyt5BU2YN91YogFxe6v9t6hx6+Zn2slaesGjw4hMBtBDerBlhAFQsl4sG9CpM5e/KSQuWJlCRwtnp4gWLks9ZdPjoObrtlux0VY4sNGXGMerdfxfNX5KQ7i8NAyDdkaLCKCEAAyBKOgJiZCyBlUvj6bGqDX0aCcUAaP5iJ5o84Q9ZX90GNanWU9Up19U5pUHQ790vZHzOnDlo+ZZfA56pP5d8ju4u9rhW/tt1bkr3ipn/xMQzNEW0+eOoFCWzWo376Ntx/X3eKVwPk8b9RksWrErVXPzqjbRw3goZ//iT1ej6G3KnylO73sNU7p6SqeLNiMTE0/Rq4+4yqmKlu6hJqwZmctD3oRoAx4+dlCsyLEDDeu2kHA88fC+91PRpypEjO91buWzQsoWrIAwAb6S9KOjeanLO5aV+/r018MNhsoKGzepRpQfKO1cWBbHpbQD06hhHb7UuQD9MPEz1a+eh5OSLNHfRSbENMoYaNNtIMWLnWr1aeah350J0hbiPjc1C73+6m7q+vzNdacAASFecqCyKCMAAiKLOgCgZQ2D3zn30uFD+7bPpwRoAhw4coTK3PSqFZSV38PDecj+1kn7Mt5OoQ+ve8pHTnqibMpOt0v1dzZWKdz/qQA1fqaeL8Gc7Xnulh5yZ5MhF636hmwrk1emRvhk3eiq93qyHFOOPhWOo6B23Rlokn/ZDNQDMygrkSlHG2Djp8X5bMymq72EAeOseLwq6t5qcc2V0/c6tZlxsehoAy2aUpuK3Z6fYbEKzvxQuXCDatPUM/bXwJH09+gAtWpYgfu/GiFWBWFo8vRSdEVuCKEb8Tlx2ih5/Pl4VC/kKAyBkhKggSgnAAIjSjoFY6UNA7SXfuH6b3I7zYpOnqdPr78vKgzUAvhg4inq9/YmsY+ai7+n24oV9hGUlvcytj0iDo/KD99DoSZ/6pPt7eOnptvTH9L+JVxDW7f2TYmLEXzUjbNuyiyqVritjeG986zcaGqmRvfVnAJw8kUBzZi6SQt5XpRxde901xA7UWzZupy2bdsj96BXuL0NXXZWDePtDctI5yff2Yrf4vBhvkVqzcgPt3LGXDh88Kvf1X5f7v3R93txUWcySlihV1Ce/eginAcC+G/v3HhKrINdJp+ON67bS33OW0PIla+XWLfbl4PHBK0cceNvTnJkLaeWyeNq7+wDddvvNVPWhio6rJXaOvE99zh8LaYWYMd6+dZc0vHib2P1V71avrq9eDIDz5y/Q7D8W0Lo1m8S/zZQ9e6zsB17hcGLLba5ZKWZlxVB9rE41YiP5T+FovHzxGul0Xf5e8a6iX/IXzCflYIf52Zfedf3aLTK+bPk7RdkHU413Lbi42bFtN80X++K5DDO65daCVFT8/NWs/SDFZs9mZpX39j5gOefOWkwrlsTTufPnZdk69Wr4GNFnTp+VP39ffjqKlgn5eWtX9z6+Bh6vYOW76XrZRqBjMZD6ExISta8Nr4Q5+SLwdkR26o5fvUn+DBUWTIqXKEJVqlcg/pmwB/vYyZXrKpol+ppXGzaIMVogLp8cc48+8UCafWGvN70MgO1LyxHv+f9q1AG6s1gOsc0nlo4evyBksWjQsP1UoWwuerZOHvpoyF7qK2b84wpko+8G3U4Vaq6i9i1uoi7tCtK4X45QvSYpflN2OQN9hgEQKDHkzywEYABklp6CnAETYCXjpfrt5B9Q3pM/dc4IWrxgJbVq1EXWFawB0PjZDjR9ymypoMfvmekz+6+EbNu8J40dNUU+7jyxwDGPymu/qpllXl34fEQfe7J8Ll24hjQw+I/8qAkDHfNEItKfAcDOzI9WelGK9tP0L6Wy2r3DR1KBV/JyP5UsU4zclPWLFy9S3DUVVHbHK2/LGfpd31RKoVudjpX4iVT95LYCoMYJ7yG/T2zhGjxgZKoaOe3HKYPlGG3X/B0fDipzr37tqZFwnDaDybGFOMln4rjp0mnczMP3r7R5jjq/08bn9Ch/BgArya826S6VX3t9/MwO6G92bU5X/OcKnfz14O+p+1sfy2feq95T3LOztRnYoJ08ezidSz5PrzbtJg0LM53vnVbUOJ77fNjnP+o2OM4MhW+Lo8++7kUl7ypuRpPZB1WrVaBPPvjGJ50fWK5vfvhIb9/i97+/VIqBnSrzpYiho/oSK8jBjMVA6men8+oVnpOt/jhliJZRycUGTouXOjv2Pf/O+1QwsW8bMsdOp56t6KcxU4knSOyhhnC+/+K7933Gjj2P+ZweBkD39gWpR4c4GjP+MDV4Kg99M/ogPVc3D91fazUtErP89zyykpasOEUl77iKeItQ6RJX0a49yTRnwQnq3HuHFKerMAB6vhlHdV9eTxOmHjFFDOoeBkBQ2FAoExCAAZAJOgkiBkeAZ/pHfj1eFv517kg5c8l710M1ANiXgGfLeAb7h8mDHYXj4yZ7dhog01bv+F3OdDtmtEXy3vei+arK2Le6t6A27RvZcqQ8Nqr/Bv0+7S+5qvH7/NGOeSIRGYgBwIqXXUlkmQMxAFiBLlqssDzNiWfQmYna6sUOk6yMmiESBoDZPiuqPGvNs/xKTjsHNurY14DHmArLNk0lPmVIBVOJU3F85THJM8w8c62C3YBIywDgWfXyxWupotSoeX05S37yxCn6ZfwMfRpVz77tqHHLZ3U+0wBQkayAlilXQs5Kb92csi/b/q68SnFltv/Q37OXqGJCGe9HD9esrJ/55p3OA+jLT1PGOfd5TaF8swP8hvitNOyLH2Vebm/uqglSoVeFlQGgnvnKM/olShaVs907t++RSXE356c5y8ZKo+bAvkPUVhhjyxat1uOTV2rM0LZTE2LZTQPA61gMpP60DIBVy9dTzcopxjTLVqd+DblqxKskavKB48dOHSJPD+N7Dm5jh08Y46BONOP7T77sQezj5CWkhwGwf0152rbzrJzlb9x2M/1f0RyU86qs1Kz9ZuEMfAvdlO9Kqt90gxZnpJj5Z/+A0T8dokavbdLxsyfeSRWEA3G2AvN0XLA3MACCJYdyUU9AbFdAAIHLjsCQASOt/Dnvlv+EUqjfb+LY6Tp+x/Y9Oj6Qm3JFH5N1NG7QwbWYOCFHt7NpwzbXfPYElknJLRQbe7J+bvVyF5mvaL4qOi4aboTioeUXyksqkVYtX6fT+T0rlqhjfTt0nMXxQvm0xAqNJbY9yHL8bpzn4z5DU9UjlFHr0MGjqeKTziZZDZ5ordsQW1l88qRVp09GDw+qn8TMt2NucXqLloNl2rxxu8536lSi9cj9L+h0luuH736xzp07r/OII2t1ulDadTzfmBxVWfNdVyxZa6l3LXXLw5ZwLNflmbeSnXmZQTi3yzQus23LTjNJytbshY4ynesWRopO/2rQGF0n96nYymQJ5Vini2NHdTq33bvrp9bJk6d0uti+otNZBjOYaR+8M8Qy35Pz8buq9+n//ldmUcvsg6cfbW5xXSpwPW2b9dRlheKrkuS1TZNuMq1mlZd84u0PwY5FL/WLLVhaPmEk+TTN78PvzX3BDMzA5bgPOb16hQY+zMyxw+liq5N19sw/48DkzW14DXTDXCuUfxVrrrSSki5am7adsfp8skvWNXfhCeulNhvlfaG7FktRriu6QD43abdJ5n+u+QZrycoE6/Nv9/m0z5lrPR/vExeMfF7fH/lAILMRoMwmMOQFAX8Epk6aqf9ofjPkB5/soRoArNQoZUM4u/rUbT6Y7YizvM2kNO+XL1mj62eF0C10fK2Pzmcqd275wxUfiAHQpf2H1unEM66iKQXWyQBwLSQSpv38p2YjZp59sgZbp08llx7UOPBnANSp3sRHGVZ1iW8paDntChznYaVMtcEKsxlMJc6uuKp8gz7+Vpc387gZAKayaRrNqj6+shGjZDLHtWkAiFUss4i8N5VK4UOTKp0jlOHGhpEZlNHBirhd+Vf5hEOtlMuusCoDoNYDjRz7wHxn+8+bFwVdte92TWsseqnflM80AJYuWq374bOPhjs2z0aj6qtZMxboPObYMeN1BnGjmLMR4TUEo1ybZbp/sNM6dOSctXXHWam05ym2UDZdsupyrcT/8ttRa+zPh60//z5uzZl/wnrihRQF/7rbF6QyAo4eO2d9MWK/Lmu2Fci91/dHPhDIbARgAGS2HoO8aRIwFWhWMO3BVMyDWQHgGVr1R7V9y1726vUzzwqqfKaipDO43Cyav0KXE3tzXXJZljmjGogBMOPXubp+JZ95FdtOXNv0khCIAcDvmlbwp6xzX7DizAolK4DP1WkjZztVOX4v+/uoNLtRwQq2ycF+7ySnyuPPAGDF1imYfbF21UanLHKFhNvhmWozmEqcG0dTWR83eoou7mYAmD8bM6f/bbHCaf/315+LNCdTYTYNgAsXfFdduOETx0/qcm4rW2LLnsxjVzp5RYEZsFJql0c9KwPAXlYZAG59wAao6sdB/UdoRnzjRUFXBYIZi17qdzMAmL2SW5xypsTwuQpnX52H+0cFL2NHHGWsy6py/q6BKNVOeSdNO2LtO5Bkbdxyxlq4NMEa/v0BKzHxglW1zmqr7svrrK9G7be27zorxXity1ZHxf7YifPWU43WWWLrj1ixsqypM4465nNq3y3O33sjHQQyKwEYAJm15yC3I4EX674u/3DxrKvYEy63GfBWA/XP3JrDShfHiz3TjnW5RSolsmXDt92yWN+P/Fn/ATW3HbgWuJRgKm3ffTPeNbtSeFgJCCRM+2WWlkspEOaVZxZDCeEyAP78bZ7e4mLKb7/3agD06Ng/TS5OTFRbwRoA8+Ys0W26GQC8fYPbCcYA4K1USkbh/Kpfwc0AYKNI5fdy/bTfMF2nPwMgOSlZ1+1mALz79kCZx1TizVUQLzJxHnOVwJ8BwC+g6uUVEzN4UdA5f7Bj0Uv9bgbAh70+13Kb28ZM+fle/a7q8sY/kyFeDABzC6W9TrdnNwXaa/zqdYnWwcPJ1vXFF1ot39pisTKffO6itTo+0RLOvNbrQumv/MQqa/3m01bDS9uC7HU3fWOztUMYCT377bRmixWCRcsTYAC4dRji//UEYphA1DsqQEAQ8EhAHaHpMbvMFugHtR6q+Jw8weShRyvRsB8/cmyKHRO7tu8n05ZunEJ5b0w5MtAxsxHJzp8l4qrLmO59XqemrVNOADGyyFv+CvGvv8widiqds3ycPdn1mb+J8Jc4BtEtPFyzkuNRg2757fGBOAFP+H2odKS016Ge3Rx2+dQS/haCCnxyTKm77qDCReLkh8e2CYdTlT519rc+J8O41clOs3wEolPImjUL1f/f46mSvJ4C5HYU7MK/l1PdR5rJen+bN4ruuLNIqjb4xCR22uT2P/68m043HTndOAqlmwrnuV+WebNbC3q1Q4pDuZsTsOk0X/vph3VbbjdPPP0Q8UkxHEwnYKdTr4RSTjdfW1HmtX/bQkaK/97r9hkN7j9COnSv2DpdRu/bc1B+FI8f+ChYPt4yrRAjzoXnr0ZnyZJyfrxyAnbrA65L9WPnd1rLE45U/cLI9vsl4FDGopf63ZyAxQogcT9y2J2Qcqyuktu8qtPC2JGXHXo5eBk75iEGadUvK7z0X6hOwDuWlaNVaxOp1gvrZI18GlCVe6+mB578x6GdE155MR+1aXwj3Vll+aWWfS/zp5QUXw7ORb0+3kU1q19L5Wus9M0Q4BOcgAMEhuyZh8C/3gQCgMuKgFoBULN6Xq5cJpDw/FOvydk3cRa/azFzRjmQLTq8fULJbM7a2Rt6oFx9mc++59meL9zP4VgB4NUdZsSzm06rK8sW/7M/2usKQDCcVD8FuwLAW8NUHW4rAMpROJgVANOhfPz30/Qruq0ACOVby6McsXUhPzf+VgDMrXNuKwBqG5a5AmCW69N9kB8pUidn9ApAKGMxlBUA3q6kxg47lDsF83eJMK50Fi8rAOwYrOrXBf3c2GfjA31eueaUNW/xST1j3+PDnXKvv1M94qvAVuXaq3ReM8/ho+es42L14BWxGsDbisy0YO79vDaSQSDTEsAWoEzbdRDciQD/MTxy+JjrP1P54f3jnNftD6hT/RzXs9M/20XEkX6O2ZSCzvuXAw1q24ebgXH40FH9x5l9AaIpZLQBYO5rdlO8YQCkjIgJP/6qx4npZGz+DJinAIkPr+n8vNc/kJBRBgDLoH4eWNkONIRiAKhtdty+Uwh1LPqrn9t02wI0ZeIfuq/ctu2Js/11njEjJulXiFYDYOTYg9YhsQVIKelpGQAffLbb+mnyYZ2Xy+QqPF86Anfouc1at/G0NenXIxY7Fqv6gr1qcLgBgcuMAAyAy6xD8TppEzAdHd2cgPkoSlas+Z+TI65YQtd/WO2Og9w6zzqr2TOeVbUHf/XzyUWqPOe1B3N2zu2Pv71MuJ4z2gBgg0ux4RlUp8AzzCrPv3UFgP1a2IBkDjyjbvq5uBkA+/ce1Ny4bFonNPGpQqbxm5EGgLmaxuPLLbCjMTsvmyEUA6B3lxSfBGZoGkqq/lDHor/6uR03A4Adf9UYb/q/t5RIPtcOrXvrPGJ7m06LVgPgmVfWSxmVot660xZr6cpTjgq8OiGoYOnFMp19BvbuT9K+AZ98uddKOHXe4qNFVX3BXjU43IDAZUYABsBl1qF4nbQJeDEARn87Sf/htG+9ULWrWUn+I8wzrbxlgrcr8ClErHCpP86sVNmDv/rNGX6ui40A3kbExyuKD5npunmVIdpCRhsA/L7KsZEZ88zmrh17rYMHjkjlz74FLL0NAN5WwX1tOtjykaz8bFeY/Smf6bUFiE/HmTtrsVzNYsd3di42xyePGTO4GQCc5/NPvvMZX3xMJI87Pv6WDWZ2IleMTeM0Iw0A/t6A+TPFW4VYAea+YNnYCGZDnMeF/bQff33A76x+Vu1OwCO//ucYTd5+xHKwIcCrKcI3gYuGNBa91O9mAHDbymma5ecTz3gMcuBxaDoJ208ri1YDILbgPHmu/18LTkil/fYKKd9luObW+Y5K/Pgph60fJh2Ss/6jxx+ybi6bYgywor97X5IVL1YBglX6zXISKv4DgcuQAJyAM4+7BiRNBwJevgQ8ZsTP1KHVu7I1u/OlEmHF0rX07OOt9JdCVbx5dXN29FK/OK2I3mzznlmdzz1/UXXkhE/SdKL1KRCmh3A4AYsTlqh9y5T+8fdaXp2A/dWj0sXMN9Wr2UI9+lz5a7LzVk/Qcf4cUNPLCVg36HDDzp8DvuhOMTExOtXNCZgzsLNus+c70vQps3V+t5uJM76icveUlMkZ5QSs2hZbkqipcHx3+nK0ysNXu7Ovvz7gMm5OwCeOJ9A94qvITm0OHdWXHhVfIw5lLHqp380JmOXm8k8+1ITEVh9+lIG/csyO0yrwmJwonO3dviLt5kAeCSdglrn2I7npp2HFaPJvR+XXfTu+WoDe7rODpv1xTL5Snuv+Q9UqX0P3l7+aajxwLRUpHCu+EryFvhy5X72y+N2dnz7odjP17LeLxDYiHR/sDZyAgyWHclFP4DI0avBKIOBKwJxB55ljp2Ae4WmfPTPz85GdyklTzSLylWcr+WNkbsFr/UIJ85n5VG3w7C7v743GwFumlJzmtgMlq7l9ypxBVunmVc3027/uyrPRQkHR7aj2+MrbRXjWWsXxbKcZ3Oo086R1z1tfVN32q93fg78UzXn4+wROYeG85bouJ2dmLsMfv+I63mjh+80JcxaX61fvpWTir1Wb+77N9s2ZZz6e0ynw2FNbiFSd6soyffP5Dz5f8uVnlc4z8/ZgOvPyB9CcAjuqch388+MUeGXM3Nai2uMrvz+n2ceUvz7gdlQ9Ttv1eHXBiQN/w4FDKGORy/urf0P8Fi2f+TE3LsuBt3Z17dBP51Hvwlf+3eXk3+TlZ9Bc0Ulpyf//5qx5KPeDh+2zNm09Yy1YkvKl6VPiWwAr156yVggn4fPnL1q/zTomj/l85Nm11tr1p+WRoaq9stVXWEnCQTh+Y2K6zP5zvQggcLkSwApA1JtoEDDaCfAMoViqp8SE0+KYwts8H/np9b0OHThC8Ws2U2z2bHSHqD/X1Tm9Fr2s8wknTFofv4X46NQb8uamosVvpew5Yi/rd1YvZz/KsUy5EiT2pNOhg0cof4F8dL3gkR5BnMNPO7fvEfUelbPI+QvmpRw5sqdH1UHXIf4YE/9MiC1JlDVrVvG+eeX7qqM/g67YpSC3d3D/Ydq754B89/xxNxKvwJkhlLHopX6zLad7sUWQtmzaQTt37KUCBW+kW4sUomyxVzplzbC4UI8BNQUbPrCImN3PTu8P3E0jPitCrTptpb37kumvhSdJ2Jc66/NPX09d2xWkovcuoy7i2qVtQVq/6TSVfnCFzhPqDVYAQiWI8tFKAAZAtPYM5AIBEAABFwJ2A+DuCqVcciIaBMJDID0NAJa4V8c4eqt1Afp9znHirT8Nmm2grTvOpnqZpN330r4DyRSXPxuN+ukQvdBqY6o8oUTAAAiFHspGMwEYANHcO5ANBEAABBwIwABwgIKoiBJIbwOAX6ZiuVzC3yc/PfVYbrp4kej0mQu0Zv1pOpFwgW4tFCuV/iuvjKFde5JJnCJE85ckpDsDGADpjhQVRgkBGABR0hEQAwRAAAS8EoAB4JUU8oWLQEYYAEp2nt1v/L+89GTN3HTm7EWKzZaFdu45S5OnH6VpM4+L+ySVNd2vMADSHSkqjBICMACipCMgBgiAAAh4JcD7vVu/3FVm/3hIN+l74rUs8oFARhDISAMgI+T1WicMAK+kkC+zEYABkNl6DPKCAAiAAAiAQJQRgAEQZR0CcUDADwEYAH4AIRkEQAAEQAAEQCBtAjAA0uaDVBCINgIwAKKtRyAPCIAACIAACGQyAjAAMlmHQdx/PQEYAP/6IQAAIAACIAACIBAaARgAofFDaRAINwEYAOEmjvZAAARAAARAAARAAARAIIIEYABEED6aBgEQAAEQAAEQAAEQAIFwE4ABEG7iaA8EQAAEQAAEQAAEQAAEIkgABkAE4aNpEAABEAABEAABEAABEAg3ARgA4SaO9kAABEAABEAABEAABEAgggRgAEQQPpoGARAAARAAARAAARAAgXATgAEQbuJoDwRAAARAAARAAARAAAQiSAAGQATho2kQAAEQAAEQAAEQAAEQCDcBGADhJo72QAAEQAAEQAAEQAAEQCCCBGAARBA+mgYBEAABEAABEAABEACBcBOAARBu4mgPBEAABEAABEAABEAABCJIAAZABOGjaRAAARAAARAAARAAARAINwEYAOEmjvZAAARAAARAAARAAARAIIIEYABEED6aBgEQAAEQAAEQAAEQAIFwE4ABEG7iaA8EQAAEQAAEQAAEQAAEIkgABkAE4aNpEAABEAABEAABEAABEAg3ARgA4SaO9kAABEAABEAABEAABEAgggRgAEQQPpoGARAAARAAARAAARAAgXATgAEQbuJoDwRAAARAAARAAARAAAQiSAAGQATho2kQAAEQAAEQAAEQAAEQCDcBGADhJo72QAAEQAAEQAAEQAAEQCCCBGAARBA+mgYBEAABEAABEAABEACBcBOAARBu4mgPBEAABEAABEAABEAABCJIAAZABOGjaRAAARAAARAAARAAARAINwEYAOEmjvZAAARAAARAAARAAARAIIIEYABEED6aBgEQAAEQAAEQAAEQAIFwE4ABEG7iaA8EQAAEQAAEQAAEQAAEIkgABkAE4aNpEAABEAABEAABEAABEAg3ARgA4SaO9kAABEAABEAABEAABEAgggRgAEQQPpoGARAAARAAARAAARAAgXATgAEQbuJoDwRAAARAAARAAARAAAQiSAAGQATho2kQAAEQAAEQAAEQAAEQCDeB/wdx3sXliR8/2wAAAABJRU5ErkJggg==;" vertex="1" parent="1">
          <mxGeometry x="367.25" y="715.76" width="342.75" height="57.13" as="geometry" />
        </mxCell>
      </root>
    </mxGraphModel>
  </diagram>
</mxfile>
